<svg width="36" height="36" viewBox="0 0 36 36" fill="none" xmlns="http://www.w3.org/2000/svg">
<path fill-rule="evenodd" clip-rule="evenodd" d="M18 0.600005C8.39025 0.600004 0.600005 8.39025 0.600004 18C0.600003 27.6098 8.39025 35.4 18 35.4C27.6098 35.4 35.4 27.6098 35.4 18C35.4 8.39025 27.6098 0.600005 18 0.600005ZM18 6.05578e-06C8.05888 5.1867e-06 6.25739e-06 8.05888 5.38831e-06 18C4.51923e-06 27.9411 8.05888 36 18 36C27.9411 36 36 27.9411 36 18C36 8.05888 27.9411 6.92487e-06 18 6.05578e-06Z" fill="#A0A0A0"/>
<path fill-rule="evenodd" clip-rule="evenodd" d="M12.6665 20.9165C13.2854 20.2977 14.1247 19.95 15 19.95H20.9999C21.8752 19.95 22.7145 20.2977 23.3334 20.9165C23.9523 21.5354 24.2999 22.3748 24.2999 23.25V24.75C24.2999 24.9157 24.1656 25.05 23.9999 25.05C23.8343 25.05 23.6999 24.9157 23.6999 24.75V23.25C23.6999 22.5339 23.4155 21.8472 22.9091 21.3408C22.4028 20.8345 21.716 20.55 20.9999 20.55H15C14.2839 20.55 13.5971 20.8345 13.0908 21.3408C12.5844 21.8472 12.3 22.5339 12.3 23.25V24.75C12.3 24.9157 12.1656 25.05 12 25.05C11.8343 25.05 11.7 24.9157 11.7 24.75V23.25C11.7 22.3748 12.0476 21.5354 12.6665 20.9165Z" fill="#A0A0A0"/>
<path fill-rule="evenodd" clip-rule="evenodd" d="M18 11.55C16.5088 11.55 15.3 12.7588 15.3 14.25C15.3 15.7412 16.5088 16.95 18 16.95C19.4911 16.95 20.7 15.7412 20.7 14.25C20.7 12.7588 19.4911 11.55 18 11.55ZM14.7 14.25C14.7 12.4275 16.1774 10.95 18 10.95C19.8225 10.95 21.3 12.4275 21.3 14.25C21.3 16.0725 19.8225 17.55 18 17.55C16.1774 17.55 14.7 16.0725 14.7 14.25Z" fill="#A0A0A0"/>
</svg>
