<svg width="75" height="48" viewBox="0 0 75 48" fill="#DEDEDE" xmlns="http://www.w3.org/2000/svg">
<path d="M0.368117 1.016H1.04012L3.00012 4.576L2.98412 1.016H3.60812H3.68812V1.08C3.65612 1.112 3.63478 1.14667 3.62412 1.184C3.61878 1.22133 3.61612 1.28534 3.61612 1.376V6H3.04012L0.992117 2.224V6H0.368117V1.016Z" fill="url(#paint0_linear)"/>
<path d="M5.25612 6.088C4.84012 6.088 4.52012 5.99467 4.29612 5.808C4.07212 5.616 3.96012 5.37067 3.96012 5.072C3.96012 4.87467 4.00545 4.696 4.09612 4.536C4.19212 4.37067 4.32545 4.232 4.49612 4.12C4.66678 4.008 4.86945 3.92267 5.10412 3.864C5.33878 3.8 5.59745 3.768 5.88012 3.768C5.95478 3.768 6.03212 3.768 6.11212 3.768C6.19745 3.768 6.28545 3.77334 6.37612 3.784C6.47212 3.78934 6.56812 3.79733 6.66412 3.808L6.68812 4.312C6.60278 4.30134 6.51478 4.29334 6.42412 4.288C6.33345 4.27734 6.24278 4.272 6.15212 4.272C6.06678 4.26667 5.98412 4.264 5.90412 4.264C5.70678 4.264 5.52812 4.28 5.36812 4.312C5.21345 4.344 5.08278 4.392 4.97612 4.456C4.86945 4.51467 4.78678 4.592 4.72812 4.688C4.66945 4.77867 4.64012 4.88533 4.64012 5.008C4.64012 5.11467 4.65878 5.20267 4.69612 5.272C4.73345 5.34134 4.78412 5.39734 4.84812 5.44C4.91212 5.48267 4.98678 5.51467 5.07212 5.536C5.15745 5.552 5.25078 5.56 5.35212 5.56C5.54412 5.56 5.71212 5.53067 5.85612 5.472C6.00545 5.408 6.13078 5.31467 6.23212 5.192C6.33878 5.06933 6.41878 4.92 6.47212 4.744C6.52545 4.56267 6.55212 4.352 6.55212 4.112C6.55212 3.77067 6.51212 3.504 6.43212 3.312C6.35745 3.12 6.24278 2.98667 6.08812 2.912C5.93345 2.832 5.73878 2.792 5.50412 2.792C5.32812 2.792 5.15745 2.824 4.99212 2.888C4.83212 2.94667 4.68012 3.048 4.53612 3.192L4.18412 2.768C4.37078 2.58667 4.58145 2.45334 4.81612 2.368C5.05078 2.28267 5.29345 2.24 5.54412 2.24C5.78412 2.24 6.00278 2.26934 6.20012 2.328C6.39745 2.38134 6.56812 2.47467 6.71212 2.608C6.86145 2.74134 6.97612 2.92 7.05612 3.144C7.13612 3.368 7.17612 3.65067 7.17612 3.992V6H6.44812V5.496C6.37878 5.61334 6.29612 5.712 6.20012 5.792C6.10945 5.86667 6.01078 5.92534 5.90412 5.968C5.80278 6.01067 5.69612 6.04 5.58412 6.056C5.47212 6.07734 5.36278 6.088 5.25612 6.088Z" fill="url(#paint1_linear)"/>
<path d="M7.48012 6V2.32H8.08812V2.656C8.14678 2.56534 8.21345 2.49067 8.28812 2.432C8.36278 2.368 8.44278 2.32 8.52812 2.288C8.61878 2.25067 8.70945 2.232 8.80012 2.232C8.90145 2.232 8.99478 2.25334 9.08012 2.296C9.17078 2.33334 9.24545 2.392 9.30412 2.472C9.36812 2.54667 9.41345 2.63734 9.44012 2.744C9.49345 2.63734 9.56012 2.54667 9.64012 2.472C9.72012 2.39734 9.81345 2.33867 9.92012 2.296C10.0268 2.25334 10.1388 2.232 10.2561 2.232C10.3841 2.232 10.4935 2.256 10.5841 2.304C10.6748 2.352 10.7495 2.41867 10.8081 2.504C10.8721 2.58934 10.9175 2.69334 10.9441 2.816C10.9708 2.93867 10.9815 3.072 10.9761 3.216V6H10.3601V3.424C10.3601 3.22134 10.3468 3.072 10.3201 2.976C10.2988 2.87467 10.2641 2.81067 10.2161 2.784C10.1735 2.752 10.1201 2.736 10.0561 2.736C9.96545 2.736 9.88012 2.77867 9.80012 2.864C9.72012 2.944 9.65345 3.05067 9.60012 3.184C9.55212 3.312 9.52812 3.448 9.52812 3.592V6H8.92812V3.464C8.92812 3.176 8.90145 2.984 8.84812 2.888C8.80012 2.792 8.70945 2.744 8.57612 2.744C8.51745 2.744 8.45878 2.76267 8.40012 2.8C8.34678 2.83734 8.29612 2.89067 8.24812 2.96C8.20545 3.024 8.16812 3.10933 8.13612 3.216C8.10945 3.31733 8.09612 3.432 8.09612 3.56V6H7.48012Z" fill="url(#paint2_linear)"/>
<path d="M12.9761 6.08C12.7095 6.08 12.4641 6.04 12.2401 5.96C12.0215 5.87467 11.8295 5.752 11.6641 5.592C11.5041 5.432 11.3815 5.232 11.2961 4.992C11.2108 4.752 11.1681 4.48 11.1681 4.176C11.1681 3.86667 11.2108 3.592 11.2961 3.352C11.3868 3.112 11.5095 2.90934 11.6641 2.744C11.8188 2.57867 12.0001 2.45334 12.2081 2.368C12.4161 2.27734 12.6375 2.232 12.8721 2.232C13.0801 2.232 13.2775 2.26934 13.4641 2.344C13.6508 2.41333 13.8108 2.52 13.9441 2.664C14.0828 2.808 14.1921 2.992 14.2721 3.216C14.3521 3.43467 14.3921 3.69333 14.3921 3.992C14.3921 4.04 14.3895 4.09334 14.3841 4.152C14.3841 4.20534 14.3815 4.25334 14.3761 4.296H11.8241C11.8348 4.51467 11.8721 4.704 11.9361 4.864C12.0055 5.01867 12.0935 5.14667 12.2001 5.248C12.3068 5.344 12.4268 5.416 12.5601 5.464C12.6988 5.512 12.8455 5.536 13.0001 5.536C13.1228 5.536 13.2375 5.52267 13.3441 5.496C13.4561 5.46934 13.5601 5.42667 13.6561 5.368C13.7521 5.30934 13.8401 5.23734 13.9201 5.152L14.2881 5.504C14.1815 5.632 14.0588 5.74133 13.9201 5.832C13.7868 5.91734 13.6401 5.97867 13.4801 6.016C13.3255 6.05867 13.1575 6.08 12.9761 6.08ZM11.8481 3.776H13.7121C13.7121 3.616 13.6908 3.47467 13.6481 3.352C13.6055 3.22934 13.5468 3.12267 13.4721 3.032C13.3975 2.94133 13.3041 2.87467 13.1921 2.832C13.0855 2.784 12.9655 2.76 12.8321 2.76C12.7095 2.76 12.5948 2.78134 12.4881 2.824C12.3815 2.86134 12.2828 2.92267 12.1921 3.008C12.1068 3.09334 12.0321 3.2 11.9681 3.328C11.9095 3.45067 11.8695 3.6 11.8481 3.776Z" fill="url(#paint3_linear)"/>
<path d="M16.2961 3.584C16.1574 3.584 16.0375 3.53334 15.9361 3.432C15.8348 3.33067 15.7841 3.21334 15.7841 3.08C15.7841 2.94133 15.8348 2.82134 15.9361 2.72C16.0375 2.61867 16.1574 2.568 16.2961 2.568C16.4294 2.568 16.5494 2.61867 16.6561 2.72C16.7628 2.816 16.8161 2.936 16.8161 3.08C16.8161 3.21334 16.7654 3.33067 16.6641 3.432C16.5628 3.53334 16.4401 3.584 16.2961 3.584ZM16.2961 6.088C16.1521 6.088 16.0295 6.04 15.9281 5.944C15.8321 5.84267 15.7841 5.72267 15.7841 5.584C15.7841 5.44534 15.8348 5.32534 15.9361 5.224C16.0375 5.12267 16.1574 5.072 16.2961 5.072C16.4294 5.072 16.5494 5.12267 16.6561 5.224C16.7628 5.32534 16.8161 5.44534 16.8161 5.584C16.8161 5.71734 16.7654 5.83467 16.6641 5.936C16.5681 6.03733 16.4454 6.088 16.2961 6.088Z" fill="url(#paint4_linear)"/>
<path d="M23.1601 6.096C22.9201 6.096 22.6961 6.05067 22.4881 5.96C22.2801 5.86934 22.0988 5.73067 21.9441 5.544L22.3041 5.04L22.3601 4.976L22.4081 5.016C22.4135 5.05867 22.4241 5.10134 22.4401 5.144C22.4615 5.18134 22.5041 5.22934 22.5681 5.288C22.6535 5.352 22.7415 5.40267 22.8321 5.44C22.9228 5.472 23.0241 5.488 23.1361 5.488C23.3014 5.488 23.4375 5.45067 23.5441 5.376C23.6508 5.296 23.7281 5.168 23.7761 4.992C23.8295 4.816 23.8561 4.58667 23.8561 4.304V1.576H22.9121V1.016H25.2801V1.576H24.5281V4.32C24.5334 4.63467 24.4988 4.90667 24.4241 5.136C24.3548 5.36 24.2535 5.544 24.1201 5.688C23.9921 5.832 23.8454 5.936 23.6801 6C23.5148 6.064 23.3414 6.096 23.1601 6.096Z" fill="url(#paint5_linear)"/>
<path d="M27.2001 6.072C26.8694 6.072 26.5735 5.992 26.3121 5.832C26.0561 5.66667 25.8535 5.44 25.7041 5.152C25.5548 4.864 25.4801 4.53333 25.4801 4.16C25.4801 3.78667 25.5548 3.456 25.7041 3.168C25.8535 2.88 26.0561 2.65334 26.3121 2.488C26.5735 2.32267 26.8694 2.24 27.2001 2.24C27.5308 2.24 27.8241 2.32267 28.0801 2.488C28.3415 2.65334 28.5468 2.88 28.6961 3.168C28.8455 3.456 28.9201 3.78667 28.9201 4.16C28.9201 4.53333 28.8455 4.864 28.6961 5.152C28.5468 5.44 28.3415 5.66667 28.0801 5.832C27.8241 5.992 27.5308 6.072 27.2001 6.072ZM27.2001 5.512C27.3974 5.512 27.5708 5.45334 27.7201 5.336C27.8695 5.21867 27.9868 5.05867 28.0721 4.856C28.1628 4.65334 28.2081 4.41867 28.2081 4.152C28.2081 3.88534 28.1628 3.65067 28.0721 3.448C27.9868 3.24534 27.8695 3.088 27.7201 2.976C27.5708 2.85867 27.3974 2.8 27.2001 2.8C27.0081 2.8 26.8348 2.85867 26.6801 2.976C26.5308 3.088 26.4108 3.24534 26.3201 3.448C26.2348 3.65067 26.1921 3.88534 26.1921 4.152C26.1921 4.41867 26.2348 4.65334 26.3201 4.856C26.4055 5.05867 26.5228 5.21867 26.6721 5.336C26.8268 5.45334 27.0028 5.512 27.2001 5.512Z" fill="url(#paint6_linear)"/>
<path d="M29.3361 0.664001H30.0081H30.0801V0.728002C30.0534 0.760001 30.0348 0.794668 30.0241 0.832002C30.0188 0.869335 30.0161 0.933335 30.0161 1.024V2.92C30.1068 2.776 30.2161 2.65333 30.3441 2.552C30.4721 2.45067 30.6054 2.37334 30.7441 2.32C30.8881 2.26134 31.0321 2.232 31.1761 2.232C31.4001 2.232 31.5975 2.28534 31.7681 2.392C31.9441 2.49334 32.0774 2.65867 32.1681 2.888C32.2641 3.112 32.3121 3.408 32.3121 3.776V6H31.6401V3.792C31.6401 3.54667 31.6134 3.352 31.5601 3.208C31.5068 3.064 31.4321 2.96 31.3361 2.896C31.2454 2.832 31.1388 2.8 31.0161 2.8C30.9201 2.8 30.8241 2.816 30.7281 2.848C30.6321 2.88 30.5414 2.928 30.4561 2.992C30.3708 3.05067 30.2934 3.12533 30.2241 3.216C30.1601 3.30133 30.1094 3.4 30.0721 3.512C30.0348 3.624 30.0161 3.74934 30.0161 3.888V6H29.3361V0.664001Z" fill="url(#paint7_linear)"/>
<path d="M32.9281 6V2.32H33.6081V2.928C33.6988 2.78934 33.8055 2.66934 33.9281 2.568C34.0508 2.46134 34.1841 2.37867 34.3281 2.32C34.4775 2.26134 34.6321 2.232 34.7921 2.232C35.0001 2.232 35.1868 2.28534 35.3521 2.392C35.5175 2.49334 35.6508 2.656 35.7521 2.88C35.8535 3.104 35.9041 3.40267 35.9041 3.776V6H35.2321V3.792C35.2321 3.552 35.2055 3.36 35.1521 3.216C35.0988 3.072 35.0241 2.968 34.9281 2.904C34.8321 2.83467 34.7228 2.8 34.6001 2.8C34.4881 2.8 34.3735 2.82667 34.2561 2.88C34.1388 2.928 34.0295 2.99734 33.9281 3.088C33.8321 3.17867 33.7548 3.29067 33.6961 3.424C33.6375 3.552 33.6081 3.696 33.6081 3.856V6H32.9281Z" fill="url(#paint8_linear)"/>
<path d="M0.504117 9.016H1.19212H1.27212V9.08C1.24012 9.112 1.21878 9.14667 1.20812 9.184C1.20278 9.22134 1.20012 9.28533 1.20012 9.376V13.432H3.56012V14H0.504117V9.016Z" fill="url(#paint9_linear)"/>
<path d="M5.25612 14.088C4.84012 14.088 4.52012 13.9947 4.29612 13.808C4.07212 13.616 3.96012 13.3707 3.96012 13.072C3.96012 12.8747 4.00545 12.696 4.09612 12.536C4.19212 12.3707 4.32545 12.232 4.49612 12.12C4.66678 12.008 4.86945 11.9227 5.10412 11.864C5.33878 11.8 5.59745 11.768 5.88012 11.768C5.95478 11.768 6.03212 11.768 6.11212 11.768C6.19745 11.768 6.28545 11.7733 6.37612 11.784C6.47212 11.7893 6.56812 11.7973 6.66412 11.808L6.68812 12.312C6.60278 12.3013 6.51478 12.2933 6.42412 12.288C6.33345 12.2773 6.24278 12.272 6.15212 12.272C6.06678 12.2667 5.98412 12.264 5.90412 12.264C5.70678 12.264 5.52812 12.28 5.36812 12.312C5.21345 12.344 5.08278 12.392 4.97612 12.456C4.86945 12.5147 4.78678 12.592 4.72812 12.688C4.66945 12.7787 4.64012 12.8853 4.64012 13.008C4.64012 13.1147 4.65878 13.2027 4.69612 13.272C4.73345 13.3413 4.78412 13.3973 4.84812 13.44C4.91212 13.4827 4.98678 13.5147 5.07212 13.536C5.15745 13.552 5.25078 13.56 5.35212 13.56C5.54412 13.56 5.71212 13.5307 5.85612 13.472C6.00545 13.408 6.13078 13.3147 6.23212 13.192C6.33878 13.0693 6.41878 12.92 6.47212 12.744C6.52545 12.5627 6.55212 12.352 6.55212 12.112C6.55212 11.7707 6.51212 11.504 6.43212 11.312C6.35745 11.12 6.24278 10.9867 6.08812 10.912C5.93345 10.832 5.73878 10.792 5.50412 10.792C5.32812 10.792 5.15745 10.824 4.99212 10.888C4.83212 10.9467 4.68012 11.048 4.53612 11.192L4.18412 10.768C4.37078 10.5867 4.58145 10.4533 4.81612 10.368C5.05078 10.2827 5.29345 10.24 5.54412 10.24C5.78412 10.24 6.00278 10.2693 6.20012 10.328C6.39745 10.3813 6.56812 10.4747 6.71212 10.608C6.86145 10.7413 6.97612 10.92 7.05612 11.144C7.13612 11.368 7.17612 11.6507 7.17612 11.992V14H6.44812V13.496C6.37878 13.6133 6.29612 13.712 6.20012 13.792C6.10945 13.8667 6.01078 13.9253 5.90412 13.968C5.80278 14.0107 5.69612 14.04 5.58412 14.056C5.47212 14.0773 5.36278 14.088 5.25612 14.088Z" fill="url(#paint10_linear)"/>
<path d="M9.23212 14.08C9.01878 14.08 8.81612 14.0587 8.62412 14.016C8.43212 13.9787 8.25345 13.9173 8.08812 13.832C7.92278 13.7413 7.76812 13.632 7.62412 13.504L7.96812 12.896L8.01612 12.824L8.06412 12.856C8.08012 12.8987 8.09345 12.944 8.10412 12.992C8.12012 13.0347 8.15745 13.088 8.21612 13.152C8.33878 13.264 8.48012 13.3547 8.64012 13.424C8.80012 13.4933 9.00278 13.528 9.24812 13.528C9.42945 13.528 9.58145 13.5067 9.70412 13.464C9.83212 13.416 9.92812 13.3547 9.99212 13.28C10.0615 13.2 10.0961 13.1067 10.0961 13C10.0961 12.9253 10.0801 12.8613 10.0481 12.808C10.0161 12.7493 9.96545 12.696 9.89612 12.648C9.82678 12.6 9.73345 12.552 9.61612 12.504C9.49878 12.4507 9.35745 12.4 9.19212 12.352C8.92012 12.272 8.68012 12.1813 8.47212 12.08C8.26945 11.9733 8.11212 11.848 8.00012 11.704C7.88812 11.56 7.83212 11.3947 7.83212 11.208C7.83212 11.0107 7.88545 10.84 7.99212 10.696C8.10412 10.552 8.26145 10.44 8.46412 10.36C8.67212 10.2747 8.92278 10.232 9.21612 10.232C9.38145 10.232 9.53345 10.2453 9.67212 10.272C9.81078 10.2933 9.93878 10.328 10.0561 10.376C10.1788 10.424 10.2908 10.4853 10.3921 10.56C10.4988 10.6293 10.5975 10.712 10.6881 10.808L10.3201 11.28L10.2641 11.344L10.2241 11.304C10.2188 11.2613 10.2055 11.2213 10.1841 11.184C10.1681 11.1413 10.1281 11.0907 10.0641 11.032C9.94678 10.9413 9.81345 10.872 9.66412 10.824C9.52012 10.776 9.37612 10.752 9.23212 10.752C9.02945 10.752 8.85345 10.7867 8.70412 10.856C8.56012 10.9253 8.48812 11.032 8.48812 11.176C8.48812 11.256 8.51745 11.3307 8.57612 11.4C8.63478 11.4693 8.73612 11.5387 8.88012 11.608C9.02412 11.6773 9.22678 11.7467 9.48812 11.816C9.78678 11.9067 10.0295 12.0027 10.2161 12.104C10.4028 12.2053 10.5388 12.3227 10.6241 12.456C10.7095 12.5893 10.7521 12.7467 10.7521 12.928C10.7521 13.1307 10.6961 13.3227 10.5841 13.504C10.4721 13.68 10.3015 13.8213 10.0721 13.928C9.84812 14.0293 9.56812 14.08 9.23212 14.08Z" fill="url(#paint11_linear)"/>
<path d="M13.1921 14.064C12.9628 14.064 12.7708 14.0267 12.6161 13.952C12.4668 13.872 12.3468 13.752 12.2561 13.592C12.1708 13.4267 12.1121 13.216 12.0801 12.96C12.0535 12.704 12.0455 12.3947 12.0561 12.032L12.1521 9.408L12.8641 9.32L12.9441 9.312L12.9521 9.368C12.9255 9.40534 12.9015 9.44267 12.8801 9.48C12.8641 9.51733 12.8508 9.58134 12.8401 9.672L12.7681 10.648L12.7921 10.76L12.7361 12.056C12.7201 12.44 12.7308 12.7387 12.7681 12.952C12.8055 13.16 12.8695 13.304 12.9601 13.384C13.0561 13.464 13.1761 13.504 13.3201 13.504C13.4961 13.504 13.6508 13.4693 13.7841 13.4C13.9228 13.3307 14.0615 13.2453 14.2001 13.144L14.3761 13.664C14.1948 13.7973 14.0055 13.8987 13.8081 13.968C13.6161 14.032 13.4108 14.064 13.1921 14.064ZM11.3281 10.32H14.0401V10.872H11.3281V10.32Z" fill="url(#paint12_linear)"/>
<path d="M18.3681 9.016H19.0401L21.0001 12.576L20.9841 9.016H21.6081H21.6881V9.08C21.6561 9.112 21.6348 9.14667 21.6241 9.184C21.6188 9.22134 21.6161 9.28533 21.6161 9.376V14H21.0401L18.9921 10.224V14H18.3681V9.016Z" fill="url(#paint13_linear)"/>
<path d="M23.2561 14.088C22.8401 14.088 22.5201 13.9947 22.2961 13.808C22.0721 13.616 21.9601 13.3707 21.9601 13.072C21.9601 12.8747 22.0055 12.696 22.0961 12.536C22.1921 12.3707 22.3255 12.232 22.4961 12.12C22.6668 12.008 22.8694 11.9227 23.1041 11.864C23.3388 11.8 23.5975 11.768 23.8801 11.768C23.9548 11.768 24.0321 11.768 24.1121 11.768C24.1974 11.768 24.2854 11.7733 24.3761 11.784C24.4721 11.7893 24.5681 11.7973 24.6641 11.808L24.6881 12.312C24.6028 12.3013 24.5148 12.2933 24.4241 12.288C24.3335 12.2773 24.2428 12.272 24.1521 12.272C24.0668 12.2667 23.9841 12.264 23.9041 12.264C23.7068 12.264 23.5281 12.28 23.3681 12.312C23.2134 12.344 23.0828 12.392 22.9761 12.456C22.8694 12.5147 22.7868 12.592 22.7281 12.688C22.6695 12.7787 22.6401 12.8853 22.6401 13.008C22.6401 13.1147 22.6588 13.2027 22.6961 13.272C22.7334 13.3413 22.7841 13.3973 22.8481 13.44C22.9121 13.4827 22.9868 13.5147 23.0721 13.536C23.1574 13.552 23.2508 13.56 23.3521 13.56C23.5441 13.56 23.7121 13.5307 23.8561 13.472C24.0055 13.408 24.1308 13.3147 24.2321 13.192C24.3388 13.0693 24.4188 12.92 24.4721 12.744C24.5254 12.5627 24.5521 12.352 24.5521 12.112C24.5521 11.7707 24.5121 11.504 24.4321 11.312C24.3575 11.12 24.2428 10.9867 24.0881 10.912C23.9335 10.832 23.7388 10.792 23.5041 10.792C23.3281 10.792 23.1574 10.824 22.9921 10.888C22.8321 10.9467 22.6801 11.048 22.5361 11.192L22.1841 10.768C22.3708 10.5867 22.5814 10.4533 22.8161 10.368C23.0508 10.2827 23.2934 10.24 23.5441 10.24C23.7841 10.24 24.0028 10.2693 24.2001 10.328C24.3974 10.3813 24.5681 10.4747 24.7121 10.608C24.8615 10.7413 24.9761 10.92 25.0561 11.144C25.1361 11.368 25.1761 11.6507 25.1761 11.992V14H24.4481V13.496C24.3788 13.6133 24.2961 13.712 24.2001 13.792C24.1095 13.8667 24.0108 13.9253 23.9041 13.968C23.8028 14.0107 23.6961 14.04 23.5841 14.056C23.4721 14.0773 23.3628 14.088 23.2561 14.088Z" fill="url(#paint14_linear)"/>
<path d="M25.4801 14V10.32H26.0881V10.656C26.1468 10.5653 26.2134 10.4907 26.2881 10.432C26.3628 10.368 26.4428 10.32 26.5281 10.288C26.6188 10.2507 26.7095 10.232 26.8001 10.232C26.9015 10.232 26.9948 10.2533 27.0801 10.296C27.1708 10.3333 27.2455 10.392 27.3041 10.472C27.3681 10.5467 27.4135 10.6373 27.4401 10.744C27.4935 10.6373 27.5601 10.5467 27.6401 10.472C27.7201 10.3973 27.8134 10.3387 27.9201 10.296C28.0268 10.2533 28.1388 10.232 28.2561 10.232C28.3841 10.232 28.4935 10.256 28.5841 10.304C28.6748 10.352 28.7495 10.4187 28.8081 10.504C28.8721 10.5893 28.9174 10.6933 28.9441 10.816C28.9708 10.9387 28.9815 11.072 28.9761 11.216V14H28.3601V11.424C28.3601 11.2213 28.3468 11.072 28.3201 10.976C28.2988 10.8747 28.2641 10.8107 28.2161 10.784C28.1735 10.752 28.1201 10.736 28.0561 10.736C27.9655 10.736 27.8801 10.7787 27.8001 10.864C27.7201 10.944 27.6535 11.0507 27.6001 11.184C27.5521 11.312 27.5281 11.448 27.5281 11.592V14H26.9281V11.464C26.9281 11.176 26.9015 10.984 26.8481 10.888C26.8001 10.792 26.7094 10.744 26.5761 10.744C26.5175 10.744 26.4588 10.7627 26.4001 10.8C26.3468 10.8373 26.2961 10.8907 26.2481 10.96C26.2055 11.024 26.1681 11.1093 26.1361 11.216C26.1095 11.3173 26.0961 11.432 26.0961 11.56V14H25.4801Z" fill="url(#paint15_linear)"/>
<path d="M30.9761 14.08C30.7094 14.08 30.4641 14.04 30.2401 13.96C30.0215 13.8747 29.8294 13.752 29.6641 13.592C29.5041 13.432 29.3814 13.232 29.2961 12.992C29.2108 12.752 29.1681 12.48 29.1681 12.176C29.1681 11.8667 29.2108 11.592 29.2961 11.352C29.3868 11.112 29.5094 10.9093 29.6641 10.744C29.8188 10.5787 30.0001 10.4533 30.2081 10.368C30.4161 10.2773 30.6374 10.232 30.8721 10.232C31.0801 10.232 31.2774 10.2693 31.4641 10.344C31.6508 10.4133 31.8108 10.52 31.9441 10.664C32.0828 10.808 32.1921 10.992 32.2721 11.216C32.3521 11.4347 32.3921 11.6933 32.3921 11.992C32.3921 12.04 32.3895 12.0933 32.3841 12.152C32.3841 12.2053 32.3815 12.2533 32.3761 12.296H29.8241C29.8348 12.5147 29.8721 12.704 29.9361 12.864C30.0054 13.0187 30.0934 13.1467 30.2001 13.248C30.3068 13.344 30.4268 13.416 30.5601 13.464C30.6988 13.512 30.8454 13.536 31.0001 13.536C31.1228 13.536 31.2374 13.5227 31.3441 13.496C31.4561 13.4693 31.5601 13.4267 31.6561 13.368C31.7521 13.3093 31.8401 13.2373 31.9201 13.152L32.2881 13.504C32.1814 13.632 32.0588 13.7413 31.9201 13.832C31.7868 13.9173 31.6401 13.9787 31.4801 14.016C31.3254 14.0587 31.1574 14.08 30.9761 14.08ZM29.8481 11.776H31.7121C31.7121 11.616 31.6908 11.4747 31.6481 11.352C31.6054 11.2293 31.5468 11.1227 31.4721 11.032C31.3974 10.9413 31.3041 10.8747 31.1921 10.832C31.0854 10.784 30.9654 10.76 30.8321 10.76C30.7094 10.76 30.5948 10.7813 30.4881 10.824C30.3814 10.8613 30.2828 10.9227 30.1921 11.008C30.1068 11.0933 30.0321 11.2 29.9681 11.328C29.9094 11.4507 29.8694 11.6 29.8481 11.776Z" fill="url(#paint16_linear)"/>
<path d="M34.2961 11.584C34.1575 11.584 34.0375 11.5333 33.9361 11.432C33.8348 11.3307 33.7841 11.2133 33.7841 11.08C33.7841 10.9413 33.8348 10.8213 33.9361 10.72C34.0375 10.6187 34.1575 10.568 34.2961 10.568C34.4295 10.568 34.5495 10.6187 34.6561 10.72C34.7628 10.816 34.8161 10.936 34.8161 11.08C34.8161 11.2133 34.7655 11.3307 34.6641 11.432C34.5628 11.5333 34.4401 11.584 34.2961 11.584ZM34.2961 14.088C34.1521 14.088 34.0295 14.04 33.9281 13.944C33.8321 13.8427 33.7841 13.7227 33.7841 13.584C33.7841 13.4453 33.8348 13.3253 33.9361 13.224C34.0375 13.1227 34.1575 13.072 34.2961 13.072C34.4295 13.072 34.5495 13.1227 34.6561 13.224C34.7628 13.3253 34.8161 13.4453 34.8161 13.584C34.8161 13.7173 34.7655 13.8347 34.6641 13.936C34.5681 14.0373 34.4455 14.088 34.2961 14.088Z" fill="url(#paint17_linear)"/>
<path d="M41.5601 14.08C41.2348 14.08 40.9361 14.0293 40.6641 13.928C40.3974 13.8213 40.1655 13.6667 39.9681 13.464L40.3121 12.88L40.3441 12.808L40.4001 12.84C40.4108 12.8773 40.4241 12.92 40.4401 12.968C40.4614 13.0107 40.5014 13.064 40.5601 13.128C40.6988 13.24 40.8561 13.3307 41.0321 13.4C41.2081 13.464 41.4055 13.496 41.6241 13.496C41.7681 13.496 41.8988 13.4773 42.0161 13.44C42.1334 13.3973 42.2348 13.3413 42.3201 13.272C42.4108 13.2027 42.4801 13.12 42.5281 13.024C42.5761 12.928 42.6001 12.824 42.6001 12.712C42.6001 12.6267 42.5894 12.5493 42.5681 12.48C42.5521 12.4107 42.5201 12.3467 42.4721 12.288C42.4241 12.2293 42.3601 12.1707 42.2801 12.112C42.2001 12.0533 42.0961 11.9893 41.9681 11.92C41.8401 11.8507 41.6854 11.776 41.5041 11.696C41.1628 11.5573 40.8908 11.4107 40.6881 11.256C40.4908 11.1013 40.3495 10.936 40.2641 10.76C40.1788 10.584 40.1361 10.3947 40.1361 10.192C40.1361 9.94667 40.2001 9.73067 40.3281 9.544C40.4561 9.35734 40.6348 9.21067 40.8641 9.104C41.0988 8.99734 41.3708 8.944 41.6801 8.944C41.8721 8.944 42.0535 8.97067 42.2241 9.024C42.4001 9.072 42.5628 9.14134 42.7121 9.232C42.8615 9.32267 42.9948 9.43734 43.1121 9.576L42.7281 10.056L42.6801 10.12L42.6241 10.08C42.6188 10.0373 42.6081 9.99467 42.5921 9.952C42.5761 9.90934 42.5388 9.856 42.4801 9.792C42.3628 9.68 42.2375 9.60534 42.1041 9.568C41.9708 9.52534 41.8108 9.504 41.6241 9.504C41.5015 9.504 41.3895 9.52 41.2881 9.552C41.1921 9.584 41.1094 9.632 41.0401 9.696C40.9708 9.76 40.9148 9.832 40.8721 9.912C40.8348 9.98667 40.8161 10.0667 40.8161 10.152C40.8161 10.2373 40.8268 10.3147 40.8481 10.384C40.8694 10.448 40.9041 10.512 40.9521 10.576C41.0001 10.64 41.0668 10.7067 41.1521 10.776C41.2428 10.84 41.3548 10.9067 41.4881 10.976C41.6268 11.04 41.7921 11.112 41.9841 11.192C42.2348 11.2987 42.4428 11.4027 42.6081 11.504C42.7734 11.6053 42.9014 11.7147 42.9921 11.832C43.0881 11.944 43.1574 12.0667 43.2001 12.2C43.2428 12.328 43.2641 12.4747 43.2641 12.64C43.2641 12.8693 43.2054 13.096 43.0881 13.32C42.9708 13.544 42.7868 13.728 42.5361 13.872C42.2854 14.0107 41.9601 14.08 41.5601 14.08Z" fill="url(#paint18_linear)"/>
<path d="M43.4801 14V10.32H44.0881V10.656C44.1468 10.5653 44.2135 10.4907 44.2881 10.432C44.3628 10.368 44.4428 10.32 44.5281 10.288C44.6188 10.2507 44.7094 10.232 44.8001 10.232C44.9015 10.232 44.9948 10.2533 45.0801 10.296C45.1708 10.3333 45.2455 10.392 45.3041 10.472C45.3681 10.5467 45.4135 10.6373 45.4401 10.744C45.4935 10.6373 45.5601 10.5467 45.6401 10.472C45.7201 10.3973 45.8135 10.3387 45.9201 10.296C46.0268 10.2533 46.1388 10.232 46.2561 10.232C46.3841 10.232 46.4935 10.256 46.5841 10.304C46.6748 10.352 46.7495 10.4187 46.8081 10.504C46.8721 10.5893 46.9174 10.6933 46.9441 10.816C46.9708 10.9387 46.9815 11.072 46.9761 11.216V14H46.3601V11.424C46.3601 11.2213 46.3468 11.072 46.3201 10.976C46.2988 10.8747 46.2641 10.8107 46.2161 10.784C46.1735 10.752 46.1201 10.736 46.0561 10.736C45.9655 10.736 45.8801 10.7787 45.8001 10.864C45.7201 10.944 45.6535 11.0507 45.6001 11.184C45.5521 11.312 45.5281 11.448 45.5281 11.592V14H44.9281V11.464C44.9281 11.176 44.9015 10.984 44.8481 10.888C44.8001 10.792 44.7095 10.744 44.5761 10.744C44.5175 10.744 44.4588 10.7627 44.4001 10.8C44.3468 10.8373 44.2961 10.8907 44.2481 10.96C44.2055 11.024 44.1681 11.1093 44.1361 11.216C44.1095 11.3173 44.0961 11.432 44.0961 11.56V14H43.4801Z" fill="url(#paint19_linear)"/>
<path d="M47.5601 14V13.456H48.4881V10.872H47.6081V10.32H49.1761V13.456H50.0241V14H47.5601ZM48.7921 9.608C48.6641 9.608 48.5548 9.56267 48.4641 9.472C48.3735 9.38134 48.3281 9.27467 48.3281 9.152C48.3281 9.01867 48.3708 8.90933 48.4561 8.824C48.5468 8.73867 48.6588 8.696 48.7921 8.696C48.9148 8.696 49.0215 8.74133 49.1121 8.832C49.2081 8.92267 49.2561 9.02934 49.2561 9.152C49.2561 9.27467 49.2081 9.38134 49.1121 9.472C49.0215 9.56267 48.9148 9.608 48.7921 9.608Z" fill="url(#paint20_linear)"/>
<path d="M52.7921 14.064C52.5628 14.064 52.3708 14.0267 52.2161 13.952C52.0668 13.872 51.9468 13.752 51.8561 13.592C51.7708 13.4267 51.7121 13.216 51.6801 12.96C51.6535 12.704 51.6455 12.3947 51.6561 12.032L51.7521 9.408L52.4641 9.32L52.5441 9.312L52.5521 9.368C52.5255 9.40534 52.5015 9.44267 52.4801 9.48C52.4641 9.51733 52.4508 9.58134 52.4401 9.672L52.3681 10.648L52.3921 10.76L52.3361 12.056C52.3201 12.44 52.3308 12.7387 52.3681 12.952C52.4055 13.16 52.4695 13.304 52.5601 13.384C52.6561 13.464 52.7761 13.504 52.9201 13.504C53.0961 13.504 53.2508 13.4693 53.3841 13.4C53.5228 13.3307 53.6615 13.2453 53.8001 13.144L53.9761 13.664C53.7948 13.7973 53.6055 13.8987 53.4081 13.968C53.2161 14.032 53.0108 14.064 52.7921 14.064ZM50.9281 10.32H53.6401V10.872H50.9281V10.32Z" fill="url(#paint21_linear)"/>
<path d="M54.5361 8.664H55.2081H55.2801V8.728C55.2534 8.76 55.2348 8.79467 55.2241 8.832C55.2188 8.86934 55.2161 8.93334 55.2161 9.024V10.92C55.3068 10.776 55.4161 10.6533 55.5441 10.552C55.6721 10.4507 55.8055 10.3733 55.9441 10.32C56.0881 10.2613 56.2321 10.232 56.3761 10.232C56.6001 10.232 56.7975 10.2853 56.9681 10.392C57.1441 10.4933 57.2775 10.6587 57.3681 10.888C57.4641 11.112 57.5121 11.408 57.5121 11.776V14H56.8401V11.792C56.8401 11.5467 56.8135 11.352 56.7601 11.208C56.7068 11.064 56.6321 10.96 56.5361 10.896C56.4454 10.832 56.3388 10.8 56.2161 10.8C56.1201 10.8 56.0241 10.816 55.9281 10.848C55.8321 10.88 55.7415 10.928 55.6561 10.992C55.5708 11.0507 55.4935 11.1253 55.4241 11.216C55.3601 11.3013 55.3095 11.4 55.2721 11.512C55.2348 11.624 55.2161 11.7493 55.2161 11.888V14H54.5361V8.664Z" fill="url(#paint22_linear)"/>
<path d="M2.88012 20.64H1.02412L1.14412 20.136H2.74412L2.88012 20.64ZM1.99212 18.36L0.784117 22H0.120117L1.90412 16.944H2.09612L3.88012 22H3.19212L1.99212 18.36Z" fill="url(#paint23_linear)"/>
<path d="M5.55212 23.392C5.29612 23.392 5.06412 23.3707 4.85612 23.328C4.64812 23.2853 4.47212 23.224 4.32812 23.144C4.18412 23.064 4.07212 22.9653 3.99212 22.848C3.91745 22.7307 3.88012 22.5947 3.88012 22.44C3.88012 22.296 3.91212 22.1653 3.97612 22.048C4.04012 21.936 4.12278 21.84 4.22412 21.76C4.33078 21.68 4.44812 21.6187 4.57612 21.576L4.87212 21.728C4.78145 21.7867 4.70412 21.8453 4.64012 21.904C4.58145 21.9573 4.53612 22.0187 4.50412 22.088C4.47745 22.1627 4.46412 22.2507 4.46412 22.352C4.46412 22.432 4.49078 22.504 4.54412 22.568C4.59745 22.6373 4.67212 22.6933 4.76812 22.736C4.86412 22.7787 4.98145 22.8107 5.12012 22.832C5.25878 22.8587 5.41345 22.872 5.58412 22.872C5.81345 22.872 6.00278 22.848 6.15212 22.8C6.30145 22.7573 6.41345 22.6933 6.48812 22.608C6.56278 22.528 6.60012 22.4373 6.60012 22.336C6.60012 22.2293 6.57878 22.1413 6.53612 22.072C6.49345 22.008 6.40812 21.96 6.28012 21.928C6.15212 21.896 5.96545 21.88 5.72012 21.88C5.53878 21.88 5.36812 21.872 5.20812 21.856C5.04812 21.84 4.90145 21.8133 4.76812 21.776C4.64012 21.7387 4.53078 21.6933 4.44012 21.64C4.34945 21.5813 4.27745 21.5093 4.22412 21.424C4.17612 21.3387 4.15212 21.24 4.15212 21.128C4.15212 20.9787 4.19478 20.84 4.28012 20.712C4.37078 20.584 4.48545 20.4613 4.62412 20.344L4.94412 20.568C4.89078 20.6267 4.84545 20.6773 4.80812 20.72C4.77612 20.7573 4.75212 20.7947 4.73612 20.832C4.72012 20.8693 4.71212 20.912 4.71212 20.96C4.71212 21.04 4.74678 21.104 4.81612 21.152C4.89078 21.2 5.01345 21.2373 5.18412 21.264C5.36012 21.2853 5.59212 21.296 5.88012 21.296C6.14678 21.296 6.36545 21.32 6.53612 21.368C6.70678 21.416 6.84012 21.4853 6.93612 21.576C7.03212 21.6613 7.09878 21.7627 7.13612 21.88C7.17878 21.992 7.20012 22.1147 7.20012 22.248C7.20012 22.3973 7.16812 22.5387 7.10412 22.672C7.04545 22.8107 6.94945 22.9333 6.81612 23.04C6.68812 23.1467 6.52012 23.232 6.31212 23.296C6.10412 23.36 5.85078 23.392 5.55212 23.392ZM5.41612 20.752C5.15478 20.752 4.92545 20.696 4.72812 20.584C4.53078 20.472 4.37612 20.32 4.26412 20.128C4.15745 19.9307 4.10412 19.712 4.10412 19.472C4.10412 19.2373 4.15745 19.024 4.26412 18.832C4.37612 18.64 4.53078 18.4853 4.72812 18.368C4.92545 18.2507 5.15478 18.192 5.41612 18.192C5.68278 18.192 5.91212 18.2507 6.10412 18.368C6.30145 18.4853 6.45345 18.64 6.56012 18.832C6.67212 19.024 6.72812 19.2373 6.72812 19.472C6.72812 19.712 6.67212 19.9307 6.56012 20.128C6.45345 20.32 6.30145 20.472 6.10412 20.584C5.91212 20.696 5.68278 20.752 5.41612 20.752ZM5.41612 20.216C5.56012 20.216 5.68545 20.184 5.79212 20.12C5.90412 20.0507 5.99212 19.96 6.05612 19.848C6.12545 19.736 6.16012 19.6107 6.16012 19.472C6.16012 19.3333 6.12545 19.2107 6.05612 19.104C5.99212 18.992 5.90412 18.904 5.79212 18.84C5.68545 18.7707 5.56012 18.736 5.41612 18.736C5.27745 18.736 5.15212 18.7707 5.04012 18.84C4.92812 18.904 4.84012 18.992 4.77612 19.104C4.71212 19.216 4.68012 19.3387 4.68012 19.472C4.68012 19.6053 4.71212 19.7307 4.77612 19.848C4.84012 19.96 4.92812 20.0507 5.04012 20.12C5.15212 20.184 5.27745 20.216 5.41612 20.216ZM6.51212 18.944L6.24812 18.624C6.40278 18.48 6.56812 18.3733 6.74412 18.304C6.92012 18.2347 7.12012 18.208 7.34412 18.224L7.42412 18.752C7.25345 18.7307 7.09078 18.7333 6.93612 18.76C6.78145 18.7867 6.64012 18.848 6.51212 18.944Z" fill="url(#paint24_linear)"/>
<path d="M9.37612 22.08C9.10945 22.08 8.86412 22.04 8.64012 21.96C8.42145 21.8747 8.22945 21.752 8.06412 21.592C7.90412 21.432 7.78145 21.232 7.69612 20.992C7.61078 20.752 7.56812 20.48 7.56812 20.176C7.56812 19.8667 7.61078 19.592 7.69612 19.352C7.78678 19.112 7.90945 18.9093 8.06412 18.744C8.21878 18.5787 8.40012 18.4533 8.60812 18.368C8.81612 18.2773 9.03745 18.232 9.27212 18.232C9.48012 18.232 9.67745 18.2693 9.86412 18.344C10.0508 18.4133 10.2108 18.52 10.3441 18.664C10.4828 18.808 10.5921 18.992 10.6721 19.216C10.7521 19.4347 10.7921 19.6933 10.7921 19.992C10.7921 20.04 10.7895 20.0933 10.7841 20.152C10.7841 20.2053 10.7815 20.2533 10.7761 20.296H8.22412C8.23478 20.5147 8.27212 20.704 8.33612 20.864C8.40545 21.0187 8.49345 21.1467 8.60012 21.248C8.70678 21.344 8.82678 21.416 8.96012 21.464C9.09878 21.512 9.24545 21.536 9.40012 21.536C9.52278 21.536 9.63745 21.5227 9.74412 21.496C9.85612 21.4693 9.96012 21.4267 10.0561 21.368C10.1521 21.3093 10.2401 21.2373 10.3201 21.152L10.6881 21.504C10.5815 21.632 10.4588 21.7413 10.3201 21.832C10.1868 21.9173 10.0401 21.9787 9.88012 22.016C9.72545 22.0587 9.55745 22.08 9.37612 22.08ZM8.24812 19.776H10.1121C10.1121 19.616 10.0908 19.4747 10.0481 19.352C10.0055 19.2293 9.94678 19.1227 9.87212 19.032C9.79745 18.9413 9.70412 18.8747 9.59212 18.832C9.48545 18.784 9.36545 18.76 9.23212 18.76C9.10945 18.76 8.99478 18.7813 8.88812 18.824C8.78145 18.8613 8.68278 18.9227 8.59212 19.008C8.50678 19.0933 8.43212 19.2 8.36812 19.328C8.30945 19.4507 8.26945 19.6 8.24812 19.776Z" fill="url(#paint25_linear)"/>
<path d="M12.6961 19.584C12.5575 19.584 12.4375 19.5333 12.3361 19.432C12.2348 19.3307 12.1841 19.2133 12.1841 19.08C12.1841 18.9413 12.2348 18.8213 12.3361 18.72C12.4375 18.6187 12.5575 18.568 12.6961 18.568C12.8295 18.568 12.9495 18.6187 13.0561 18.72C13.1628 18.816 13.2161 18.936 13.2161 19.08C13.2161 19.2133 13.1655 19.3307 13.0641 19.432C12.9628 19.5333 12.8401 19.584 12.6961 19.584ZM12.6961 22.088C12.5521 22.088 12.4295 22.04 12.3281 21.944C12.2321 21.8427 12.1841 21.7227 12.1841 21.584C12.1841 21.4453 12.2348 21.3253 12.3361 21.224C12.4375 21.1227 12.5575 21.072 12.6961 21.072C12.8295 21.072 12.9495 21.1227 13.0561 21.224C13.1628 21.3253 13.2161 21.4453 13.2161 21.584C13.2161 21.7173 13.1655 21.8347 13.0641 21.936C12.9681 22.0373 12.8455 22.088 12.6961 22.088Z" fill="url(#paint26_linear)"/>
<path d="M20.4561 22V20.792H18.3601V20.32L20.6001 17.008H21.1441V20.24H21.7841V20.8H21.1441V22H20.4561ZM19.0961 20.24H20.4641V18.16L19.0961 20.24Z" fill="url(#paint27_linear)"/>
<path d="M22.7601 22C22.9148 21.4987 23.0721 21.0053 23.2321 20.52C23.3974 20.0347 23.5654 19.552 23.7361 19.072C23.9121 18.592 24.0935 18.1093 24.2801 17.624H22.1921V17.016H25.0881V17.392C24.9388 17.7653 24.7895 18.1413 24.6401 18.52C24.4961 18.8987 24.3575 19.28 24.2241 19.664C24.0908 20.048 23.9628 20.4347 23.8401 20.824C23.7228 21.208 23.6054 21.6 23.4881 22H22.7601Z" fill="url(#paint28_linear)"/>
<path d="M0.368117 25.016H1.05612H1.13612V25.08C1.10412 25.112 1.08278 25.1467 1.07212 25.184C1.06678 25.2213 1.06412 25.2853 1.06412 25.376V27.112H2.87212V25.016H3.56012H3.64012V25.08C3.60812 25.112 3.58678 25.1467 3.57612 25.184C3.57078 25.2213 3.56812 25.2853 3.56812 25.376V30H2.87212V27.672H1.06412V30H0.368117V25.016Z" fill="url(#paint29_linear)"/>
<path d="M5.77612 30.08C5.50945 30.08 5.26412 30.04 5.04012 29.96C4.82145 29.8747 4.62945 29.752 4.46412 29.592C4.30412 29.432 4.18145 29.232 4.09612 28.992C4.01078 28.752 3.96812 28.48 3.96812 28.176C3.96812 27.8667 4.01078 27.592 4.09612 27.352C4.18678 27.112 4.30945 26.9093 4.46412 26.744C4.61878 26.5787 4.80012 26.4533 5.00812 26.368C5.21612 26.2773 5.43745 26.232 5.67212 26.232C5.88012 26.232 6.07745 26.2693 6.26412 26.344C6.45078 26.4133 6.61078 26.52 6.74412 26.664C6.88278 26.808 6.99212 26.992 7.07212 27.216C7.15212 27.4347 7.19212 27.6933 7.19212 27.992C7.19212 28.04 7.18945 28.0933 7.18412 28.152C7.18412 28.2053 7.18145 28.2533 7.17612 28.296H4.62412C4.63478 28.5147 4.67212 28.704 4.73612 28.864C4.80545 29.0187 4.89345 29.1467 5.00012 29.248C5.10678 29.344 5.22678 29.416 5.36012 29.464C5.49878 29.512 5.64545 29.536 5.80012 29.536C5.92278 29.536 6.03745 29.5227 6.14412 29.496C6.25612 29.4693 6.36012 29.4267 6.45612 29.368C6.55212 29.3093 6.64012 29.2373 6.72012 29.152L7.08812 29.504C6.98145 29.632 6.85878 29.7413 6.72012 29.832C6.58678 29.9173 6.44012 29.9787 6.28012 30.016C6.12545 30.0587 5.95745 30.08 5.77612 30.08ZM4.64812 27.776H6.51212C6.51212 27.616 6.49078 27.4747 6.44812 27.352C6.40545 27.2293 6.34678 27.1227 6.27212 27.032C6.19745 26.9413 6.10412 26.8747 5.99212 26.832C5.88545 26.784 5.76545 26.76 5.63212 26.76C5.50945 26.76 5.39478 26.7813 5.28812 26.824C5.18145 26.8613 5.08278 26.9227 4.99212 27.008C4.90678 27.0933 4.83212 27.2 4.76812 27.328C4.70945 27.4507 4.66945 27.6 4.64812 27.776Z" fill="url(#paint30_linear)"/>
<path d="M7.96012 30V29.456H8.88812V26.872H8.00812V26.32H9.57612V29.456H10.4241V30H7.96012ZM9.19212 25.608C9.06412 25.608 8.95478 25.5627 8.86412 25.472C8.77345 25.3813 8.72812 25.2747 8.72812 25.152C8.72812 25.0187 8.77078 24.9093 8.85612 24.824C8.94678 24.7387 9.05878 24.696 9.19212 24.696C9.31478 24.696 9.42145 24.7413 9.51212 24.832C9.60812 24.9227 9.65612 25.0293 9.65612 25.152C9.65612 25.2747 9.60812 25.3813 9.51212 25.472C9.42145 25.5627 9.31478 25.608 9.19212 25.608Z" fill="url(#paint31_linear)"/>
<path d="M12.7521 31.392C12.4961 31.392 12.2641 31.3707 12.0561 31.328C11.8481 31.2853 11.6721 31.224 11.5281 31.144C11.3841 31.064 11.2721 30.9653 11.1921 30.848C11.1175 30.7307 11.0801 30.5947 11.0801 30.44C11.0801 30.296 11.1121 30.1653 11.1761 30.048C11.2401 29.936 11.3228 29.84 11.4241 29.76C11.5308 29.68 11.6481 29.6187 11.7761 29.576L12.0721 29.728C11.9815 29.7867 11.9041 29.8453 11.8401 29.904C11.7815 29.9573 11.7361 30.0187 11.7041 30.088C11.6775 30.1627 11.6641 30.2507 11.6641 30.352C11.6641 30.432 11.6908 30.504 11.7441 30.568C11.7975 30.6373 11.8721 30.6933 11.9681 30.736C12.0641 30.7787 12.1815 30.8107 12.3201 30.832C12.4588 30.8587 12.6135 30.872 12.7841 30.872C13.0135 30.872 13.2028 30.848 13.3521 30.8C13.5015 30.7573 13.6135 30.6933 13.6881 30.608C13.7628 30.528 13.8001 30.4373 13.8001 30.336C13.8001 30.2293 13.7788 30.1413 13.7361 30.072C13.6935 30.008 13.6081 29.96 13.4801 29.928C13.3521 29.896 13.1655 29.88 12.9201 29.88C12.7388 29.88 12.5681 29.872 12.4081 29.856C12.2481 29.84 12.1015 29.8133 11.9681 29.776C11.8401 29.7387 11.7308 29.6933 11.6401 29.64C11.5495 29.5813 11.4775 29.5093 11.4241 29.424C11.3761 29.3387 11.3521 29.24 11.3521 29.128C11.3521 28.9787 11.3948 28.84 11.4801 28.712C11.5708 28.584 11.6855 28.4613 11.8241 28.344L12.1441 28.568C12.0908 28.6267 12.0455 28.6773 12.0081 28.72C11.9761 28.7573 11.9521 28.7947 11.9361 28.832C11.9201 28.8693 11.9121 28.912 11.9121 28.96C11.9121 29.04 11.9468 29.104 12.0161 29.152C12.0908 29.2 12.2135 29.2373 12.3841 29.264C12.5601 29.2853 12.7921 29.296 13.0801 29.296C13.3468 29.296 13.5655 29.32 13.7361 29.368C13.9068 29.416 14.0401 29.4853 14.1361 29.576C14.2321 29.6613 14.2988 29.7627 14.3361 29.88C14.3788 29.992 14.4001 30.1147 14.4001 30.248C14.4001 30.3973 14.3681 30.5387 14.3041 30.672C14.2455 30.8107 14.1495 30.9333 14.0161 31.04C13.8881 31.1467 13.7201 31.232 13.5121 31.296C13.3041 31.36 13.0508 31.392 12.7521 31.392ZM12.6161 28.752C12.3548 28.752 12.1255 28.696 11.9281 28.584C11.7308 28.472 11.5761 28.32 11.4641 28.128C11.3575 27.9307 11.3041 27.712 11.3041 27.472C11.3041 27.2373 11.3575 27.024 11.4641 26.832C11.5761 26.64 11.7308 26.4853 11.9281 26.368C12.1255 26.2507 12.3548 26.192 12.6161 26.192C12.8828 26.192 13.1121 26.2507 13.3041 26.368C13.5015 26.4853 13.6535 26.64 13.7601 26.832C13.8721 27.024 13.9281 27.2373 13.9281 27.472C13.9281 27.712 13.8721 27.9307 13.7601 28.128C13.6535 28.32 13.5015 28.472 13.3041 28.584C13.1121 28.696 12.8828 28.752 12.6161 28.752ZM12.6161 28.216C12.7601 28.216 12.8855 28.184 12.9921 28.12C13.1041 28.0507 13.1921 27.96 13.2561 27.848C13.3255 27.736 13.3601 27.6107 13.3601 27.472C13.3601 27.3333 13.3255 27.2107 13.2561 27.104C13.1921 26.992 13.1041 26.904 12.9921 26.84C12.8855 26.7707 12.7601 26.736 12.6161 26.736C12.4775 26.736 12.3521 26.7707 12.2401 26.84C12.1281 26.904 12.0401 26.992 11.9761 27.104C11.9121 27.216 11.8801 27.3387 11.8801 27.472C11.8801 27.6053 11.9121 27.7307 11.9761 27.848C12.0401 27.96 12.1281 28.0507 12.2401 28.12C12.3521 28.184 12.4775 28.216 12.6161 28.216ZM13.7121 26.944L13.4481 26.624C13.6028 26.48 13.7681 26.3733 13.9441 26.304C14.1201 26.2347 14.3201 26.208 14.5441 26.224L14.6241 26.752C14.4535 26.7307 14.2908 26.7333 14.1361 26.76C13.9815 26.7867 13.8401 26.848 13.7121 26.944Z" fill="url(#paint32_linear)"/>
<path d="M14.9361 24.664H15.6081H15.6801V24.728C15.6535 24.76 15.6348 24.7947 15.6241 24.832C15.6188 24.8693 15.6161 24.9333 15.6161 25.024V26.92C15.7068 26.776 15.8161 26.6533 15.9441 26.552C16.0721 26.4507 16.2055 26.3733 16.3441 26.32C16.4881 26.2613 16.6321 26.232 16.7761 26.232C17.0001 26.232 17.1974 26.2853 17.3681 26.392C17.5441 26.4933 17.6774 26.6587 17.7681 26.888C17.8641 27.112 17.9121 27.408 17.9121 27.776V30H17.2401V27.792C17.2401 27.5467 17.2134 27.352 17.1601 27.208C17.1068 27.064 17.0321 26.96 16.9361 26.896C16.8454 26.832 16.7388 26.8 16.6161 26.8C16.5201 26.8 16.4241 26.816 16.3281 26.848C16.2321 26.88 16.1415 26.928 16.0561 26.992C15.9708 27.0507 15.8934 27.1253 15.8241 27.216C15.7601 27.3013 15.7095 27.4 15.6721 27.512C15.6348 27.624 15.6161 27.7493 15.6161 27.888V30H14.9361V24.664Z" fill="url(#paint33_linear)"/>
<path d="M20.3921 30.064C20.1628 30.064 19.9708 30.0267 19.8161 29.952C19.6668 29.872 19.5468 29.752 19.4561 29.592C19.3708 29.4267 19.3121 29.216 19.2801 28.96C19.2535 28.704 19.2455 28.3947 19.2561 28.032L19.3521 25.408L20.0641 25.32L20.1441 25.312L20.1521 25.368C20.1255 25.4053 20.1014 25.4427 20.0801 25.48C20.0641 25.5173 20.0508 25.5813 20.0401 25.672L19.9681 26.648L19.9921 26.76L19.9361 28.056C19.9201 28.44 19.9308 28.7387 19.9681 28.952C20.0054 29.16 20.0695 29.304 20.1601 29.384C20.2561 29.464 20.3761 29.504 20.5201 29.504C20.6961 29.504 20.8508 29.4693 20.9841 29.4C21.1228 29.3307 21.2614 29.2453 21.4001 29.144L21.5761 29.664C21.3948 29.7973 21.2054 29.8987 21.0081 29.968C20.8161 30.032 20.6108 30.064 20.3921 30.064ZM18.5281 26.32H21.2401V26.872H18.5281V26.32Z" fill="url(#paint34_linear)"/>
<path d="M23.4961 27.584C23.3575 27.584 23.2374 27.5333 23.1361 27.432C23.0348 27.3307 22.9841 27.2133 22.9841 27.08C22.9841 26.9413 23.0348 26.8213 23.1361 26.72C23.2374 26.6187 23.3575 26.568 23.4961 26.568C23.6294 26.568 23.7495 26.6187 23.8561 26.72C23.9628 26.816 24.0161 26.936 24.0161 27.08C24.0161 27.2133 23.9655 27.3307 23.8641 27.432C23.7628 27.5333 23.6401 27.584 23.4961 27.584ZM23.4961 30.088C23.3521 30.088 23.2295 30.04 23.1281 29.944C23.0321 29.8427 22.9841 29.7227 22.9841 29.584C22.9841 29.4453 23.0348 29.3253 23.1361 29.224C23.2374 29.1227 23.3575 29.072 23.4961 29.072C23.6294 29.072 23.7495 29.1227 23.8561 29.224C23.9628 29.3253 24.0161 29.4453 24.0161 29.584C24.0161 29.7173 23.9655 29.8347 23.8641 29.936C23.7681 30.0373 23.6455 30.088 23.4961 30.088Z" fill="url(#paint35_linear)"/>
<path d="M30.5841 30V25.8L29.6081 26.104L29.4561 25.696L30.7681 25.008H31.2561V30H30.5841Z" fill="url(#paint36_linear)"/>
<path d="M34.0321 31.352L33.6881 31.056C33.8375 30.9173 33.9575 30.7707 34.0481 30.616C34.1388 30.4667 34.1841 30.3413 34.1841 30.24C34.1841 30.1867 34.1655 30.136 34.1281 30.088C34.0908 30.04 34.0428 29.9947 33.9841 29.952C33.9308 29.904 33.8855 29.8507 33.8481 29.792C33.8108 29.728 33.7921 29.6587 33.7921 29.584C33.7921 29.4347 33.8401 29.3147 33.9361 29.224C34.0375 29.128 34.1628 29.08 34.3121 29.08C34.4721 29.08 34.6081 29.1467 34.7201 29.28C34.8375 29.408 34.8961 29.5787 34.8961 29.792C34.8961 29.904 34.8775 30.0187 34.8401 30.136C34.8081 30.2587 34.7548 30.384 34.6801 30.512C34.6108 30.6453 34.5201 30.7813 34.4081 30.92C34.3015 31.0587 34.1761 31.2027 34.0321 31.352Z" fill="url(#paint37_linear)"/>
<path d="M38.0001 30.08C37.6801 30.08 37.4028 30.0213 37.1681 29.904C36.9335 29.7813 36.7521 29.6187 36.6241 29.416C36.4961 29.2133 36.4321 28.9867 36.4321 28.736C36.4321 28.5387 36.4721 28.352 36.5521 28.176C36.6375 28 36.7521 27.8427 36.8961 27.704C37.0455 27.56 37.2188 27.4427 37.4161 27.352C37.2721 27.2667 37.1441 27.1653 37.0321 27.048C36.9201 26.9307 36.8321 26.8 36.7681 26.656C36.7041 26.5067 36.6721 26.352 36.6721 26.192C36.6721 25.9627 36.7255 25.7547 36.8321 25.568C36.9388 25.3813 37.0935 25.232 37.2961 25.12C37.4988 25.0027 37.7468 24.944 38.0401 24.944C38.3495 24.944 38.6028 25 38.8001 25.112C39.0028 25.2187 39.1548 25.3627 39.2561 25.544C39.3575 25.7253 39.4081 25.9253 39.4081 26.144C39.4081 26.2667 39.3895 26.3867 39.3521 26.504C39.3148 26.6213 39.2641 26.7333 39.2001 26.84C39.1361 26.9413 39.0561 27.0347 38.9601 27.12C38.8694 27.2053 38.7654 27.28 38.6481 27.344C38.7921 27.4133 38.9201 27.496 39.0321 27.592C39.1441 27.688 39.2401 27.7947 39.3201 27.912C39.4055 28.0293 39.4695 28.1547 39.5121 28.288C39.5548 28.4213 39.5761 28.56 39.5761 28.704C39.5761 28.9707 39.5095 29.208 39.3761 29.416C39.2481 29.6187 39.0668 29.7813 38.8321 29.904C38.5975 30.0213 38.3201 30.08 38.0001 30.08ZM38.0161 29.496C38.2081 29.496 38.3681 29.4613 38.4961 29.392C38.6295 29.3173 38.7281 29.2187 38.7921 29.096C38.8615 28.9733 38.8961 28.8373 38.8961 28.688C38.8961 28.5707 38.8721 28.4587 38.8241 28.352C38.7761 28.24 38.7068 28.1387 38.6161 28.048C38.5308 27.9573 38.4241 27.8747 38.2961 27.8C38.1735 27.72 38.0348 27.6587 37.8801 27.616C37.7735 27.664 37.6721 27.7253 37.5761 27.8C37.4801 27.8693 37.3974 27.952 37.3281 28.048C37.2641 28.1387 37.2135 28.2347 37.1761 28.336C37.1388 28.4373 37.1201 28.5467 37.1201 28.664C37.1201 28.8187 37.1548 28.96 37.2241 29.088C37.2934 29.2107 37.3948 29.3093 37.5281 29.384C37.6668 29.4587 37.8294 29.496 38.0161 29.496ZM38.1441 27.12C38.2348 27.0667 38.3175 27.0053 38.3921 26.936C38.4668 26.8613 38.5308 26.784 38.5841 26.704C38.6375 26.624 38.6801 26.5387 38.7121 26.448C38.7441 26.3573 38.7601 26.2667 38.7601 26.176C38.7601 26.0587 38.7308 25.9493 38.6721 25.848C38.6188 25.7467 38.5361 25.664 38.4241 25.6C38.3175 25.536 38.1841 25.504 38.0241 25.504C37.8641 25.504 37.7308 25.536 37.6241 25.6C37.5228 25.6587 37.4454 25.7387 37.3921 25.84C37.3388 25.936 37.3121 26.0427 37.3121 26.16C37.3121 26.272 37.3335 26.376 37.3761 26.472C37.4188 26.5627 37.4775 26.6453 37.5521 26.72C37.6321 26.7947 37.7228 26.8667 37.8241 26.936C37.9255 27 38.0321 27.0613 38.1441 27.12Z" fill="url(#paint38_linear)"/>
<path d="M40.1441 29.48C40.4375 29.1813 40.7041 28.9147 40.9441 28.68C41.1841 28.44 41.3974 28.2213 41.5841 28.024C41.7708 27.8213 41.9281 27.632 42.0561 27.456C42.1841 27.28 42.2801 27.1067 42.3441 26.936C42.4134 26.76 42.4481 26.5787 42.4481 26.392C42.4481 26.2373 42.4268 26.1067 42.3841 26C42.3468 25.8933 42.2908 25.808 42.2161 25.744C42.1468 25.6747 42.0615 25.624 41.9601 25.592C41.8641 25.56 41.7601 25.544 41.6481 25.544C41.5255 25.544 41.4081 25.5627 41.2961 25.6C41.1841 25.632 41.0774 25.6827 40.9761 25.752C40.8748 25.816 40.7815 25.9013 40.6961 26.008C40.6481 26.0827 40.6188 26.1413 40.6081 26.184C40.5975 26.2213 40.5948 26.2613 40.6001 26.304L40.5601 26.344L40.5041 26.304L40.0241 25.936C40.1361 25.728 40.2721 25.552 40.4321 25.408C40.5975 25.264 40.7814 25.1547 40.9841 25.08C41.1921 25.0053 41.4108 24.968 41.6401 24.968C41.9281 24.968 42.1814 25.0267 42.4001 25.144C42.6188 25.2613 42.7921 25.4267 42.9201 25.64C43.0481 25.8533 43.1121 26.1067 43.1121 26.4C43.1121 26.6133 43.0748 26.8213 43.0001 27.024C42.9308 27.2213 42.8295 27.416 42.6961 27.608C42.5681 27.7947 42.4161 27.984 42.2401 28.176C42.0641 28.368 41.8721 28.568 41.6641 28.776C41.4561 28.9787 41.2401 29.1973 41.0161 29.432H42.7761C42.8668 29.432 42.9308 29.4267 42.9681 29.416C43.0055 29.4053 43.0401 29.384 43.0721 29.352H43.1361V29.432V30H40.1441V29.48Z" fill="url(#paint39_linear)"/>
<path d="M47.0801 30V26.32H47.6881V26.656C47.7468 26.5653 47.8135 26.4907 47.8881 26.432C47.9628 26.368 48.0428 26.32 48.1281 26.288C48.2188 26.2507 48.3094 26.232 48.4001 26.232C48.5014 26.232 48.5948 26.2533 48.6801 26.296C48.7708 26.3333 48.8455 26.392 48.9041 26.472C48.9681 26.5467 49.0135 26.6373 49.0401 26.744C49.0935 26.6373 49.1601 26.5467 49.2401 26.472C49.3201 26.3973 49.4135 26.3387 49.5201 26.296C49.6268 26.2533 49.7388 26.232 49.8561 26.232C49.9841 26.232 50.0934 26.256 50.1841 26.304C50.2748 26.352 50.3495 26.4187 50.4081 26.504C50.4721 26.5893 50.5174 26.6933 50.5441 26.816C50.5708 26.9387 50.5815 27.072 50.5761 27.216V30H49.9601V27.424C49.9601 27.2213 49.9468 27.072 49.9201 26.976C49.8988 26.8747 49.8641 26.8107 49.8161 26.784C49.7734 26.752 49.7201 26.736 49.6561 26.736C49.5654 26.736 49.4801 26.7787 49.4001 26.864C49.3201 26.944 49.2535 27.0507 49.2001 27.184C49.1521 27.312 49.1281 27.448 49.1281 27.592V30H48.5281V27.464C48.5281 27.176 48.5014 26.984 48.4481 26.888C48.4001 26.792 48.3095 26.744 48.1761 26.744C48.1175 26.744 48.0588 26.7627 48.0001 26.8C47.9468 26.8373 47.8961 26.8907 47.8481 26.96C47.8055 27.024 47.7681 27.1093 47.7361 27.216C47.7094 27.3173 47.6961 27.432 47.6961 27.56V30H47.0801Z" fill="url(#paint40_linear)"/>
<defs>
<linearGradient id="paint0_linear" x1="100" y1="-1" x2="100" y2="232" gradientUnits="userSpaceOnUse">
<stop stop-color="#B0B0B0"/>
<stop offset="1" stop-color="#B0B0B0" stop-opacity="0"/>
</linearGradient>
<linearGradient id="paint1_linear" x1="100" y1="-1" x2="100" y2="232" gradientUnits="userSpaceOnUse">
<stop stop-color="#B0B0B0"/>
<stop offset="1" stop-color="#B0B0B0" stop-opacity="0"/>
</linearGradient>
<linearGradient id="paint2_linear" x1="100" y1="-1" x2="100" y2="232" gradientUnits="userSpaceOnUse">
<stop stop-color="#B0B0B0"/>
<stop offset="1" stop-color="#B0B0B0" stop-opacity="0"/>
</linearGradient>
<linearGradient id="paint3_linear" x1="100" y1="-1" x2="100" y2="232" gradientUnits="userSpaceOnUse">
<stop stop-color="#B0B0B0"/>
<stop offset="1" stop-color="#B0B0B0" stop-opacity="0"/>
</linearGradient>
<linearGradient id="paint4_linear" x1="100" y1="-1" x2="100" y2="232" gradientUnits="userSpaceOnUse">
<stop stop-color="#B0B0B0"/>
<stop offset="1" stop-color="#B0B0B0" stop-opacity="0"/>
</linearGradient>
<linearGradient id="paint5_linear" x1="100" y1="-1" x2="100" y2="232" gradientUnits="userSpaceOnUse">
<stop stop-color="#B0B0B0"/>
<stop offset="1" stop-color="#B0B0B0" stop-opacity="0"/>
</linearGradient>
<linearGradient id="paint6_linear" x1="100" y1="-1" x2="100" y2="232" gradientUnits="userSpaceOnUse">
<stop stop-color="#B0B0B0"/>
<stop offset="1" stop-color="#B0B0B0" stop-opacity="0"/>
</linearGradient>
<linearGradient id="paint7_linear" x1="100" y1="-1" x2="100" y2="232" gradientUnits="userSpaceOnUse">
<stop stop-color="#B0B0B0"/>
<stop offset="1" stop-color="#B0B0B0" stop-opacity="0"/>
</linearGradient>
<linearGradient id="paint8_linear" x1="100" y1="-1" x2="100" y2="232" gradientUnits="userSpaceOnUse">
<stop stop-color="#B0B0B0"/>
<stop offset="1" stop-color="#B0B0B0" stop-opacity="0"/>
</linearGradient>
<linearGradient id="paint9_linear" x1="100" y1="-1" x2="100" y2="232" gradientUnits="userSpaceOnUse">
<stop stop-color="#B0B0B0"/>
<stop offset="1" stop-color="#B0B0B0" stop-opacity="0"/>
</linearGradient>
<linearGradient id="paint10_linear" x1="100" y1="-1" x2="100" y2="232" gradientUnits="userSpaceOnUse">
<stop stop-color="#B0B0B0"/>
<stop offset="1" stop-color="#B0B0B0" stop-opacity="0"/>
</linearGradient>
<linearGradient id="paint11_linear" x1="100" y1="-1" x2="100" y2="232" gradientUnits="userSpaceOnUse">
<stop stop-color="#B0B0B0"/>
<stop offset="1" stop-color="#B0B0B0" stop-opacity="0"/>
</linearGradient>
<linearGradient id="paint12_linear" x1="100" y1="-1" x2="100" y2="232" gradientUnits="userSpaceOnUse">
<stop stop-color="#B0B0B0"/>
<stop offset="1" stop-color="#B0B0B0" stop-opacity="0"/>
</linearGradient>
<linearGradient id="paint13_linear" x1="100" y1="-1" x2="100" y2="232" gradientUnits="userSpaceOnUse">
<stop stop-color="#B0B0B0"/>
<stop offset="1" stop-color="#B0B0B0" stop-opacity="0"/>
</linearGradient>
<linearGradient id="paint14_linear" x1="100" y1="-1" x2="100" y2="232" gradientUnits="userSpaceOnUse">
<stop stop-color="#B0B0B0"/>
<stop offset="1" stop-color="#B0B0B0" stop-opacity="0"/>
</linearGradient>
<linearGradient id="paint15_linear" x1="100" y1="-1" x2="100" y2="232" gradientUnits="userSpaceOnUse">
<stop stop-color="#B0B0B0"/>
<stop offset="1" stop-color="#B0B0B0" stop-opacity="0"/>
</linearGradient>
<linearGradient id="paint16_linear" x1="100" y1="-1" x2="100" y2="232" gradientUnits="userSpaceOnUse">
<stop stop-color="#B0B0B0"/>
<stop offset="1" stop-color="#B0B0B0" stop-opacity="0"/>
</linearGradient>
<linearGradient id="paint17_linear" x1="100" y1="-1" x2="100" y2="232" gradientUnits="userSpaceOnUse">
<stop stop-color="#B0B0B0"/>
<stop offset="1" stop-color="#B0B0B0" stop-opacity="0"/>
</linearGradient>
<linearGradient id="paint18_linear" x1="100" y1="-1" x2="100" y2="232" gradientUnits="userSpaceOnUse">
<stop stop-color="#B0B0B0"/>
<stop offset="1" stop-color="#B0B0B0" stop-opacity="0"/>
</linearGradient>
<linearGradient id="paint19_linear" x1="100" y1="-1" x2="100" y2="232" gradientUnits="userSpaceOnUse">
<stop stop-color="#B0B0B0"/>
<stop offset="1" stop-color="#B0B0B0" stop-opacity="0"/>
</linearGradient>
<linearGradient id="paint20_linear" x1="100" y1="-1" x2="100" y2="232" gradientUnits="userSpaceOnUse">
<stop stop-color="#B0B0B0"/>
<stop offset="1" stop-color="#B0B0B0" stop-opacity="0"/>
</linearGradient>
<linearGradient id="paint21_linear" x1="100" y1="-1" x2="100" y2="232" gradientUnits="userSpaceOnUse">
<stop stop-color="#B0B0B0"/>
<stop offset="1" stop-color="#B0B0B0" stop-opacity="0"/>
</linearGradient>
<linearGradient id="paint22_linear" x1="100" y1="-1" x2="100" y2="232" gradientUnits="userSpaceOnUse">
<stop stop-color="#B0B0B0"/>
<stop offset="1" stop-color="#B0B0B0" stop-opacity="0"/>
</linearGradient>
<linearGradient id="paint23_linear" x1="100" y1="-1" x2="100" y2="232" gradientUnits="userSpaceOnUse">
<stop stop-color="#B0B0B0"/>
<stop offset="1" stop-color="#B0B0B0" stop-opacity="0"/>
</linearGradient>
<linearGradient id="paint24_linear" x1="100" y1="-1" x2="100" y2="232" gradientUnits="userSpaceOnUse">
<stop stop-color="#B0B0B0"/>
<stop offset="1" stop-color="#B0B0B0" stop-opacity="0"/>
</linearGradient>
<linearGradient id="paint25_linear" x1="100" y1="-1" x2="100" y2="232" gradientUnits="userSpaceOnUse">
<stop stop-color="#B0B0B0"/>
<stop offset="1" stop-color="#B0B0B0" stop-opacity="0"/>
</linearGradient>
<linearGradient id="paint26_linear" x1="100" y1="-1" x2="100" y2="232" gradientUnits="userSpaceOnUse">
<stop stop-color="#B0B0B0"/>
<stop offset="1" stop-color="#B0B0B0" stop-opacity="0"/>
</linearGradient>
<linearGradient id="paint27_linear" x1="100" y1="-1" x2="100" y2="232" gradientUnits="userSpaceOnUse">
<stop stop-color="#B0B0B0"/>
<stop offset="1" stop-color="#B0B0B0" stop-opacity="0"/>
</linearGradient>
<linearGradient id="paint28_linear" x1="100" y1="-1" x2="100" y2="232" gradientUnits="userSpaceOnUse">
<stop stop-color="#B0B0B0"/>
<stop offset="1" stop-color="#B0B0B0" stop-opacity="0"/>
</linearGradient>
<linearGradient id="paint29_linear" x1="100" y1="-1" x2="100" y2="232" gradientUnits="userSpaceOnUse">
<stop stop-color="#B0B0B0"/>
<stop offset="1" stop-color="#B0B0B0" stop-opacity="0"/>
</linearGradient>
<linearGradient id="paint30_linear" x1="100" y1="-1" x2="100" y2="232" gradientUnits="userSpaceOnUse">
<stop stop-color="#B0B0B0"/>
<stop offset="1" stop-color="#B0B0B0" stop-opacity="0"/>
</linearGradient>
<linearGradient id="paint31_linear" x1="100" y1="-1" x2="100" y2="232" gradientUnits="userSpaceOnUse">
<stop stop-color="#B0B0B0"/>
<stop offset="1" stop-color="#B0B0B0" stop-opacity="0"/>
</linearGradient>
<linearGradient id="paint32_linear" x1="100" y1="-1" x2="100" y2="232" gradientUnits="userSpaceOnUse">
<stop stop-color="#B0B0B0"/>
<stop offset="1" stop-color="#B0B0B0" stop-opacity="0"/>
</linearGradient>
<linearGradient id="paint33_linear" x1="100" y1="-1" x2="100" y2="232" gradientUnits="userSpaceOnUse">
<stop stop-color="#B0B0B0"/>
<stop offset="1" stop-color="#B0B0B0" stop-opacity="0"/>
</linearGradient>
<linearGradient id="paint34_linear" x1="100" y1="-1" x2="100" y2="232" gradientUnits="userSpaceOnUse">
<stop stop-color="#B0B0B0"/>
<stop offset="1" stop-color="#B0B0B0" stop-opacity="0"/>
</linearGradient>
<linearGradient id="paint35_linear" x1="100" y1="-1" x2="100" y2="232" gradientUnits="userSpaceOnUse">
<stop stop-color="#B0B0B0"/>
<stop offset="1" stop-color="#B0B0B0" stop-opacity="0"/>
</linearGradient>
<linearGradient id="paint36_linear" x1="100" y1="-1" x2="100" y2="232" gradientUnits="userSpaceOnUse">
<stop stop-color="#B0B0B0"/>
<stop offset="1" stop-color="#B0B0B0" stop-opacity="0"/>
</linearGradient>
<linearGradient id="paint37_linear" x1="100" y1="-1" x2="100" y2="232" gradientUnits="userSpaceOnUse">
<stop stop-color="#B0B0B0"/>
<stop offset="1" stop-color="#B0B0B0" stop-opacity="0"/>
</linearGradient>
<linearGradient id="paint38_linear" x1="100" y1="-1" x2="100" y2="232" gradientUnits="userSpaceOnUse">
<stop stop-color="#B0B0B0"/>
<stop offset="1" stop-color="#B0B0B0" stop-opacity="0"/>
</linearGradient>
<linearGradient id="paint39_linear" x1="100" y1="-1" x2="100" y2="232" gradientUnits="userSpaceOnUse">
<stop stop-color="#B0B0B0"/>
<stop offset="1" stop-color="#B0B0B0" stop-opacity="0"/>
</linearGradient>
<linearGradient id="paint40_linear" x1="100" y1="-1" x2="100" y2="232" gradientUnits="userSpaceOnUse">
<stop stop-color="#B0B0B0"/>
<stop offset="1" stop-color="#B0B0B0" stop-opacity="0"/>
</linearGradient>
</defs>
</svg>
