<svg width="207" height="190" viewBox="0 0 207 190" fill="none" xmlns="http://www.w3.org/2000/svg">
<path d="M206.904 152.244C206.459 153.17 206.14 154.175 205.567 155.006C204.692 156.267 203.387 157.001 201.89 157.368C201.62 157.432 201.333 157.496 201.063 157.56C201.365 164.249 196.128 167.41 192.18 167.347C187.659 167.283 183.139 163.563 183.473 157.576C182.979 157.544 182.486 157.496 181.993 157.496C178.936 157.496 175.896 157.576 172.84 157.512C170.277 157.464 168.287 156.267 167.125 153.968C165.995 151.733 166.234 149.514 167.65 147.47C168.94 145.602 170.818 144.788 173.062 144.788C175.1 144.788 177.153 144.788 179.191 144.788C179.525 144.788 179.875 144.788 180.273 144.788C180.273 139.056 180.273 133.405 180.273 127.625C180.082 127.801 179.939 127.929 179.828 128.072C179.239 128.855 178.65 129.653 178.093 130.451C175.673 133.9 172.378 136.135 168.351 137.204C166.122 137.795 163.846 138.21 161.585 138.641C160.439 138.865 159.755 138.306 159.548 137.172C159.421 136.454 160.169 135.624 161.076 135.432C162.811 135.097 164.562 134.81 166.281 134.41C169.942 133.532 173.094 131.84 175.355 128.679C176.564 126.971 177.822 125.262 179.239 123.746C180.082 122.852 180.369 122.006 180.353 120.824C180.305 113.273 180.321 105.705 180.321 98.1537C180.321 97.8663 180.321 97.5789 180.321 97.2117C178.65 97.2117 177.026 97.2117 175.355 97.2117C174.065 101.682 171.168 104.364 166.409 104.252C161.936 104.141 159.245 101.474 158.02 97.1958C141.083 97.1958 124.146 97.1958 107.161 97.1958C105.776 101.826 102.784 104.476 97.8172 104.252C93.8854 104.077 91.2907 101.65 89.7944 97.1479C89.4761 97.1479 89.11 97.1479 88.7439 97.1479C88.4096 97.1479 88.0594 97.1479 87.6773 97.1479C87.1043 99.5746 85.8945 101.506 83.841 102.863C82.3129 103.869 80.6256 104.364 78.795 104.316C75.3726 104.22 71.584 102.033 70.3902 97.2117C69.7057 97.2117 69.0053 97.2117 68.289 97.2117C66.9996 101.634 64.1821 104.332 59.4703 104.252C54.9177 104.188 52.1957 101.506 50.9541 97.1798C50.7949 97.1638 50.6357 97.1479 50.4925 97.1479C49.9672 97.1479 49.4419 97.1479 48.9006 97.1479C47.5158 101.778 44.5709 104.396 39.6681 104.268C35.7841 104.173 33.0461 101.682 31.518 97.1958C29.9262 97.1958 28.3184 97.1958 26.6311 97.1958C26.6311 105.083 26.6311 112.953 26.6311 120.856C27.1723 120.968 27.7295 121.048 28.2548 121.191C30.1331 121.718 31.5339 122.948 32.6482 124.448C33.7465 125.933 34.7175 127.545 35.7681 129.078C36.7073 130.435 37.6306 131.792 38.6653 133.069C39.7954 134.458 41.3077 135.225 43.1064 135.48C44.9211 135.736 46.7199 136.055 48.5186 136.422C52.0206 137.125 54.7904 138.961 56.7165 141.978C57.6397 143.415 58.5471 144.852 59.2793 146.384C61.3009 150.519 64.5164 153.297 68.7188 154.958C74.1469 157.081 79.6227 159.125 85.0827 161.152C87.2635 161.966 89.492 162.669 91.8001 163.451C92.9303 160.434 94.936 158.342 98.056 157.512C100.046 156.985 102.004 157.177 103.882 158.023C107.734 159.763 109.533 163.611 108.705 168.416C108.928 168.496 109.167 168.576 109.422 168.64C111.109 169.087 112.812 169.518 114.499 169.965C114.706 170.013 114.913 170.061 115.104 170.14C115.853 170.46 116.266 171.258 116.091 172.024C115.9 172.807 115.184 173.333 114.372 173.254C114.006 173.222 113.64 173.11 113.29 173.014C111.491 172.551 109.692 172.104 107.909 171.593C107.384 171.45 107.066 171.529 106.668 171.945C103.341 175.505 98.056 175.76 94.4266 172.551C92.9144 171.226 91.9593 169.55 91.6569 167.57C91.5614 166.916 91.2589 166.644 90.6699 166.453C83.4908 164.106 76.3595 161.583 69.3555 158.741C67.8274 158.119 66.347 157.416 64.8825 156.666C61.0462 154.718 58.3401 151.669 56.414 147.853C55.9524 146.959 55.4112 146.097 54.9496 145.203C53.119 141.659 50.2378 139.711 46.2901 139.232C45.0007 139.072 43.7272 138.801 42.4379 138.625C39.8114 138.258 37.6783 136.981 36.0388 134.953C34.8927 133.532 33.8898 131.984 32.8551 130.483C31.9637 129.19 31.1678 127.833 30.2286 126.588C29.7192 125.901 29.0188 125.326 28.3662 124.768C27.9046 124.384 27.3156 124.193 26.5674 124.177C26.5674 131.042 26.5674 137.827 26.5674 144.692C26.9654 144.708 27.2678 144.74 27.5862 144.74C29.7829 144.74 31.9955 144.708 34.1922 144.756C38.522 144.852 41.4669 149.019 40.1297 153.122C39.3179 155.644 36.771 157.448 33.9694 157.464C31.4543 157.48 28.9233 157.464 26.4083 157.464C19.8341 157.464 13.2439 157.48 6.66972 157.448C3.80444 157.432 1.70325 156.123 0.477545 153.505C0.270609 153.074 0.159182 152.611 0 152.164C0 151.477 0 150.775 0 150.088C0.0477545 149.961 0.127345 149.849 0.143264 149.721C0.764073 146.783 3.48608 144.612 6.73339 144.708C8.80275 144.772 10.8721 144.724 12.9415 144.708C13.228 144.708 13.4986 144.676 13.8647 144.644C13.8647 143.622 13.8488 142.68 13.8647 141.738C13.8807 140.86 13.9921 139.998 13.9921 139.12C13.9762 137.779 13.8647 136.438 13.8647 135.097C13.8647 105.53 13.8647 75.9781 13.8647 46.4107C13.8647 36.5761 13.8647 26.7416 13.8647 16.9071C13.8647 16.3323 14.008 15.7416 13.9921 15.1669C13.9762 13.8258 13.8807 12.4847 13.8647 11.1437C13.8329 9.57908 13.8488 7.99853 13.8647 6.43395C13.8966 3.41654 15.8227 0.957908 18.7357 0.207547C18.9586 0.143686 19.1814 0.0638606 19.4043 0C19.9932 0 20.5663 0 21.1553 0C21.3463 0.0638606 21.5373 0.143686 21.7442 0.207547C24.9438 1.13352 26.4401 3.67198 26.5197 6.94484C26.5515 8.04643 26.5993 9.14802 26.6311 10.3454C27.9842 10.3454 29.2735 10.3454 30.5788 10.3454C31.5498 10.3454 31.5498 10.3454 31.8523 9.40347C32.9984 5.69955 36.4367 3.1611 40.2889 3.19303C44.1889 3.22496 47.6272 5.84324 48.646 9.61101C48.8051 10.1858 49.028 10.4412 49.601 10.3614C49.7602 10.3454 49.9194 10.3614 50.0786 10.3614C50.9859 10.3614 50.9859 10.3614 51.2565 9.48329C52.4026 5.74745 55.7932 3.20899 59.6454 3.20899C63.5454 3.20899 66.9678 5.77938 68.0502 9.56312C68.2412 10.2017 68.48 10.4731 69.1327 10.3773C69.2918 10.3454 69.451 10.3454 69.6102 10.3773C70.2788 10.5051 70.5016 10.1858 70.6926 9.56312C71.7591 5.81131 75.1338 3.25689 79.0178 3.22496C82.87 3.19303 86.2924 5.69955 87.4545 9.4354C87.55 9.73873 87.6455 10.0261 87.741 10.3454C88.4732 10.3454 89.1418 10.3454 89.8581 10.3454C89.9377 10.09 90.0173 9.86646 90.081 9.64294C91.1793 5.82728 94.5699 3.25689 98.5335 3.24092C102.37 3.22496 105.792 5.77938 106.906 9.53119C107.209 10.537 107.161 10.3933 108.1 10.3933C111.045 10.4093 113.974 10.3933 116.919 10.3933C130.402 10.3933 143.868 10.3933 157.351 10.3933C157.908 10.3933 158.179 10.2496 158.338 9.65891C159.564 4.88533 164.833 2.07547 169.497 3.68795C172.41 4.69375 174.32 6.70536 175.18 9.67487C175.339 10.2496 175.593 10.4252 176.167 10.4093C177.233 10.3614 178.284 10.3933 179.35 10.3933C179.684 10.3933 180.019 10.3933 180.401 10.3933C180.401 9.05223 180.353 7.85485 180.417 6.67343C180.544 3.81567 181.833 1.70827 184.476 0.52685C184.953 0.319303 185.479 0.207547 185.988 0.0478954C186.513 0.0478954 187.055 0.0478954 187.58 0.0478954C187.675 0.0957908 187.771 0.159651 187.866 0.175617C190.907 0.702466 193.183 3.33671 193.167 6.9608C193.119 18.3759 193.151 29.7909 193.151 41.206C193.151 75.4193 193.151 109.633 193.151 143.862C193.151 144.149 193.151 144.421 193.151 144.772C193.565 144.772 193.852 144.772 194.138 144.772C196.335 144.772 198.547 144.74 200.744 144.788C203.657 144.836 206.045 146.72 206.809 149.529C206.857 149.737 206.936 149.929 207 150.136C206.904 150.855 206.904 151.557 206.904 152.244ZM48.8847 38.2684C49.2349 38.2684 49.601 38.2684 49.9672 38.2684C50.9382 38.2684 50.9382 38.2684 51.2406 37.3265C52.4504 33.4629 56.2071 30.8287 60.0752 31.1161C63.9911 31.4194 66.9996 33.878 68.098 37.6777C68.1616 37.8693 68.2412 38.0609 68.3208 38.2844C68.7029 38.2844 69.0531 38.2844 69.3873 38.2844C69.7216 38.2844 70.0559 38.2844 70.3902 38.2844C70.5016 37.9012 70.5812 37.6298 70.6608 37.3584C71.8387 33.6545 75.0701 31.2118 78.9223 31.1161C82.5517 31.0203 85.9741 33.3991 87.2635 36.9114C87.4226 37.3584 87.4704 37.9811 87.7888 38.1886C88.1549 38.4281 88.7598 38.2844 89.2691 38.2844C89.4442 38.2844 89.6353 38.2525 89.7944 38.2365C91.4977 33.5428 94.1879 31.164 98.1674 31.148C102.943 31.148 105.824 33.7503 107.129 38.2205C107.862 38.2205 108.562 38.2205 109.246 38.2205C110.361 33.5587 114.022 31.2597 117.556 31.132C119.355 31.0682 121.026 31.5152 122.554 32.4891C124.671 33.8461 125.945 35.8098 126.518 38.2365C144.457 38.2365 162.35 38.2365 180.257 38.2365C180.257 30.0464 180.257 21.9361 180.257 13.7619C178.57 13.7619 176.946 13.7619 175.339 13.7619C173.954 18.2003 171.168 20.7387 167.205 20.8505C162.318 20.9782 159.341 18.3918 158.02 13.73C141.035 13.73 124.082 13.73 107.098 13.73C106.62 15.8215 105.665 17.5297 104.089 18.8548C102.481 20.1959 100.619 20.8824 98.5176 20.8984C96.7507 20.9143 95.1111 20.4354 93.6307 19.4455C91.5932 18.0885 90.3834 16.1408 89.8104 13.7619C89.0781 13.7619 88.3936 13.7619 87.6614 13.7619C87.1839 15.8374 86.1969 17.5936 84.5414 18.9347C82.886 20.2757 80.9917 20.9303 78.8746 20.8984C74.8154 20.8345 72.0934 18.5515 70.3584 13.7779C69.6739 13.7779 68.9735 13.7779 68.2571 13.7779C68.1457 14.1291 68.0661 14.4325 67.9547 14.7358C66.3788 19.685 61.0144 22.2235 56.2389 20.2278C53.6283 19.1422 51.9569 17.1625 51.1451 14.4644C51.0655 14.2249 50.9541 13.8258 50.8108 13.8098C50.2059 13.73 49.5851 13.6821 48.9962 13.8098C48.7892 13.8577 48.646 14.4006 48.5345 14.7358C47.3725 18.4078 44.0615 20.8824 40.2412 20.9303C36.4685 20.9622 33.0939 18.5515 31.8841 14.9434C31.7568 14.5762 31.6453 14.193 31.518 13.8098C29.8625 13.8098 28.2388 13.8098 26.5993 13.8098C26.5993 22 26.5993 30.1262 26.5993 38.2684C28.2866 38.2684 29.9262 38.2684 31.5339 38.2684C32.6959 33.5108 36.389 31.3076 39.8432 31.1799C43.2815 30.9883 47.5635 32.984 48.8847 38.2684ZM107.177 93.9229C107.511 93.9229 107.83 93.9229 108.132 93.9229C110.361 93.9229 112.589 93.9229 114.802 93.9229C128.492 93.9229 142.181 93.9229 155.871 93.9229C156.38 93.9229 156.874 93.9069 157.383 93.9389C157.845 93.9708 158.083 93.8271 158.227 93.3322C158.402 92.6776 158.656 92.0071 158.975 91.4004C160.646 88.2553 164.021 86.4672 167.587 86.8025C171.073 87.1377 174.049 89.6123 175.1 93.0448C175.18 93.3162 175.259 93.5876 175.339 93.8431C177.026 93.8431 178.65 93.8431 180.273 93.8431C180.273 85.6689 180.273 77.5586 180.273 69.4005C178.586 69.4005 176.962 69.4005 175.355 69.4005C174.177 73.5514 171.598 76.1856 167.284 76.4251C162.365 76.6965 159.389 73.9665 158.02 69.4005C141.019 69.4005 124.082 69.4005 107.161 69.4005C105.378 74.2219 102.561 76.5049 98.438 76.5049C94.4107 76.5049 91.5773 74.174 89.8104 69.4005C89.1418 69.4005 88.4732 69.4005 87.7569 69.4005C86.4357 73.8547 83.5864 76.5528 78.8427 76.457C74.3538 76.3613 71.6318 73.6951 70.4061 69.4164C69.6898 69.4164 68.9894 69.4164 68.2731 69.4164C68.1776 69.7198 68.1139 69.9752 68.0343 70.2147C66.9359 73.8547 63.7045 76.3613 59.8842 76.5049C56.2389 76.6486 52.7688 74.3177 51.4476 70.8533C51.2565 70.3743 51.1929 69.6719 50.8427 69.4643C50.4288 69.2089 49.7602 69.3845 49.2031 69.3685C49.1076 69.3685 48.9962 69.4005 48.837 69.4164C48.3435 71.428 47.4043 73.1842 45.7807 74.5093C44.1411 75.8504 42.2468 76.6007 40.1297 76.5049C35.5453 76.2974 32.8074 73.743 31.5498 69.4483C29.9103 69.4483 28.2866 69.4483 26.6311 69.4483C26.6311 77.6225 26.6311 85.7328 26.6311 93.891C28.3025 93.891 29.9421 93.891 31.5498 93.891C32.7278 89.756 35.2906 87.0898 39.6203 86.8503C44.555 86.5789 47.5158 89.293 48.9166 93.9389C49.2827 93.9389 49.6647 93.9389 50.0308 93.9389C50.9541 93.9389 50.9541 93.9389 51.2406 93.0289C52.9916 87.4251 59.3907 85.0303 64.3254 88.1595C66.2196 89.3569 67.4612 91.0651 68.098 93.2204C68.1776 93.5078 68.1457 93.9069 68.6074 93.9069C69.2122 93.9069 69.8171 93.9069 70.4061 93.9069C70.5494 93.4599 70.6608 93.0768 70.7881 92.7095C72.7461 86.994 79.7501 84.9345 84.4778 88.6863C86.0059 89.8997 87.0088 91.4483 87.5181 93.3322C87.5977 93.6036 87.5977 93.9389 88.0116 93.9389C88.6165 93.9389 89.2214 93.9389 89.7785 93.9389C91.3544 89.277 94.2038 86.8823 98.1833 86.7865C102.418 86.6588 105.219 88.862 107.177 93.9229ZM180.289 41.5253C179.955 41.5253 179.7 41.5253 179.446 41.5253C162.158 41.5253 144.855 41.5253 127.568 41.5253C126.55 41.5253 126.55 41.5253 126.263 42.4673C125.133 46.1233 121.854 48.5979 118.065 48.6617C114.261 48.7256 110.886 46.3947 109.629 42.7866C109.183 41.5253 109.183 41.5573 107.862 41.5094C107.289 41.4934 107.05 41.6371 106.891 42.2278C105.935 45.6922 102.943 48.2307 99.5045 48.5979C95.8274 48.981 92.4846 47.2568 90.7495 43.9999C90.3357 43.2336 90.081 42.3874 89.7308 41.5094C89.3647 41.5094 88.9349 41.5573 88.521 41.4934C87.8683 41.4136 87.6137 41.669 87.4386 42.3076C86.2924 46.1712 82.9019 48.6617 78.9542 48.6617C75.102 48.6617 71.7114 45.9477 70.5971 42.2278C70.5334 42.0043 70.4698 41.7808 70.3902 41.5094C70.0718 41.5094 69.7853 41.5094 69.4828 41.5094C68.289 41.5094 68.289 41.5094 67.9229 42.6269C65.8535 48.8533 57.9899 50.7053 53.3896 46.0435C52.2753 44.9259 51.5431 43.5848 51.1451 42.0681C51.0655 41.7648 51.0018 41.5094 50.6039 41.5094C50.0308 41.5253 49.4419 41.5094 48.8688 41.5094C48.7574 41.8766 48.6619 42.1799 48.5664 42.4832C46.6562 48.6138 39.0473 50.6734 34.3196 46.3468C33.0461 45.1813 32.1866 43.7764 31.7568 42.116C31.6294 41.6371 31.4225 41.4774 30.929 41.4934C30.1013 41.5253 29.2894 41.5094 28.4617 41.5094C27.8568 41.5094 27.2678 41.5094 26.647 41.5094C26.647 49.7474 26.647 57.8736 26.647 66.0637C27.5385 66.0637 28.3503 66.0637 29.178 66.0637C29.9898 66.0637 30.8017 66.0637 31.5817 66.0637C32.7119 61.386 36.2775 59.2147 39.4612 58.9593C41.2599 58.8156 42.9472 59.1508 44.5231 60.0449C46.8631 61.386 48.248 63.4455 48.9006 66.0797C49.3782 66.0797 49.808 66.0478 50.2219 66.0957C50.8267 66.1595 51.0814 65.936 51.2565 65.3293C52.7051 60.444 57.194 58.177 61.7944 59.2147C64.3254 59.7894 66.2196 61.3381 67.4135 63.669C67.7955 64.4193 68.0502 65.2336 68.4004 66.0797C68.7665 66.0797 69.1486 66.0478 69.5465 66.0797C70.1833 66.1436 70.4857 65.9839 70.7085 65.2655C71.8069 61.5296 75.0065 59.071 78.795 58.9273C82.5676 58.7836 85.9422 61.0507 87.3271 64.6748C87.5022 65.1218 87.6296 65.5688 87.7728 66.0158C88.521 66.0158 89.2373 66.0158 89.9218 66.0158C91.0361 61.3381 94.7291 59.1029 97.849 58.9752C102.831 58.7836 105.824 61.386 107.241 66.0318C124.194 66.0318 141.146 66.0318 158.099 66.0318C159.357 61.7053 162.063 59.0391 166.632 58.9752C171.343 58.9114 174.145 61.6254 175.466 66.0797C176.294 66.0797 177.106 66.0797 177.933 66.0797C178.745 66.0797 179.541 66.0797 180.369 66.0797C180.289 57.8417 180.289 49.7633 180.289 41.5253ZM23.2405 144.756C23.2724 144.58 23.3201 144.469 23.3361 144.341C23.3679 141.18 23.3997 138.019 23.4156 134.858C23.4156 132.654 23.352 130.451 23.352 128.248C23.352 88.7662 23.352 49.2844 23.352 9.80259C23.352 9.03627 23.4952 8.25398 23.4156 7.50361C23.3201 6.62553 23.145 5.71552 22.7948 4.9013C22.4128 4.03918 21.6328 3.54426 20.6618 3.41654C18.7675 3.19303 17.2076 4.4862 17.1439 6.43395C17.0802 8.3338 17.128 10.2496 17.128 12.1495C17.128 13.7939 17.112 15.4223 17.112 17.0667C17.112 28.4818 17.112 39.8969 17.112 51.312C17.112 77.1435 17.112 102.975 17.112 128.823C17.112 131.84 17.0484 134.873 17.0484 137.891C17.0484 139.982 17.0961 142.074 17.128 144.165C17.128 144.341 17.1757 144.516 17.1916 144.74C19.2132 144.756 21.2189 144.756 23.2405 144.756ZM189.777 144.756C189.777 144.405 189.777 144.149 189.777 143.894C189.777 98.3133 189.777 52.7329 189.777 7.15238C189.777 6.78518 189.777 6.40202 189.729 6.03482C189.554 4.75761 188.599 3.73584 187.341 3.46444C186.084 3.19303 184.89 3.68795 184.157 4.77358C183.648 5.5399 183.537 6.40202 183.537 7.2801C183.537 16.1887 183.537 25.0972 183.537 34.0217C183.537 47.8316 183.537 61.6414 183.537 75.4512C183.537 89.6921 183.537 103.917 183.537 118.158C183.537 126.667 183.537 135.193 183.537 143.702C183.537 144.037 183.537 144.373 183.537 144.772C185.654 144.756 187.659 144.756 189.777 144.756ZM20.2002 148.077C16.4276 148.077 12.6709 148.077 8.89826 148.077C7.99093 148.077 7.09951 148.061 6.19217 148.093C4.80729 148.141 3.62934 149.098 3.29506 150.424C2.94486 151.797 3.47016 153.138 4.75954 153.792C5.39626 154.111 6.17625 154.287 6.87665 154.287C15.6476 154.319 24.4344 154.303 33.2053 154.303C33.5237 154.303 33.842 154.319 34.1604 154.287C36.1502 154.111 37.4714 152.371 37.0575 150.503C36.7392 149.051 35.5135 148.077 33.9376 148.077C29.369 148.077 24.7846 148.077 20.2002 148.077ZM186.657 148.077C182.104 148.077 177.535 148.077 172.983 148.077C171.996 148.077 171.152 148.364 170.5 149.114C169.688 150.056 169.433 151.142 169.927 152.307C170.484 153.617 171.566 154.271 172.935 154.287C176.596 154.335 180.257 154.287 183.903 154.319C184.428 154.319 184.699 154.111 184.969 153.696C186.975 150.615 190.779 149.13 194.345 150.024C196.574 150.583 198.309 151.86 199.614 153.76C199.773 153.984 200.06 154.271 200.298 154.287C202.129 154.335 203.944 152.866 203.609 150.711C203.371 149.162 202.097 148.093 200.41 148.093C195.825 148.077 191.241 148.077 186.657 148.077ZM172.203 12.0696C172.235 8.98837 169.592 6.33816 166.361 6.48185C163.782 6.5936 161.028 8.74889 161.172 12.3411C161.283 15.0072 163.432 17.5457 166.647 17.5936C169.688 17.6415 172.171 15.119 172.203 12.0696ZM54.1059 12.0696C54.1059 15.0711 56.6528 17.6415 59.6295 17.5936C62.5744 17.5457 65.1849 15.3904 65.1372 11.894C65.1053 8.94048 62.7495 6.57764 59.6136 6.54571C56.5891 6.49781 54.1059 9.05223 54.1059 12.0696ZM45.7011 12.1016C45.7011 9.05223 43.2338 6.54571 40.2093 6.52974C37.2008 6.51378 34.6698 9.0682 34.6857 12.0856C34.7016 15.119 37.2167 17.6255 40.2412 17.6095C43.2179 17.5936 45.6852 15.103 45.7011 12.1016ZM103.962 95.4875C103.914 92.4062 101.415 89.9476 98.3903 89.9955C95.3021 90.0593 92.8826 92.5818 92.9462 95.695C93.0099 98.6805 95.5568 101.107 98.5654 101.043C101.59 100.995 104.009 98.4889 103.962 95.4875ZM40.1616 62.2002C37.1371 62.2161 34.6539 64.7227 34.6857 67.772C34.7016 70.8054 37.2326 73.2481 40.2571 73.2481C43.5203 73.2481 45.7329 70.4701 45.717 67.6922C45.6852 64.6269 43.2019 62.1842 40.1616 62.2002ZM84.5414 12.0537C84.5096 8.98837 82.0423 6.51378 79.0178 6.52974C76.0093 6.54571 73.4942 9.10013 73.5261 12.1175C73.5579 15.135 76.1207 17.6415 79.1133 17.6095C82.106 17.5617 84.5733 15.0551 84.5414 12.0537ZM166.695 101.059C169.736 101.059 172.219 98.5528 172.203 95.5034C172.187 92.486 169.64 89.9795 166.632 90.0115C163.607 90.0434 161.156 92.5499 161.172 95.6152C161.187 98.6167 163.687 101.059 166.695 101.059ZM59.5977 73.2321C62.6539 73.2321 65.1053 70.7735 65.1213 67.7082C65.1372 64.6748 62.6221 62.1842 59.5817 62.2002C56.5732 62.2161 54.1059 64.6907 54.09 67.6922C54.0741 70.7096 56.5732 73.2321 59.5977 73.2321ZM65.0894 95.4556C65.2168 92.2945 62.1446 89.9955 59.725 89.9955C56.7324 89.9795 54.1696 92.4062 54.1059 95.4396C54.0263 98.4251 56.4618 100.964 59.4544 101.059C62.8768 101.155 65.2964 98.1856 65.0894 95.4556ZM45.7011 95.5514C45.7011 92.502 43.2019 89.9795 40.1934 90.0115C37.153 90.0274 34.6698 92.5339 34.6857 95.5673C34.7016 98.5688 37.1689 101.059 40.1616 101.059C43.2179 101.059 45.7011 98.6007 45.7011 95.5514ZM103.962 12.0696C103.946 9.00434 101.478 6.52974 98.438 6.54571C95.4136 6.56167 92.9303 9.08416 92.9622 12.1175C92.9781 15.119 95.4932 17.6255 98.4539 17.6095C101.494 17.5936 103.962 15.103 103.962 12.0696ZM103.962 39.8969C103.962 36.7996 101.462 34.341 98.3584 34.3729C95.4136 34.4049 92.9622 36.8795 92.9462 39.849C92.9303 42.8983 95.4136 45.4208 98.438 45.4208C101.478 45.4208 103.962 42.9462 103.962 39.8969ZM79.0178 101.059C82.0741 101.059 84.5414 98.5847 84.5414 95.5354C84.5414 92.486 82.0423 89.9795 79.0178 90.0115C76.0252 90.0274 73.542 92.518 73.5261 95.5034C73.4942 98.5368 75.9934 101.059 79.0178 101.059ZM192.308 164.074C195.332 164.058 197.783 161.551 197.767 158.486C197.752 155.5 195.252 153.042 192.244 153.026C189.219 153.026 186.704 155.564 186.736 158.582C186.768 161.631 189.267 164.09 192.308 164.074ZM59.5658 34.3729C56.5414 34.3889 54.0581 36.9433 54.1059 39.9607C54.1536 42.9462 56.6687 45.4368 59.6454 45.4208C62.6699 45.4049 65.1531 42.8824 65.1372 39.849C65.1053 36.7996 62.6062 34.357 59.5658 34.3729ZM117.97 34.3729C114.929 34.325 112.446 36.7517 112.382 39.833C112.319 42.8025 114.786 45.3729 117.763 45.4208C120.787 45.4847 123.318 43.042 123.382 39.9927C123.461 36.9593 121.026 34.4208 117.97 34.3729ZM84.5414 67.6922C84.5096 64.6269 82.0264 62.1683 78.986 62.2002C75.9934 62.2161 73.5101 64.7227 73.5101 67.7082C73.5101 70.7415 76.0093 73.2481 79.0338 73.2481C82.09 73.2161 84.5733 70.7256 84.5414 67.6922ZM103.962 67.772C103.978 64.7067 101.542 62.2161 98.5017 62.2002C95.4932 62.1683 92.994 64.6269 92.9622 67.6283C92.9144 70.7256 95.3817 73.2321 98.4698 73.2481C101.462 73.2481 103.946 70.7894 103.962 67.772ZM166.727 62.2002C163.687 62.1683 161.203 64.6109 161.172 67.6922C161.14 70.6936 163.575 73.2002 166.584 73.2481C169.624 73.296 172.155 70.8533 172.203 67.8039C172.251 64.7706 169.767 62.2161 166.727 62.2002ZM40.273 34.3729C37.2645 34.325 34.7494 36.7358 34.6698 39.7372C34.5902 42.7706 37.0416 45.341 40.0661 45.4208C43.0905 45.4847 45.6374 43.026 45.7011 39.9927C45.7488 36.9433 43.3293 34.4208 40.273 34.3729ZM84.5414 39.8809C84.5733 36.8954 82.106 34.4049 79.0815 34.3729C76.0411 34.341 73.5101 36.8475 73.5101 39.865C73.5101 42.8664 75.9615 45.3729 78.9382 45.4208C82.0105 45.4687 84.5255 42.9941 84.5414 39.8809ZM94.9838 164.505C98.5017 165.543 101.956 166.58 105.426 167.618C106.477 165.064 104.869 161.871 102.099 160.865C99.1702 159.779 95.9707 161.376 94.9838 164.505ZM95.1111 167.969C96.6711 172.04 101.558 172.328 103.357 170.412C100.635 169.598 97.9446 168.799 95.1111 167.969Z" fill="#ABC4EA" fill-opacity="0.32"/>
<path d="M162.779 182.13C163.766 186.138 166.218 188.548 170.197 189.442H169.513C169.927 189.442 170.341 189.458 170.739 189.506C171.343 189.41 171.964 189.378 172.601 189.394C172.999 189.283 173.413 189.187 173.827 189.123C178.077 187.846 180.592 183.839 180.178 179.624C179.796 175.856 176.262 171.098 169.783 171.897C169.258 169.47 168.032 167.49 165.931 166.101C163.798 164.712 161.458 164.313 159.007 164.92C154.9 165.942 152.066 169.885 152.401 174.004C152.576 176.207 153.42 178.123 154.995 179.672C157.16 181.843 159.803 182.545 162.779 182.13ZM171.55 175.09C174.575 175.138 177.026 177.676 176.978 180.725C176.931 183.711 174.368 186.201 171.423 186.138C168.303 186.074 165.899 183.567 165.963 180.47C166.043 177.468 168.558 175.042 171.55 175.09ZM155.632 173.413C155.664 170.492 157.924 168.113 160.885 167.921C163.623 167.746 166.186 169.869 166.6 172.663C166.663 173.078 166.568 173.349 166.218 173.605C164.658 174.77 163.607 176.303 163.066 178.171C162.939 178.602 162.716 178.778 162.318 178.857C158.879 179.592 155.6 176.91 155.632 173.413Z" fill="#ABC4EA" fill-opacity="0.32"/>
<path d="M143.916 171.689C143.932 176.527 140.016 180.486 135.193 180.486C130.386 180.502 126.422 176.559 126.406 171.737C126.39 166.868 130.338 162.892 135.177 162.908C140.016 162.924 143.9 166.82 143.916 171.689ZM129.67 171.737C129.67 174.755 132.121 177.213 135.145 177.229C138.17 177.245 140.701 174.723 140.685 171.705C140.669 168.656 138.17 166.149 135.161 166.165C132.121 166.165 129.654 168.672 129.67 171.737Z" fill="#ABC4EA" fill-opacity="0.32"/>
</svg>
