<svg width="170" height="166" viewBox="0 0 170 166" fill="none" xmlns="http://www.w3.org/2000/svg">
<path d="M101.625 166H43.0125C34.7435 166 28.0033 159.246 28.0033 150.96V126.38C28.0033 124.953 29.1846 123.769 30.6091 123.769C32.0335 123.769 33.2148 124.953 33.2148 126.38V150.995C33.2148 156.426 37.6273 160.813 43.0125 160.813H101.625C107.045 160.813 111.422 156.391 111.422 150.995V126.38C111.422 124.953 112.604 123.769 114.028 123.769C115.453 123.769 116.634 124.953 116.634 126.38V150.995C116.634 159.281 109.894 166 101.625 166Z" fill="#BDBDBD"/>
<path d="M114.028 47.7668C112.604 47.7668 111.422 46.5831 111.422 45.1556V37.6355C111.422 36.2081 112.604 35.0244 114.028 35.0244C115.453 35.0244 116.634 36.2081 116.634 37.6355V45.1556C116.634 46.6179 115.453 47.7668 114.028 47.7668Z" fill="#BDBDBD"/>
<path d="M30.6091 79.8318C29.1846 79.8318 28.0033 78.6481 28.0033 77.2206V15.0403C28.0033 6.7542 34.7435 0 43.0125 0H101.625C108.157 0 113.889 4.17785 115.904 10.375C116.356 11.7328 115.592 13.2299 114.237 13.6825C112.882 14.1351 111.388 13.3691 110.936 12.0113C109.616 7.93792 105.898 5.22232 101.625 5.22232H43.0125C37.5925 5.22232 33.2148 9.64388 33.2148 15.0403V77.2206C33.2148 78.6481 32.0683 79.8318 30.6091 79.8318Z" fill="#BDBDBD"/>
<path d="M74.3859 17.1988H69.9039C66.638 17.1988 63.7543 15.1795 62.5036 12.0461C61.9824 10.7231 62.6078 9.19124 63.9628 8.6342C65.2831 8.11197 66.8118 8.73864 67.3677 10.0964C67.8193 11.2105 68.8269 11.9417 69.9387 11.9417H74.4206C75.4629 11.9417 76.4357 11.2802 76.9221 10.2357C77.5128 8.91272 79.0762 8.35567 80.3965 8.94754C81.7167 9.5394 82.2726 11.1061 81.682 12.4291C80.2923 15.3188 77.4433 17.1988 74.3859 17.1988Z" fill="#BDBDBD"/>
<path d="M75.1155 155.068H69.5566C68.1321 155.068 66.9508 153.884 66.9508 152.457C66.9508 151.029 68.1321 149.846 69.5566 149.846H75.1155C76.54 149.846 77.7213 151.029 77.7213 152.457C77.7213 153.884 76.54 155.068 75.1155 155.068Z" fill="#BDBDBD"/>
<path d="M112.916 145.528H31.7209C30.2964 145.528 29.1151 144.345 29.1151 142.917C29.1151 141.49 30.2964 140.306 31.7209 140.306H112.916C114.341 140.306 115.522 141.49 115.522 142.917C115.522 144.345 114.376 145.528 112.916 145.528Z" fill="#BDBDBD"/>
<path d="M16.5379 117.119C15.1134 117.119 13.9321 115.935 13.9321 114.508V92.5742C13.9321 91.1467 15.1134 89.963 16.5379 89.963C17.9624 89.963 19.1437 91.1467 19.1437 92.5742V114.508C19.1437 115.935 17.9624 117.119 16.5379 117.119Z" fill="#BDBDBD"/>
<path d="M2.60576 117.119C1.18128 117.119 0 115.935 0 114.508V99.8507C0 98.4232 1.18128 97.2395 2.60576 97.2395C4.03025 97.2395 5.21153 98.4232 5.21153 99.8507V114.508C5.21153 115.935 4.03025 117.119 2.60576 117.119Z" fill="#BDBDBD"/>
<path d="M141.927 117.119C140.503 117.119 139.322 115.935 139.322 114.508V74.3309C139.322 72.9035 140.503 71.7197 141.927 71.7197C143.352 71.7197 144.533 72.9035 144.533 74.3309V114.508C144.533 115.935 143.387 117.119 141.927 117.119Z" fill="#BDBDBD"/>
<path d="M30.4701 117.119C29.0457 117.119 27.8644 115.935 27.8644 114.508V92.7484C27.8644 91.3209 29.0457 90.1372 30.4701 90.1372C31.8946 90.1372 33.0759 91.3209 33.0759 92.7484V114.508C33.0759 115.935 31.8946 117.119 30.4701 117.119Z" fill="#BDBDBD"/>
<path d="M44.4021 117.119C42.9777 117.119 41.7964 115.935 41.7964 114.508V85.263C41.7964 83.8356 42.9777 82.6519 44.4021 82.6519C45.8266 82.6519 47.0079 83.8356 47.0079 85.263V114.508C47.0079 115.935 45.8614 117.119 44.4021 117.119Z" fill="#BDBDBD"/>
<path d="M58.3343 117.119C56.9098 117.119 55.7285 115.935 55.7285 114.508V71.4412C55.7285 70.0138 56.9098 68.8301 58.3343 68.8301C59.7588 68.8301 60.94 70.0138 60.94 71.4412V114.508C60.94 115.935 59.7935 117.119 58.3343 117.119Z" fill="#BDBDBD"/>
<path d="M72.2665 117.119C70.842 117.119 69.6608 115.935 69.6608 114.508V74.888C69.6608 73.4606 70.842 72.2769 72.2665 72.2769C73.691 72.2769 74.8723 73.4606 74.8723 74.888V114.508C74.8723 115.935 73.7258 117.119 72.2665 117.119Z" fill="#BDBDBD"/>
<path d="M86.1987 117.119C84.7742 117.119 83.5929 115.935 83.5929 114.508V59.9173C83.5929 58.4899 84.7742 57.3062 86.1987 57.3062C87.6231 57.3062 88.8044 58.4899 88.8044 59.9173V114.473C88.8044 115.935 87.6579 117.119 86.1987 117.119Z" fill="#BDBDBD"/>
<path d="M100.131 117.119C98.7063 117.119 97.525 115.935 97.525 114.508V48.8112C97.525 47.3838 98.7063 46.2001 100.131 46.2001C101.555 46.2001 102.737 47.3838 102.737 48.8112V114.508C102.737 115.935 101.59 117.119 100.131 117.119Z" fill="#BDBDBD"/>
<path d="M114.063 117.119C112.638 117.119 111.457 115.935 111.457 114.508V59.7432C111.457 58.3158 112.638 57.1321 114.063 57.1321C115.487 57.1321 116.669 58.3158 116.669 59.7432V114.508C116.669 115.935 115.522 117.119 114.063 117.119Z" fill="#BDBDBD"/>
<path d="M127.995 117.119C126.571 117.119 125.389 115.935 125.389 114.508V56.0877C125.389 54.6603 126.571 53.4766 127.995 53.4766C129.42 53.4766 130.601 54.6603 130.601 56.0877V114.473C130.601 115.935 129.454 117.119 127.995 117.119Z" fill="#BDBDBD"/>
<path d="M99.9918 40.9778C99.3317 40.9778 98.6716 40.7341 98.1504 40.2118C97.1429 39.2022 97.1429 37.531 98.1504 36.5214L124.972 9.64388C126.744 7.86829 129.142 6.85864 131.643 6.85864L137.237 6.89346C138.661 6.89346 139.843 8.07718 139.808 9.53943C139.808 10.9669 138.627 12.1158 137.202 12.1158C137.202 12.1158 137.202 12.1158 137.167 12.1158L131.608 12.081C130.497 12.081 129.42 12.5336 128.621 13.3343L101.799 40.2118C101.347 40.7341 100.652 40.9778 99.9918 40.9778Z" fill="#BDBDBD"/>
<path d="M167.394 12.1506H147.382C145.958 12.1506 144.776 10.9669 144.776 9.53944C144.776 8.11201 145.958 6.92828 147.382 6.92828H167.394C168.819 6.92828 170 8.11201 170 9.53944C170 10.9669 168.854 12.1506 167.394 12.1506Z" fill="#BDBDBD"/>
<path d="M167.394 33.2487H147.382C145.958 33.2487 144.776 32.065 144.776 30.6376C144.776 29.2102 145.958 28.0264 147.382 28.0264H167.394C168.819 28.0264 170 29.2102 170 30.6376C170 32.065 168.854 33.2487 167.394 33.2487Z" fill="#BDBDBD"/>
<path d="M167.394 22.6997H147.382C145.958 22.6997 144.776 21.5159 144.776 20.0885C144.776 18.6611 145.958 17.4774 147.382 17.4774H167.394C168.819 17.4774 170 18.6611 170 20.0885C170 21.5159 168.854 22.6997 167.394 22.6997Z" fill="#BDBDBD"/>
<path d="M154.887 43.8326H147.382C145.958 43.8326 144.776 42.6489 144.776 41.2214C144.776 39.794 145.958 38.6103 147.382 38.6103H154.887C156.311 38.6103 157.492 39.794 157.492 41.2214C157.492 42.6489 156.346 43.8326 154.887 43.8326Z" fill="#BDBDBD"/>
</svg>
