<svg width="215" height="198" viewBox="0 0 215 198" fill="none" xmlns="http://www.w3.org/2000/svg">
<path d="M214.901 158.909C214.438 159.871 214.107 160.915 213.512 161.778C212.603 163.088 211.247 163.851 209.693 164.232C209.412 164.298 209.114 164.365 208.833 164.431C209.147 171.379 203.708 174.662 199.607 174.596C194.912 174.529 190.216 170.666 190.564 164.447C190.051 164.414 189.539 164.365 189.026 164.365C185.852 164.365 182.694 164.447 179.519 164.381C176.857 164.331 174.791 163.088 173.584 160.7C172.41 158.378 172.658 156.074 174.13 153.951C175.469 152.011 177.42 151.165 179.751 151.165C181.867 151.165 184 151.165 186.116 151.165C186.463 151.165 186.827 151.165 187.24 151.165C187.24 145.212 187.24 139.342 187.24 133.339C187.042 133.522 186.893 133.654 186.778 133.804C186.166 134.616 185.554 135.445 184.975 136.274C182.462 139.856 179.04 142.178 174.857 143.289C172.542 143.902 170.178 144.333 167.83 144.781C166.64 145.013 165.929 144.433 165.714 143.255C165.582 142.509 166.359 141.647 167.301 141.448C169.103 141.1 170.922 140.801 172.708 140.387C176.51 139.475 179.784 137.717 182.132 134.434C183.388 132.66 184.694 130.885 186.166 129.31C187.042 128.381 187.34 127.502 187.323 126.275C187.274 118.432 187.29 110.572 187.29 102.729C187.29 102.43 187.29 102.132 187.29 101.75C185.554 101.75 183.868 101.75 182.132 101.75C180.792 106.393 177.783 109.179 172.84 109.063C168.194 108.947 165.4 106.178 164.127 101.734C146.535 101.734 128.944 101.734 111.303 101.734C109.864 106.543 106.756 109.295 101.598 109.063C97.5138 108.881 94.8189 106.36 93.2648 101.684C92.9341 101.684 92.5538 101.684 92.1736 101.684C91.8264 101.684 91.4626 101.684 91.0658 101.684C90.4706 104.205 89.2141 106.211 87.0813 107.62C85.4941 108.665 83.7415 109.179 81.8402 109.129C78.2855 109.03 74.3506 106.758 73.1106 101.75C72.3996 101.75 71.6722 101.75 70.9282 101.75C69.589 106.344 66.6626 109.146 61.7687 109.063C57.0401 108.997 54.2129 106.211 52.9233 101.717C52.758 101.701 52.5927 101.684 52.4439 101.684C51.8983 101.684 51.3527 101.684 50.7905 101.684C49.3521 106.493 46.2934 109.212 41.2012 109.08C37.167 108.98 34.3233 106.393 32.7361 101.734C31.0827 101.734 29.4129 101.734 27.6603 101.734C27.6603 109.925 27.6603 118.1 27.6603 126.309C28.2225 126.425 28.8011 126.508 29.3467 126.657C31.2977 127.204 32.7526 128.481 33.91 130.04C35.0508 131.582 36.0593 133.256 37.1505 134.848C38.126 136.258 39.0849 137.667 40.1596 138.994C41.3334 140.437 42.9041 141.232 44.7724 141.498C46.6572 141.763 48.5254 142.095 50.3937 142.476C54.0311 143.206 56.9079 145.113 58.9084 148.247C59.8673 149.739 60.8097 151.232 61.5703 152.823C63.67 157.118 67.0098 160.003 71.3746 161.728C77.0125 163.933 82.6999 166.056 88.3709 168.162C90.636 169.008 92.9506 169.737 95.348 170.55C96.5218 167.416 98.605 165.243 101.846 164.381C103.912 163.834 105.946 164.033 107.897 164.912C111.898 166.719 113.766 170.716 112.906 175.707C113.138 175.79 113.386 175.873 113.65 175.939C115.403 176.403 117.172 176.851 118.925 177.315C119.139 177.365 119.354 177.415 119.553 177.498C120.33 177.829 120.76 178.658 120.578 179.454C120.379 180.267 119.635 180.814 118.792 180.731C118.412 180.698 118.032 180.582 117.668 180.482C115.8 180.002 113.931 179.537 112.08 179.007C111.534 178.857 111.203 178.94 110.79 179.371C107.335 183.069 101.846 183.335 98.076 180.002C96.5053 178.625 95.5133 176.884 95.1992 174.828C95.1 174.148 94.7858 173.866 94.1741 173.667C86.7175 171.23 79.3106 168.61 72.0359 165.658C70.4487 165.011 68.9111 164.282 67.39 163.502C63.4055 161.479 60.5948 158.312 58.5943 154.349C58.1148 153.42 57.5527 152.525 57.0732 151.596C55.1719 147.915 52.1793 145.892 48.079 145.395C46.7398 145.229 45.4172 144.947 44.078 144.764C41.35 144.383 39.1345 143.057 37.4316 140.951C36.2412 139.475 35.1996 137.866 34.1249 136.308C33.199 134.964 32.3723 133.555 31.3969 132.262C30.8678 131.549 30.1403 130.952 29.4625 130.371C28.983 129.973 28.3713 129.774 27.5942 129.758C27.5942 136.888 27.5942 143.935 27.5942 151.066C28.0075 151.082 28.3217 151.115 28.6523 151.115C30.9339 151.115 33.2321 151.082 35.5137 151.132C40.0108 151.232 43.0694 155.559 41.6806 159.821C40.8374 162.441 38.1921 164.315 35.2822 164.331C32.6699 164.348 30.0411 164.331 27.4289 164.331C20.6006 164.331 13.7558 164.348 6.92748 164.315C3.95148 164.298 1.76907 162.939 0.496001 160.219C0.281067 159.771 0.165334 159.29 0 158.826C0 158.113 0 157.383 0 156.67C0.0496001 156.538 0.132267 156.422 0.1488 156.289C0.793602 153.238 3.62081 150.983 6.99362 151.082C9.14296 151.149 11.2923 151.099 13.4416 151.082C13.7392 151.082 14.0203 151.049 14.4006 151.016C14.4006 149.955 14.384 148.976 14.4006 147.998C14.4171 147.086 14.5328 146.191 14.5328 145.279C14.5163 143.886 14.4006 142.493 14.4006 141.1C14.4006 110.39 14.4006 79.6961 14.4006 48.986C14.4006 38.7714 14.4006 28.5568 14.4006 18.3422C14.4006 17.7452 14.5494 17.1317 14.5328 16.5347C14.5163 15.1418 14.4171 13.7489 14.4006 12.356C14.3675 10.731 14.384 9.08933 14.4006 7.46428C14.4336 4.33026 16.4342 1.77661 19.4598 0.997245C19.6912 0.930917 19.9227 0.848006 20.1542 0.781677C20.7659 0.781677 21.3611 0.781677 21.9729 0.781677C22.1713 0.848006 22.3697 0.930917 22.5846 0.997245C25.9078 1.95901 27.4619 4.59557 27.5446 7.99491C27.5777 9.13908 27.6273 10.2832 27.6603 11.5269C29.0657 11.5269 30.4049 11.5269 31.7606 11.5269C32.7691 11.5269 32.7691 11.5269 33.0833 10.5486C34.2737 6.7015 37.8449 4.06494 41.846 4.09811C45.8966 4.13127 49.4678 6.85074 50.526 10.7641C50.6913 11.3611 50.9228 11.6264 51.518 11.5435C51.6833 11.5269 51.8487 11.5435 52.014 11.5435C52.9564 11.5435 52.9564 11.5435 53.2375 10.6315C54.4279 6.75125 57.9495 4.11469 61.9505 4.11469C66.0012 4.11469 69.5559 6.78441 70.6802 10.7144C70.8786 11.3777 71.1266 11.6596 71.8044 11.5601C71.9698 11.5269 72.1351 11.5269 72.3004 11.5601C72.9948 11.6927 73.2263 11.3611 73.4247 10.7144C74.5324 6.81758 78.0375 4.16444 82.0717 4.13127C86.0727 4.09811 89.6274 6.7015 90.8344 10.5817C90.9335 10.8968 91.0328 11.1953 91.132 11.5269C91.8925 11.5269 92.5869 11.5269 93.3309 11.5269C93.4136 11.2616 93.4962 11.0294 93.5624 10.7973C94.7032 6.83416 98.2248 4.16444 102.342 4.14785C106.326 4.13127 109.881 6.78441 111.038 10.6812C111.352 11.7259 111.303 11.5767 112.278 11.5767C115.337 11.5932 118.379 11.5767 121.438 11.5767C135.441 11.5767 149.429 11.5767 163.432 11.5767C164.011 11.5767 164.292 11.4274 164.457 10.8139C165.731 5.85581 171.203 2.93736 176.047 4.61215C179.073 5.65683 181.057 7.74618 181.95 10.8305C182.115 11.4274 182.38 11.6098 182.975 11.5932C184.083 11.5435 185.174 11.5767 186.282 11.5767C186.629 11.5767 186.976 11.5767 187.373 11.5767C187.373 10.1838 187.323 8.94009 187.389 7.71302C187.522 4.74481 188.861 2.55597 191.605 1.32889C192.101 1.11332 192.647 0.997245 193.176 0.831424C193.722 0.831424 194.284 0.831424 194.829 0.831424C194.928 0.88117 195.028 0.947499 195.127 0.964081C198.285 1.51129 200.649 4.24735 200.632 8.01149C200.583 19.8677 200.616 31.724 200.616 43.5802C200.616 79.1158 200.616 114.651 200.616 150.203C200.616 150.502 200.616 150.784 200.616 151.149C201.046 151.149 201.343 151.149 201.641 151.149C203.923 151.149 206.221 151.115 208.502 151.165C211.528 151.215 214.008 153.172 214.802 156.09C214.851 156.306 214.934 156.505 215 156.72C214.901 157.466 214.901 158.196 214.901 158.909ZM50.774 40.5291C51.1377 40.5291 51.518 40.5291 51.8983 40.5291C52.9068 40.5291 52.9068 40.5291 53.2209 39.5507C54.4775 35.5379 58.3793 32.8018 62.3969 33.1003C66.4642 33.4153 69.589 35.969 70.7298 39.9156C70.7959 40.1145 70.8786 40.3135 70.9612 40.5457C71.358 40.5457 71.7218 40.5457 72.069 40.5457C72.4162 40.5457 72.7634 40.5457 73.1106 40.5457C73.2263 40.1477 73.309 39.8658 73.3916 39.5839C74.6151 35.7368 77.9714 33.1998 81.9725 33.1003C85.7421 33.0008 89.2968 35.4715 90.636 39.1196C90.8013 39.5839 90.8509 40.2306 91.1816 40.4462C91.5618 40.6949 92.1901 40.5457 92.7192 40.5457C92.901 40.5457 93.0994 40.5125 93.2648 40.4959C95.0338 35.6208 97.828 33.15 101.961 33.1335C106.921 33.1335 109.914 35.8363 111.27 40.4793C112.03 40.4793 112.758 40.4793 113.469 40.4793C114.626 35.6374 118.429 33.2495 122.099 33.1169C123.967 33.0505 125.703 33.5148 127.29 34.5264C129.489 35.9358 130.812 37.9754 131.407 40.4959C150.04 40.4959 168.624 40.4959 187.224 40.4959C187.224 31.9893 187.224 23.5655 187.224 15.0755C185.471 15.0755 183.785 15.0755 182.115 15.0755C180.677 19.6853 177.783 22.3219 173.667 22.438C168.591 22.5706 165.499 19.8843 164.127 15.0423C146.486 15.0423 128.878 15.0423 111.237 15.0423C110.741 17.2146 109.749 18.9889 108.112 20.3652C106.442 21.7581 104.507 22.4711 102.325 22.4877C100.49 22.5043 98.7869 22.0068 97.2493 20.9787C95.133 19.5693 93.8765 17.5462 93.2813 15.0755C92.5208 15.0755 91.8098 15.0755 91.0493 15.0755C90.5533 17.2312 89.5282 19.0552 87.8087 20.4481C86.0893 21.841 84.1218 22.5209 81.9229 22.4877C77.7069 22.4214 74.8796 20.0501 73.0775 15.0921C72.3666 15.0921 71.6391 15.0921 70.8951 15.0921C70.7794 15.4569 70.6967 15.7719 70.581 16.087C68.9442 21.2275 63.3724 23.864 58.4124 21.7913C55.7009 20.6637 53.9649 18.6075 53.1217 15.8051C53.0391 15.5564 52.9233 15.1418 52.7745 15.1252C52.1463 15.0423 51.5015 14.9926 50.8897 15.1252C50.6748 15.175 50.526 15.7388 50.4103 16.087C49.2033 19.9009 45.7644 22.4711 41.7964 22.5209C37.878 22.554 34.3729 20.0501 33.1163 16.3026C32.9841 15.9212 32.8683 15.5232 32.7361 15.1252C31.0166 15.1252 29.3302 15.1252 27.6273 15.1252C27.6273 23.6319 27.6273 32.0722 27.6273 40.5291C29.3798 40.5291 31.0827 40.5291 32.7526 40.5291C33.9595 35.5876 37.7953 33.2993 41.383 33.1666C44.9542 32.9676 49.4017 35.0404 50.774 40.5291ZM111.319 98.3345C111.666 98.3345 111.997 98.3345 112.311 98.3345C114.626 98.3345 116.941 98.3345 119.239 98.3345C133.457 98.3345 147.676 98.3345 161.895 98.3345C162.424 98.3345 162.936 98.3179 163.465 98.351C163.945 98.3842 164.193 98.235 164.342 97.7209C164.524 97.041 164.788 96.3446 165.119 95.7145C166.855 92.4478 170.36 90.5906 174.063 90.9388C177.684 91.287 180.776 93.8573 181.867 97.4224C181.95 97.7043 182.032 97.9862 182.115 98.2515C183.868 98.2515 185.554 98.2515 187.24 98.2515C187.24 89.7615 187.24 81.3378 187.24 72.8643C185.488 72.8643 183.802 72.8643 182.132 72.8643C180.908 77.1756 178.23 79.9117 173.749 80.1604C168.64 80.4423 165.549 77.6068 164.127 72.8643C146.469 72.8643 128.878 72.8643 111.303 72.8643C109.451 77.8721 106.525 80.2433 102.242 80.2433C98.0594 80.2433 95.1165 77.8223 93.2813 72.8643C92.5869 72.8643 91.8925 72.8643 91.1485 72.8643C89.7762 77.4907 86.8167 80.2931 81.8898 80.1936C77.2274 80.0941 74.4002 77.3249 73.1271 72.8809C72.3831 72.8809 71.6556 72.8809 70.9116 72.8809C70.8124 73.1959 70.7463 73.4612 70.6636 73.71C69.5228 77.4907 66.1666 80.0941 62.1985 80.2433C58.4124 80.3926 54.8081 77.9716 53.4359 74.3733C53.2375 73.8758 53.1713 73.1462 52.8076 72.9306C52.3777 72.6653 51.6833 72.8477 51.1047 72.8311C51.0055 72.8311 50.8897 72.8643 50.7244 72.8809C50.2119 74.9702 49.2364 76.7943 47.55 78.1706C45.847 79.5635 43.8796 80.3428 41.6806 80.2433C36.919 80.0278 34.0753 77.3746 32.7691 72.914C31.0662 72.914 29.3798 72.914 27.6603 72.914C27.6603 81.4041 27.6603 89.8278 27.6603 98.3013C29.3963 98.3013 31.0993 98.3013 32.7691 98.3013C33.9926 94.0065 36.6545 91.2373 41.1516 90.9886C46.2769 90.7067 49.3521 93.5256 50.8071 98.351C51.1873 98.351 51.5841 98.351 51.9644 98.351C52.9233 98.351 52.9233 98.351 53.2209 97.4059C55.0396 91.5855 61.686 89.0982 66.8114 92.3483C68.7788 93.592 70.0684 95.3662 70.7298 97.6048C70.8124 97.9033 70.7794 98.3179 71.2588 98.3179C71.8871 98.3179 72.5154 98.3179 73.1271 98.3179C73.2759 97.8536 73.3916 97.4556 73.5239 97.0742C75.5575 91.1378 82.8322 88.9987 87.7426 92.8955C89.3298 94.1558 90.3714 95.7642 90.9005 97.7209C90.9832 98.0028 90.9831 98.351 91.413 98.351C92.0413 98.351 92.6696 98.351 93.2482 98.351C94.885 93.509 97.8445 91.0217 101.978 90.9222C106.376 90.7896 109.286 93.0779 111.319 98.3345ZM187.257 43.9118C186.91 43.9118 186.645 43.9118 186.381 43.9118C168.425 43.9118 150.454 43.9118 132.498 43.9118C131.44 43.9118 131.44 43.9118 131.143 44.8902C129.969 48.6875 126.563 51.2577 122.628 51.3241C118.677 51.3904 115.171 48.9694 113.865 45.2218C113.402 43.9118 113.402 43.945 112.03 43.8953C111.435 43.8787 111.187 44.0279 111.022 44.6415C110.03 48.2398 106.921 50.8764 103.35 51.2577C99.5309 51.6557 96.0589 49.8648 94.2568 46.4821C93.8269 45.6861 93.5624 44.8073 93.1986 43.8953C92.8184 43.8953 92.372 43.945 91.9421 43.8787C91.2642 43.7958 90.9997 44.0611 90.8178 44.7244C89.6274 48.7373 86.1058 51.3241 82.0055 51.3241C78.0045 51.3241 74.4828 48.5051 73.3255 44.6415C73.2594 44.4093 73.1932 44.1772 73.1106 43.8953C72.7799 43.8953 72.4823 43.8953 72.1682 43.8953C70.9282 43.8953 70.9282 43.8953 70.5479 45.056C68.3986 51.5231 60.2311 53.4466 55.4529 48.6046C54.2956 47.4438 53.5351 46.0509 53.1217 44.4756C53.0391 44.1606 52.9729 43.8953 52.5596 43.8953C51.9644 43.9118 51.3527 43.8953 50.7575 43.8953C50.6417 44.2767 50.5425 44.5917 50.4433 44.9068C48.4593 51.2743 40.5564 53.4134 35.646 48.9197C34.3233 47.7092 33.4305 46.2499 32.9841 44.5254C32.8518 44.0279 32.6369 43.8621 32.1243 43.8787C31.2646 43.9118 30.4214 43.8953 29.5617 43.8953C28.9334 43.8953 28.3217 43.8953 27.6769 43.8953C27.6769 52.4517 27.6769 60.892 27.6769 69.3986C28.6027 69.3986 29.4459 69.3986 30.3057 69.3986C31.1489 69.3986 31.9921 69.3986 32.8022 69.3986C33.9761 64.54 37.6796 62.2849 40.9862 62.0196C42.8545 61.8703 44.607 62.2185 46.2438 63.1471C48.6742 64.54 50.1127 66.6791 50.7905 69.4152C51.2865 69.4152 51.7329 69.382 52.1628 69.4318C52.7911 69.4981 53.0556 69.266 53.2375 68.6358C54.742 63.5617 59.4044 61.207 64.1825 62.2849C66.8114 62.8818 68.7788 64.4903 70.0188 66.9113C70.4156 67.6907 70.6802 68.5363 71.0439 69.4152C71.4242 69.4152 71.821 69.382 72.2343 69.4152C72.8956 69.4815 73.2098 69.3157 73.4412 68.5695C74.582 64.6893 77.9053 62.1356 81.8402 61.9864C85.7586 61.8372 89.2637 64.1918 90.7021 67.956C90.8839 68.4203 91.0162 68.8846 91.165 69.3489C91.9421 69.3489 92.6861 69.3489 93.397 69.3489C94.5544 64.4903 98.3901 62.1688 101.631 62.0361C106.806 61.8372 109.914 64.54 111.385 69.3654C128.993 69.3654 146.601 69.3654 164.209 69.3654C165.516 64.8717 168.326 62.1025 173.071 62.0361C177.965 61.9698 180.875 64.7888 182.247 69.4152C183.107 69.4152 183.95 69.4152 184.81 69.4152C185.653 69.4152 186.48 69.4152 187.34 69.4152C187.257 60.8588 187.257 52.4682 187.257 43.9118ZM24.1387 151.132C24.1718 150.95 24.2214 150.834 24.2379 150.701C24.271 147.418 24.3041 144.134 24.3206 140.851C24.3206 138.563 24.2545 136.274 24.2545 133.986C24.2545 92.9784 24.2545 51.9708 24.2545 10.9631C24.2545 10.1672 24.4033 9.35465 24.3206 8.57529C24.2214 7.66327 24.0395 6.71809 23.6758 5.8724C23.279 4.97696 22.4689 4.46291 21.4603 4.33026C19.4928 4.09811 17.8726 5.44126 17.8064 7.46428C17.7403 9.43756 17.7899 11.4274 17.7899 13.4007C17.7899 15.1087 17.7734 16.8 17.7734 18.508C17.7734 30.3642 17.7734 42.2205 17.7734 54.0767C17.7734 80.9066 17.7734 107.737 17.7734 134.583C17.7734 137.717 17.7072 140.868 17.7072 144.002C17.7072 146.174 17.7568 148.346 17.7899 150.518C17.7899 150.701 17.8395 150.883 17.856 151.115C19.9558 151.132 22.039 151.132 24.1387 151.132ZM197.111 151.132C197.111 150.767 197.111 150.502 197.111 150.237C197.111 102.895 197.111 55.5525 197.111 8.21048C197.111 7.82909 197.111 7.43112 197.061 7.04973C196.879 5.72316 195.887 4.6619 194.581 4.38C193.275 4.09811 192.035 4.61215 191.275 5.73974C190.746 6.53568 190.63 7.43112 190.63 8.34314C190.63 17.596 190.63 26.8488 190.63 36.1182C190.63 50.4618 190.63 64.8054 190.63 79.1489C190.63 93.9402 190.63 108.715 190.63 123.506C190.63 132.344 190.63 141.199 190.63 150.038C190.63 150.386 190.63 150.734 190.63 151.149C192.829 151.132 194.912 151.132 197.111 151.132ZM20.9809 154.581C17.0624 154.581 13.1606 154.581 9.24216 154.581C8.29975 154.581 7.37388 154.565 6.43148 154.598C4.99308 154.647 3.76961 155.642 3.42241 157.019C3.05867 158.445 3.60428 159.838 4.94348 160.518C5.60481 160.849 6.41495 161.032 7.14242 161.032C16.2523 161.065 25.3787 161.048 34.4886 161.048C34.8193 161.048 35.15 161.065 35.4806 161.032C37.5473 160.849 38.9196 159.042 38.4897 157.102C38.159 155.593 36.886 154.581 35.2492 154.581C30.5041 154.581 25.7425 154.581 20.9809 154.581ZM193.87 154.581C189.142 154.581 184.397 154.581 179.668 154.581C178.643 154.581 177.767 154.88 177.089 155.659C176.246 156.637 175.981 157.765 176.494 158.975C177.072 160.335 178.197 161.015 179.619 161.032C183.421 161.081 187.224 161.032 191.01 161.065C191.556 161.065 191.837 160.849 192.118 160.418C194.201 157.218 198.152 155.676 201.856 156.604C204.171 157.184 205.973 158.511 207.329 160.484C207.494 160.717 207.791 161.015 208.039 161.032C209.941 161.081 211.826 159.556 211.478 157.317C211.23 155.709 209.908 154.598 208.155 154.598C203.394 154.581 198.632 154.581 193.87 154.581ZM178.858 13.3178C178.891 10.1174 176.147 7.36479 172.79 7.51403C170.112 7.6301 167.252 9.86869 167.4 13.5997C167.516 16.3689 169.748 19.0055 173.088 19.0552C176.246 19.105 178.825 16.485 178.858 13.3178ZM56.1969 13.3178C56.1969 16.4352 58.8423 19.105 61.934 19.0552C64.9927 19.0055 67.7042 16.7669 67.6546 13.1354C67.6215 10.0677 65.1746 7.61352 61.9175 7.58036C58.7761 7.53061 56.1969 10.1838 56.1969 13.3178ZM47.4673 13.3509C47.4673 10.1838 44.9046 7.58036 41.7633 7.56378C38.6385 7.54719 36.0097 10.2003 36.0262 13.3344C36.0428 16.485 38.655 19.0884 41.7964 19.0718C44.8881 19.0552 47.4508 16.4684 47.4673 13.3509ZM107.979 99.9595C107.93 96.7592 105.334 94.2055 102.193 94.2552C98.9853 94.3216 96.4722 96.9416 96.5384 100.175C96.6045 103.276 99.2498 105.796 102.375 105.73C105.516 105.68 108.029 103.077 107.979 99.9595ZM41.7137 65.3857C38.5724 65.4023 35.9932 68.0057 36.0262 71.1729C36.0428 74.3235 38.6716 76.8606 41.8129 76.8606C45.2022 76.8606 47.5004 73.9753 47.4838 71.09C47.4508 67.9062 44.8716 65.3691 41.7137 65.3857ZM87.8087 13.3012C87.7757 10.1174 85.213 7.54719 82.0717 7.56378C78.9469 7.58036 76.3346 10.2335 76.3677 13.3675C76.4007 16.5016 79.0626 19.105 82.1709 19.0718C85.2791 19.022 87.8418 16.4186 87.8087 13.3012ZM173.137 105.747C176.295 105.747 178.875 103.143 178.858 99.9761C178.842 96.8421 176.196 94.2387 173.071 94.2718C169.93 94.305 167.384 96.9084 167.4 100.092C167.417 103.21 170.013 105.747 173.137 105.747ZM61.9009 76.844C65.0754 76.844 67.6215 74.2903 67.638 71.1066C67.6546 67.956 65.0423 65.3691 61.8844 65.3857C58.7596 65.4023 56.1969 67.9725 56.1804 71.09C56.1639 74.224 58.7596 76.844 61.9009 76.844ZM67.605 99.9263C67.7372 96.6431 64.5463 94.2552 62.0332 94.2552C58.9249 94.2387 56.2631 96.7592 56.1969 99.9098C56.1143 103.011 58.6439 105.647 61.7521 105.747C65.3068 105.846 67.8199 102.762 67.605 99.9263ZM47.4673 100.026C47.4673 96.8587 44.8716 94.2387 41.7468 94.2718C38.5889 94.2884 36.0097 96.8918 36.0262 100.042C36.0428 103.16 38.6054 105.747 41.7137 105.747C44.8881 105.747 47.4673 103.193 47.4673 100.026ZM107.979 13.3178C107.963 10.134 105.4 7.56378 102.242 7.58036C99.101 7.59694 96.5218 10.2169 96.5549 13.3675C96.5714 16.485 99.1837 19.0884 102.259 19.0718C105.417 19.0552 107.979 16.4684 107.979 13.3178ZM107.979 42.2205C107.979 39.0035 105.384 36.4499 102.16 36.483C99.101 36.5162 96.5549 39.0864 96.5384 42.1707C96.5218 45.3379 99.101 47.9579 102.242 47.9579C105.4 47.9579 107.979 45.3877 107.979 42.2205ZM82.0717 105.747C85.2461 105.747 87.8087 103.176 87.8087 100.009C87.8087 96.8421 85.213 94.2387 82.0717 94.2718C78.9634 94.2884 76.3842 96.8752 76.3677 99.9761C76.3346 103.127 78.9303 105.747 82.0717 105.747ZM199.74 171.196C202.881 171.18 205.427 168.576 205.411 165.393C205.394 162.292 202.798 159.738 199.674 159.722C196.532 159.722 193.92 162.358 193.953 165.492C193.986 168.659 196.582 171.213 199.74 171.196ZM61.8679 36.483C58.7265 36.4996 56.1473 39.1528 56.1969 42.2868C56.2465 45.3877 58.8588 47.9745 61.9505 47.9579C65.0919 47.9413 67.6711 45.3213 67.6546 42.1707C67.6215 39.0035 65.0258 36.4665 61.8679 36.483ZM122.529 36.483C119.371 36.4333 116.792 38.9538 116.726 42.1541C116.659 45.2384 119.222 47.9081 122.314 47.9579C125.455 48.0242 128.084 45.4872 128.15 42.32C128.233 39.1694 125.703 36.5328 122.529 36.483ZM87.8087 71.09C87.7757 67.9062 85.1965 65.3526 82.0386 65.3857C78.9303 65.4023 76.3511 68.0057 76.3511 71.1066C76.3511 74.2572 78.9469 76.8606 82.0882 76.8606C85.2626 76.8274 87.8418 74.2406 87.8087 71.09ZM107.979 71.1729C107.996 67.9891 105.466 65.4023 102.309 65.3857C99.1837 65.3526 96.588 67.9062 96.5549 71.0237C96.5053 74.2406 99.068 76.844 102.275 76.8606C105.384 76.8606 107.963 74.3069 107.979 71.1729ZM173.171 65.3857C170.013 65.3526 167.433 67.8896 167.4 71.09C167.367 74.2074 169.897 76.8108 173.022 76.8606C176.18 76.9103 178.808 74.3733 178.858 71.2061C178.908 68.0555 176.328 65.4023 173.171 65.3857ZM41.8294 36.483C38.7046 36.4333 36.0924 38.9372 36.0097 42.0546C35.927 45.2053 38.4732 47.875 41.6145 47.9579C44.7558 48.0242 47.4012 45.4706 47.4673 42.32C47.5169 39.1528 45.0038 36.5328 41.8294 36.483ZM87.8087 42.2039C87.8418 39.103 85.2791 36.5162 82.1378 36.483C78.9799 36.4499 76.3511 39.0533 76.3511 42.1873C76.3511 45.3047 78.8973 47.9081 81.989 47.9579C85.1799 48.0076 87.7922 45.4374 87.8087 42.2039ZM98.6546 171.644C102.309 172.722 105.896 173.8 109.501 174.878C110.592 172.225 108.922 168.908 106.045 167.863C103.003 166.736 99.6797 168.394 98.6546 171.644ZM98.7869 175.242C100.407 179.471 105.483 179.769 107.351 177.78C104.524 176.934 101.73 176.105 98.7869 175.242Z" fill="#BDBDBD"/>
<path d="M169.07 189.951C170.095 194.113 172.642 196.617 176.775 197.545H176.064C176.494 197.545 176.924 197.562 177.337 197.612C177.965 197.512 178.61 197.479 179.271 197.496C179.685 197.38 180.115 197.28 180.545 197.214C184.959 195.887 187.571 191.725 187.141 187.347C186.745 183.434 183.074 178.492 176.345 179.322C175.799 176.801 174.526 174.745 172.344 173.302C170.129 171.86 167.698 171.445 165.152 172.075C160.886 173.136 157.943 177.232 158.291 181.51C158.472 183.799 159.349 185.789 160.986 187.397C163.234 189.652 165.979 190.382 169.07 189.951ZM178.18 182.638C181.322 182.688 183.868 185.324 183.818 188.492C183.769 191.592 181.107 194.179 178.048 194.113C174.807 194.047 172.311 191.443 172.377 188.226C172.46 185.109 175.072 182.588 178.18 182.638ZM161.647 180.897C161.68 177.862 164.028 175.392 167.103 175.193C169.947 175.01 172.609 177.216 173.038 180.118C173.105 180.549 173.005 180.831 172.642 181.096C171.021 182.306 169.93 183.898 169.368 185.838C169.236 186.286 169.004 186.468 168.591 186.551C165.02 187.314 161.614 184.528 161.647 180.897Z" fill="#BDBDBD"/>
<path d="M149.478 179.106C149.495 184.131 145.428 188.243 140.418 188.243C135.425 188.26 131.308 184.164 131.292 179.156C131.275 174.098 135.375 169.969 140.401 169.986C145.428 170.003 149.462 174.049 149.478 179.106ZM134.681 179.156C134.681 182.29 137.227 184.844 140.368 184.86C143.51 184.877 146.139 182.257 146.122 179.123C146.105 175.956 143.51 173.352 140.385 173.369C137.227 173.369 134.664 175.972 134.681 179.156Z" fill="#BDBDBD"/>
</svg>
