<svg width="42" height="42" viewBox="0 0 42 42" fill="none" xmlns="http://www.w3.org/2000/svg">
<path d="M34.76 34.76C35.2162 34.76 35.6537 34.5788 35.9763 34.2562C36.2988 33.9337 36.48 33.4962 36.48 33.04V22.72C36.48 18.6144 34.8491 14.6771 31.946 11.774C29.043 8.87093 25.1056 7.24001 21 7.24001C16.8945 7.24001 12.9571 8.87093 10.054 11.774C7.15095 14.6771 5.52002 18.6144 5.52002 22.72V33.04C5.52002 33.4962 5.70123 33.9337 6.02379 34.2562C6.34636 34.5788 6.78385 34.76 7.24002 34.76C7.69619 34.76 8.13368 34.5788 8.45625 34.2562C8.77881 33.9337 8.96002 33.4962 8.96002 33.04V22.72C8.96002 19.5268 10.2285 16.4644 12.4865 14.2064C14.7444 11.9485 17.8068 10.68 21 10.68C24.1932 10.68 27.2557 11.9485 29.5136 14.2064C31.7715 16.4644 33.04 19.5268 33.04 22.72V33.04C33.04 33.4962 33.2212 33.9337 33.5438 34.2562C33.8664 34.5788 34.3039 34.76 34.76 34.76Z" fill="#2D2D2D"/>
<path d="M27.8799 38.2C28.3361 38.2 28.7736 38.0188 29.0961 37.6962C29.4187 37.3737 29.5999 36.9362 29.5999 36.48V22.72C29.5999 20.4391 28.6938 18.2517 27.081 16.6389C25.4682 15.0261 23.2808 14.12 20.9999 14.12C18.719 14.12 16.5316 15.0261 14.9188 16.6389C13.306 18.2517 12.3999 20.4391 12.3999 22.72V36.48C12.3999 36.9362 12.5811 37.3737 12.9037 37.6962C13.2262 38.0188 13.6637 38.2 14.1199 38.2C14.5761 38.2 15.0136 38.0188 15.3361 37.6962C15.6587 37.3737 15.8399 36.9362 15.8399 36.48V22.72C15.8399 21.3515 16.3835 20.039 17.3512 19.0713C18.3189 18.1036 19.6314 17.56 20.9999 17.56C22.3684 17.56 23.6809 18.1036 24.6486 19.0713C25.6163 20.039 26.1599 21.3515 26.1599 22.72V36.48C26.1599 36.9362 26.3411 37.3737 26.6637 37.6962C26.9862 38.0188 27.4237 38.2 27.8799 38.2Z" fill="#2D2D2D"/>
<path d="M19.28 22.72V39.92C19.28 40.3762 19.4612 40.8137 19.7838 41.1362C20.1064 41.4588 20.5439 41.64 21 41.64C21.4562 41.64 21.8937 41.4588 22.2163 41.1362C22.5388 40.8137 22.72 40.3762 22.72 39.92V22.72C22.72 22.2638 22.5388 21.8263 22.2163 21.5038C21.8937 21.1812 21.4562 21 21 21C20.5439 21 20.1064 21.1812 19.7838 21.5038C19.4612 21.8263 19.28 22.2638 19.28 22.72Z" fill="#2D2D2D"/>
<path d="M1.39214 15.6938C1.80642 15.8772 2.27635 15.8898 2.69984 15.7288C3.12334 15.5678 3.4662 15.2461 3.65394 14.8338C5.13156 11.4865 7.56778 8.65211 10.655 6.68833C13.7423 4.72456 17.3421 3.71948 21.0001 3.8C24.6553 3.71732 28.253 4.71858 31.34 6.67756C34.4269 8.63655 36.8648 11.4656 38.3463 14.808C38.48 15.1143 38.7001 15.3751 38.9796 15.5583C39.2591 15.7416 39.5859 15.8395 39.9201 15.84C40.1574 15.8421 40.3922 15.7922 40.6081 15.6938C41.0205 15.5061 41.3421 15.1632 41.5031 14.7397C41.6641 14.3162 41.6516 13.8463 41.4681 13.432C37.9765 5.3652 30.1247 0.360001 21.0001 0.360001C11.8755 0.360001 4.02374 5.3652 0.506338 13.432C0.324526 13.8495 0.315675 14.322 0.481724 14.746C0.647773 15.17 0.975172 15.5108 1.39214 15.6938Z" fill="#2D2D2D"/>
</svg>
