<svg width="159" height="21" viewBox="0 0 159 21" fill="none" xmlns="http://www.w3.org/2000/svg">
<path d="M0 21V0.0336532H7.74419C9.42866 0.0336532 10.8178 0.314102 11.9116 0.874999C13.0054 1.4359 13.8149 2.1875 14.3399 3.12981C14.8868 4.04968 15.1602 5.07051 15.1602 6.19231C15.1602 7.3141 14.8868 8.33494 14.3399 9.25481C13.793 10.1747 12.9836 10.9038 11.9116 11.4423C10.8616 11.9583 9.52711 12.2163 7.90826 12.2163H3.83928V21H0ZM3.83928 9.05289H7.64575C8.84894 9.05289 9.75681 8.79487 10.3693 8.27884C11.0038 7.74038 11.321 7.04487 11.321 6.19231C11.321 5.36218 11.0038 4.67788 10.3693 4.13942C9.75681 3.60096 8.85988 3.33173 7.67856 3.33173H3.83928V9.05289Z" fill="#2D2D2D"/>
<path d="M35.9846 21V0.0336532H43.3022C45.9054 0.0336532 47.8196 0.605769 49.0447 1.75C50.2916 2.87179 50.9151 4.35256 50.9151 6.19231C50.9151 7.02244 50.7291 7.83013 50.3572 8.61538C50.0072 9.37821 49.5041 10.0513 48.8478 10.6346C48.2134 11.2179 47.4586 11.6442 46.5836 11.9135L51.5386 21H47.4696L42.8099 12.3173H39.791V21H35.9846ZM39.791 9.12019H43.5319C44.7351 9.12019 45.621 8.86218 46.1898 8.34615C46.7805 7.83013 47.0758 7.14583 47.0758 6.29327C47.0758 5.46314 46.7805 4.76763 46.1898 4.20673C45.5992 3.6234 44.7022 3.33173 43.499 3.33173H39.791V9.12019Z" fill="#2D2D2D"/>
<path d="M72.9535 21V17.8702H77.4163V3.16346H73.1832V0.0336532H85.4558V3.16346H80.993V17.9038H85.6527V21H72.9535Z" fill="#2D2D2D"/>
<path d="M107.658 21V0.0336532H110.973L115.567 9.65865L120.161 0H123.442V21H120.128V6.22596L116.354 14.0337H114.517L110.94 6.25962V21H107.658Z" fill="#2D2D2D"/>
<path d="M144.398 21V0.0336532H159V3.16346H148.04V8.51442H157.097V11.6442H148.04V17.8702H158.934V21H144.398Z" fill="#2D2D2D"/>
</svg>
