<svg width="223" height="50" viewBox="0 0 223 50" fill="none" xmlns="http://www.w3.org/2000/svg">
<path d="M64 34V13.0337H71.7442C73.4287 13.0337 74.8178 13.3141 75.9116 13.875C77.0054 14.4359 77.8149 15.1875 78.3399 16.1298C78.8868 17.0497 79.1602 18.0705 79.1602 19.1923C79.1602 20.3141 78.8868 21.3349 78.3399 22.2548C77.793 23.1747 76.9836 23.9038 75.9116 24.4423C74.8616 24.9583 73.5271 25.2163 71.9083 25.2163H67.8393V34H64ZM67.8393 22.0529H71.6457C72.8489 22.0529 73.7568 21.7949 74.3693 21.2788C75.0038 20.7404 75.321 20.0449 75.321 19.1923C75.321 18.3622 75.0038 17.6779 74.3693 17.1394C73.7568 16.601 72.8599 16.3317 71.6786 16.3317H67.8393V22.0529Z" fill="#FFF"/>
<path d="M99.9846 34V13.0337H107.302C109.905 13.0337 111.82 13.6058 113.045 14.75C114.292 15.8718 114.915 17.3526 114.915 19.1923C114.915 20.0224 114.729 20.8301 114.357 21.6154C114.007 22.3782 113.504 23.0513 112.848 23.6346C112.213 24.2179 111.459 24.6442 110.584 24.9135L115.539 34H111.47L106.81 25.3173H103.791V34H99.9846ZM103.791 22.1202H107.532C108.735 22.1202 109.621 21.8622 110.19 21.3462C110.78 20.8301 111.076 20.1458 111.076 19.2933C111.076 18.4631 110.78 17.7676 110.19 17.2067C109.599 16.6234 108.702 16.3317 107.499 16.3317H103.791V22.1202Z" fill="#FFF"/>
<path d="M136.954 34V30.8702H141.416V16.1635H137.183V13.0337H149.456V16.1635H144.993V30.9038H149.653V34H136.954Z" fill="#FFF"/>
<path d="M171.658 34V13.0337H174.973L179.567 22.6587L184.161 13H187.442V34H184.128V19.226L180.354 27.0337H178.517L174.94 19.2596V34H171.658Z" fill="#FFF"/>
<path d="M208.398 34V13.0337H223V16.1635H212.04V21.5144H221.097V24.6442H212.04V30.8702H222.934V34H208.398Z" fill="#FFF"/>
<path d="M34.76 34.76C35.2162 34.76 35.6537 34.5788 35.9763 34.2562C36.2988 33.9337 36.48 33.4962 36.48 33.04V22.72C36.48 18.6144 34.8491 14.6771 31.946 11.774C29.043 8.87093 25.1056 7.24001 21 7.24001C16.8945 7.24001 12.9571 8.87093 10.054 11.774C7.15095 14.6771 5.52002 18.6144 5.52002 22.72V33.04C5.52002 33.4962 5.70123 33.9337 6.02379 34.2562C6.34636 34.5788 6.78385 34.76 7.24002 34.76C7.69619 34.76 8.13368 34.5788 8.45625 34.2562C8.77881 33.9337 8.96002 33.4962 8.96002 33.04V22.72C8.96002 19.5268 10.2285 16.4644 12.4865 14.2064C14.7444 11.9485 17.8068 10.68 21 10.68C24.1932 10.68 27.2557 11.9485 29.5136 14.2064C31.7715 16.4644 33.04 19.5268 33.04 22.72V33.04C33.04 33.4962 33.2212 33.9337 33.5438 34.2562C33.8664 34.5788 34.3039 34.76 34.76 34.76Z" fill="#FFF"/>
<path d="M27.8799 38.2C28.3361 38.2 28.7736 38.0188 29.0961 37.6962C29.4187 37.3737 29.5999 36.9362 29.5999 36.48V22.72C29.5999 20.4391 28.6938 18.2517 27.081 16.6389C25.4682 15.0261 23.2808 14.12 20.9999 14.12C18.719 14.12 16.5316 15.0261 14.9188 16.6389C13.306 18.2517 12.3999 20.4391 12.3999 22.72V36.48C12.3999 36.9362 12.5811 37.3737 12.9037 37.6962C13.2262 38.0188 13.6637 38.2 14.1199 38.2C14.5761 38.2 15.0136 38.0188 15.3361 37.6962C15.6587 37.3737 15.8399 36.9362 15.8399 36.48V22.72C15.8399 21.3515 16.3835 20.039 17.3512 19.0713C18.3189 18.1036 19.6314 17.56 20.9999 17.56C22.3684 17.56 23.6809 18.1036 24.6486 19.0713C25.6163 20.039 26.1599 21.3515 26.1599 22.72V36.48C26.1599 36.9362 26.3411 37.3737 26.6637 37.6962C26.9862 38.0188 27.4237 38.2 27.8799 38.2Z" fill="#FFF"/>
<path d="M19.28 22.72V39.92C19.28 40.3762 19.4612 40.8137 19.7838 41.1362C20.1064 41.4588 20.5439 41.64 21 41.64C21.4562 41.64 21.8937 41.4588 22.2163 41.1362C22.5388 40.8137 22.72 40.3762 22.72 39.92V22.72C22.72 22.2638 22.5388 21.8263 22.2163 21.5038C21.8937 21.1812 21.4562 21 21 21C20.5439 21 20.1064 21.1812 19.7838 21.5038C19.4612 21.8263 19.28 22.2638 19.28 22.72Z" fill="#FFF"/>
<path d="M1.39214 15.6938C1.80642 15.8772 2.27635 15.8898 2.69984 15.7288C3.12334 15.5678 3.4662 15.2461 3.65394 14.8338C5.13156 11.4865 7.56778 8.65211 10.655 6.68833C13.7423 4.72456 17.3421 3.71948 21.0001 3.8C24.6553 3.71732 28.253 4.71858 31.34 6.67756C34.4269 8.63655 36.8648 11.4656 38.3463 14.808C38.48 15.1143 38.7001 15.3751 38.9796 15.5583C39.2591 15.7416 39.5859 15.8395 39.9201 15.84C40.1574 15.8421 40.3922 15.7922 40.6081 15.6938C41.0205 15.5061 41.3421 15.1632 41.5031 14.7397C41.6641 14.3162 41.6516 13.8463 41.4681 13.432C37.9765 5.3652 30.1247 0.360001 21.0001 0.360001C11.8755 0.360001 4.02374 5.3652 0.506338 13.432C0.324526 13.8495 0.315675 14.322 0.481724 14.746C0.647773 15.17 0.975172 15.5108 1.39214 15.6938Z" fill="#FFF"/>
</svg>
