<svg width="65" height="80" viewBox="0 0 65 80" fill="none" xmlns="http://www.w3.org/2000/svg">
<g clip-path="url(#clip0)">
<path d="M38.1497 80C38.0679 80 37.9862 80 37.9044 79.9836C37.234 79.8526 36.8088 79.2142 36.9396 78.543C37.7082 74.647 38.9346 72.257 40.7988 71.0456C42.9736 69.6378 45.4918 70.2107 47.7321 70.7018C49.3183 71.062 50.8063 71.4057 52.0981 71.0947C53.5371 70.7673 54.4528 70.0961 54.9271 69.0648C55.7447 67.2314 54.8944 64.7759 54.7145 64.4485C53.9132 63.188 55.4667 61.8948 56.7094 60.8471C57.7233 59.9959 58.7535 59.2428 58.8025 59.2101C59.3422 58.8172 60.1107 58.9318 60.5195 59.4884C60.912 60.0286 60.7975 60.798 60.2415 61.2072C59.0478 62.0748 57.6579 63.2044 57.0856 63.8101C57.5598 65.0705 58.1321 67.5915 57.2491 69.8342C56.7422 71.1274 55.5157 72.8135 52.6378 73.4847C50.8063 73.9103 48.9585 73.4847 47.1761 73.0918C45.1648 72.6335 43.4315 72.2406 42.1233 73.0918C40.8969 73.894 39.9484 75.8911 39.3434 79.0014C39.2453 79.5907 38.722 80 38.1497 80ZM56.7585 63.1225C56.7585 63.1389 56.7749 63.1389 56.7749 63.1553C56.7749 63.1553 56.7749 63.1389 56.7585 63.1225Z" fill="#474747"/>
<path d="M46.6038 72.9283C46.522 72.9283 46.4403 72.9119 46.3585 72.8956L32.8679 70.1127C32.1975 69.9817 31.7723 69.3269 31.9195 68.6557C32.0503 67.9846 32.7044 67.5589 33.3748 67.7063L46.8654 70.4892C47.5358 70.6201 47.961 71.2749 47.8138 71.9461C47.683 72.5354 47.1761 72.9283 46.6038 72.9283Z" fill="#474747"/>
<path d="M55.99 57.7369C55.8101 57.7369 55.6139 57.7369 55.434 57.7041C53.946 57.5732 51.8038 57.4422 51.7875 57.4422C51.117 57.4095 50.5938 56.8202 50.6428 56.149C50.6755 55.4778 51.2642 54.954 51.9347 55.0031C52.0164 55.0031 54.1258 55.1341 55.6466 55.265C57.151 55.396 58.5409 54.6593 59.2114 53.3988C59.2604 53.3006 59.2931 53.2188 59.3258 53.1533C57.8705 51.7946 57.2982 48.9135 57.1837 48.3405C57.0856 47.7512 57.4126 47.1782 57.985 46.9654C59.4076 46.458 61.8931 45.1811 62.4655 43.937C62.5799 43.6751 62.5963 43.4459 62.4982 43.2003C62.1711 42.3491 60.6667 40.6303 59.0969 38.7968C55.3032 34.4097 50.5774 28.9585 51.1661 24.3421C51.2479 23.671 51.8692 23.1962 52.5397 23.2781C53.2101 23.3599 53.6843 23.982 53.6026 24.6532C53.1447 28.1891 57.6579 33.3947 60.9447 37.1926C62.8252 39.3698 64.3133 41.0723 64.7875 42.3164C65.1145 43.184 65.0818 44.1007 64.6894 44.9683C63.8227 46.8836 61.2881 48.2259 59.8328 48.8807C60.1108 49.8957 60.5686 51.0416 61.0592 51.4181C61.4843 51.7455 62.351 52.7277 61.4026 54.5447C60.3397 56.5255 58.2793 57.7369 55.99 57.7369Z" fill="#474747"/>
<path d="M57.478 29.908C57.2981 29.908 57.1346 29.8752 56.9547 29.7934C56.3333 29.5151 56.0717 28.7785 56.366 28.1564C59.6528 21.0518 59.7509 14.6348 56.6604 9.06903C54.3547 4.92743 51.1006 2.84844 51.0679 2.8157C50.4956 2.45556 50.3157 1.70255 50.6755 1.1296C51.0352 0.556648 51.7874 0.376578 52.3598 0.736717C52.5069 0.834937 56.1862 3.17584 58.7862 7.87402C61.1899 12.1957 63.1031 19.4148 58.5736 29.1877C58.3937 29.6461 57.9522 29.908 57.478 29.908Z" fill="#474747"/>
<path d="M28.0277 49.159C27.5535 49.159 27.0956 48.8644 26.8994 48.406C26.6378 47.7839 26.9321 47.0637 27.5698 46.8017C33.3422 44.4281 38.2642 41.2687 42.1887 37.4545C45.312 34.4097 47.8139 30.9393 49.6453 27.1087C52.7359 20.6262 52.7522 15.4205 52.7522 15.3714C52.7522 14.7003 53.2918 14.1437 53.9786 14.1437C54.6491 14.1437 55.205 14.7003 55.205 15.3714C55.205 15.6006 55.1723 21.1991 51.8528 28.1727C49.9069 32.2489 47.2252 35.9648 43.9057 39.2225C39.7522 43.2658 34.5686 46.5726 28.5019 49.0772C28.3547 49.1263 28.1912 49.159 28.0277 49.159Z" fill="#474747"/>
<path d="M20.5057 40.6957H20.1459C17.7094 40.6957 15.7145 38.6986 15.7145 36.2595C15.7145 35.4246 15.2566 34.7534 14.488 34.426C13.7195 34.115 12.9182 34.2623 12.3296 34.8516C11.4956 35.6865 10.3836 36.1449 9.18994 36.1449C8.01258 36.1449 6.90063 35.6865 6.05031 34.8516L5.80503 34.6061C4.97107 33.7712 4.51321 32.6581 4.51321 31.4631C4.51321 30.2844 4.97107 29.1713 5.80503 28.32C6.39371 27.7307 6.55723 26.9286 6.23019 26.1592C5.9195 25.3898 5.2327 24.9315 4.39874 24.9315C1.99497 24.9642 0 22.9671 0 20.5279V20.1678C0 17.7287 1.99497 15.7315 4.43145 15.7315C5.26541 15.7315 5.93585 15.2732 6.26289 14.5038C6.57358 13.7344 6.42641 12.9323 5.83774 12.343C5.00377 11.5081 4.54591 10.3949 4.54591 9.19992C4.54591 8.02128 5.00377 6.90812 5.83774 6.05689L6.08302 5.81134C6.91698 4.97647 8.02893 4.51811 9.22264 4.51811C10.4 4.51811 11.5119 4.97647 12.3623 5.81134C12.9509 6.40065 13.7522 6.56435 14.5208 6.23696C15.2893 5.92593 15.7472 5.23839 15.7472 4.40352C15.7145 1.99714 17.7094 0 20.1459 0H20.5057C22.9421 0 24.9371 1.99714 24.9371 4.43626C24.9371 5.27113 25.395 5.9423 26.1635 6.26969C26.9321 6.58072 27.7333 6.43339 28.322 5.84408C29.156 5.00921 30.2679 4.55085 31.4616 4.55085C32.639 4.55085 33.7509 5.00921 34.6013 5.84408L34.8465 6.08963C35.6805 6.92449 36.1384 8.03765 36.1384 9.23266C36.1384 10.4113 35.6805 11.5245 34.8465 12.3757C34.2579 12.965 34.0943 13.7671 34.4214 14.5365C34.7321 15.3059 35.4189 15.7643 36.2528 15.7643C38.6893 15.7643 40.6843 17.7614 40.6843 20.2005V20.5607C40.6843 22.9998 38.6893 24.9969 36.2528 24.9969C35.4189 24.9969 34.7484 25.4553 34.4214 26.2247C34.1107 26.9941 34.2579 27.7962 34.8465 28.3855C35.6805 29.2204 36.1384 30.3335 36.1384 31.5285C36.1384 32.7072 35.6805 33.8203 34.8465 34.6716L34.6013 34.9171C32.8679 36.6523 30.0717 36.6523 28.3384 34.9171C27.7497 34.3278 26.9484 34.1641 26.1799 34.4915C25.4113 34.8025 24.9535 35.4901 24.9535 36.3249C24.9371 38.6986 22.9421 40.6957 20.5057 40.6957ZM13.7195 31.8068C14.2918 31.8068 14.8805 31.9214 15.4365 32.1506C17.1208 32.8545 18.1673 34.426 18.1673 36.2431C18.1673 37.3399 19.0503 38.2239 20.1459 38.2239H20.5057C21.6013 38.2239 22.4843 37.3399 22.4843 36.2431C22.4843 34.4097 23.5308 32.8381 25.2151 32.1506C26.8994 31.4467 28.7472 31.8232 30.039 33.1164C30.4151 33.4929 30.9057 33.6894 31.4289 33.6894C31.9522 33.6894 32.4591 33.4766 32.8189 33.1164L33.0641 32.8709C33.8327 32.1015 33.8327 30.841 33.0641 30.0716C31.7723 28.7784 31.4126 26.9286 32.0994 25.2425C32.8025 23.5564 34.3723 22.5087 36.1874 22.5087C37.283 22.5087 38.166 21.6247 38.166 20.5279V20.1678C38.166 19.071 37.283 18.187 36.1874 18.187C34.356 18.187 32.7862 17.1393 32.0994 15.4532C31.3962 13.7671 31.7723 11.9173 33.0641 10.6241C33.8327 9.85472 33.8327 8.59423 33.0641 7.82484L32.8189 7.57929C32.0503 6.8099 30.7912 6.8099 30.0226 7.57929C28.7308 8.87252 26.883 9.23266 25.1987 8.54512C23.5145 7.84121 22.4679 6.2697 22.4679 4.45263C22.4679 3.35584 21.5849 2.47186 20.4893 2.47186H20.1296C19.034 2.47186 18.1509 3.35584 18.1509 4.45263C18.1509 6.28607 17.1044 7.85758 15.4201 8.54512C13.7358 9.24903 11.8881 8.87252 10.5962 7.57929C9.82767 6.8099 8.56855 6.8099 7.8 7.57929L7.55472 7.82484C6.78616 8.59423 6.78616 9.85472 7.55472 10.6241C8.84654 11.9173 9.20629 13.7671 8.5195 15.4532C7.81635 17.1393 6.24654 18.187 4.43145 18.187C3.33585 18.187 2.45283 19.071 2.45283 20.1678V20.5279C2.45283 21.6247 3.33585 22.5087 4.43145 22.5087C6.26289 22.5087 7.8327 23.5564 8.5195 25.2425C9.22264 26.9286 8.84654 28.7784 7.55472 30.0716C6.78616 30.841 6.78616 32.1015 7.55472 32.8709L7.8 33.1164C8.56855 33.8858 9.82767 33.8858 10.5962 33.1164C11.4629 32.2652 12.5748 31.8068 13.7195 31.8068Z" fill="#474747"/>
<path d="M20.3258 27.4198C16.4339 27.4198 13.2616 24.244 13.2616 20.3479C13.2616 16.4519 16.4339 13.2761 20.3258 13.2761C24.2176 13.2761 27.3899 16.4519 27.3899 20.3479C27.3899 24.244 24.2176 27.4198 20.3258 27.4198ZM20.3258 15.7316C17.7912 15.7316 15.7144 17.7942 15.7144 20.3479C15.7144 22.8853 17.7748 24.9643 20.3258 24.9643C22.8603 24.9643 24.9371 22.9017 24.9371 20.3479C24.9371 17.8106 22.8603 15.7316 20.3258 15.7316Z" fill="#474747"/>
<path d="M17.9057 51.7455H2.45286C1.78242 51.7455 1.22644 51.189 1.22644 50.5178C1.22644 49.8466 1.78242 49.29 2.45286 49.29H17.9057C18.5761 49.29 19.1321 49.8466 19.1321 50.5178C19.1321 51.2053 18.5761 51.7455 17.9057 51.7455Z" fill="#474747"/>
<path d="M14.6352 58.2444H2.45286C1.78242 58.2444 1.22644 57.6879 1.22644 57.0167C1.22644 56.3455 1.78242 55.7889 2.45286 55.7889H14.6352C15.3057 55.7889 15.8617 56.3455 15.8617 57.0167C15.8617 57.6879 15.3057 58.2444 14.6352 58.2444Z" fill="#474747"/>
<path d="M17.9057 64.7432H2.45286C1.78242 64.7432 1.22644 64.1866 1.22644 63.5155C1.22644 62.8443 1.78242 62.2877 2.45286 62.2877H17.9057C18.5761 62.2877 19.1321 62.8443 19.1321 63.5155C19.1321 64.203 18.5761 64.7432 17.9057 64.7432Z" fill="#474747"/>
<path d="M9.72959 71.2422H2.45286C1.78242 71.2422 1.22644 70.6857 1.22644 70.0145C1.22644 69.3433 1.78242 68.7867 2.45286 68.7867H9.72959C10.4 68.7867 10.956 69.3433 10.956 70.0145C10.956 70.702 10.4 71.2422 9.72959 71.2422Z" fill="#474747"/>
</g>
<defs>
<clipPath id="clip0">
<rect width="65" height="80" fill="white"/>
</clipPath>
</defs>
</svg>
