<svg width="80" height="83" viewBox="0 0 80 83" fill="none" xmlns="http://www.w3.org/2000/svg">
<path d="M40.1602 61.9202H39.806C37.3097 61.9202 35.2856 59.9157 35.2856 57.4436C35.2856 56.6251 34.8302 55.9403 34.0543 55.6229C33.2785 55.3056 32.4689 55.4726 31.8785 56.0572C30.1243 57.7944 27.257 57.7944 25.4859 56.0572L25.2329 55.8067C23.4788 54.0695 23.4788 51.2299 25.2329 49.476C25.8233 48.8914 25.9751 48.0896 25.6715 47.3213C25.351 46.5529 24.6595 46.1019 23.833 46.1019C21.3367 46.1019 19.3126 44.0975 19.3126 41.6253V41.2746C19.3126 38.8024 21.3367 36.798 23.833 36.798C24.6595 36.798 25.351 36.347 25.6715 35.5787C25.9919 34.8103 25.8233 34.0085 25.2329 33.4239C23.4788 31.6867 23.4788 28.8471 25.2329 27.0932L25.4859 26.8427C27.2401 25.1055 30.1075 25.1055 31.8785 26.8427C32.4689 27.4273 33.2785 27.5776 34.0543 27.277C34.8302 26.9596 35.2856 26.2748 35.2856 25.4563C35.2856 22.9842 37.3097 20.9797 39.806 20.9797H40.1602C42.6565 20.9797 44.6805 22.9842 44.6805 25.4563C44.6805 26.2748 45.1359 26.9596 45.9118 27.277C46.6877 27.5943 47.4973 27.4273 48.0877 26.8427C48.9479 25.9908 50.078 25.5398 51.2755 25.5398C52.4899 25.5398 53.62 26.0075 54.4634 26.8427L54.7164 27.0932C55.5766 27.9451 56.032 29.0643 56.032 30.2502C56.032 31.4529 55.5597 32.572 54.7164 33.4072C54.126 33.9918 53.9742 34.7936 54.2778 35.5619C54.5983 36.3303 55.2899 36.7813 56.1163 36.7813C58.6127 36.7813 60.6367 38.7857 60.6367 41.2579V41.6086C60.6367 44.0808 58.6127 46.0852 56.1163 46.0852C55.2899 46.0852 54.5983 46.5362 54.2778 47.3046C53.9574 48.0729 54.126 48.8747 54.7164 49.4593C55.5766 50.3112 56.032 51.4303 56.032 52.6163C56.032 53.8189 55.5597 54.9381 54.7164 55.7733L54.4634 56.0238C53.6032 56.8757 52.4731 57.3267 51.2755 57.3267C50.0611 57.3267 48.931 56.859 48.0877 56.0238C47.4973 55.4392 46.6877 55.2888 45.9118 55.5895C45.1359 55.9069 44.6805 56.5917 44.6805 57.4102C44.6637 59.899 42.6396 61.9202 40.1602 61.9202ZM33.2616 52.9504C33.8519 52.9504 34.4423 53.0673 35.0158 53.3011C36.7362 54.0027 37.7988 55.5895 37.7988 57.4436C37.7988 58.5293 38.6928 59.4146 39.7891 59.4146H40.1433C41.2397 59.4146 42.1336 58.5293 42.1336 57.4436C42.1336 55.6062 43.1962 54.0194 44.9167 53.3011C46.6371 52.5996 48.5262 52.9671 49.8418 54.2699C50.2129 54.6374 50.7189 54.8546 51.2418 54.8546C51.7815 54.8546 52.2707 54.6541 52.6417 54.2699L52.8947 54.0194C53.2658 53.6519 53.4851 53.1508 53.4851 52.633C53.4851 52.0985 53.2827 51.6141 52.8947 51.2466C51.5791 49.9437 51.208 48.0729 51.9165 46.3692C52.6249 44.6654 54.2272 43.6131 56.0995 43.6131C57.1958 43.6131 58.0898 42.7278 58.0898 41.642V41.2913C58.0898 40.2055 57.1958 39.3202 56.0995 39.3202C54.2441 39.3202 52.6417 38.2679 51.9165 36.5642C51.208 34.8604 51.5791 32.9896 52.8947 31.6867C53.2658 31.3192 53.4851 30.8181 53.4851 30.3003C53.4851 29.7825 53.2827 29.2814 52.8947 28.9139L52.6417 28.6634C52.2707 28.2959 51.7647 28.0788 51.2418 28.0788C50.702 28.0788 50.2129 28.2792 49.8418 28.6634C48.5262 29.9663 46.6371 30.3337 44.9167 29.6322C43.1962 28.9306 42.1336 27.3438 42.1336 25.4897C42.1336 24.404 41.2397 23.5187 40.1433 23.5187H39.7891C38.6928 23.5187 37.7988 24.404 37.7988 25.4897C37.7988 27.3271 36.7362 28.9139 35.0158 29.6322C33.2953 30.3337 31.4062 29.9663 30.0906 28.6634C29.3147 27.895 28.0497 27.895 27.2738 28.6634L27.0208 28.9139C26.2449 29.6823 26.2449 30.9351 27.0208 31.7034C28.3364 33.0063 28.7075 34.8771 27.9991 36.5809C27.2907 38.2846 25.6883 39.337 23.8161 39.337C22.7197 39.337 21.8258 40.2222 21.8258 41.308V41.6587C21.8258 42.7445 22.7197 43.6298 23.8161 43.6298C25.6715 43.6298 27.2738 44.6821 27.9991 46.3859C28.7075 48.0896 28.3364 49.9604 27.0208 51.2633C26.2449 52.0317 26.2449 53.2844 27.0208 54.0528L27.2738 54.3033C28.0497 55.0717 29.3147 55.0717 30.0906 54.3033C30.9677 53.4014 32.0978 52.9504 33.2616 52.9504Z" fill="#474747"/>
<path d="M39.9746 48.5741C36.0109 48.5741 32.7893 45.3837 32.7893 41.4584C32.7893 37.533 36.0109 34.3427 39.9746 34.3427C43.9384 34.3427 47.16 37.533 47.16 41.4584C47.16 45.367 43.9384 48.5741 39.9746 48.5741ZM39.9746 36.8315C37.4109 36.8315 35.3194 38.9027 35.3194 41.4417C35.3194 43.9806 37.4109 46.0519 39.9746 46.0519C42.5384 46.0519 44.6299 43.9806 44.6299 41.4417C44.6299 38.9027 42.5384 36.8315 39.9746 36.8315Z" fill="#474747"/>
<path d="M3.94691 8.15138C3.25536 8.15138 2.68188 7.58346 2.68188 6.89861V2.30514C2.68188 1.62029 3.25536 1.05237 3.94691 1.05237C4.63845 1.05237 5.21193 1.62029 5.21193 2.30514V6.89861C5.21193 7.58346 4.65532 8.15138 3.94691 8.15138Z" fill="#474747"/>
<path d="M3.94691 32.7056C3.25536 32.7056 2.68188 32.1377 2.68188 31.4528V26.8593C2.68188 26.1745 3.25536 25.6066 3.94691 25.6066C4.63845 25.6066 5.21193 26.1745 5.21193 26.8593V31.4528C5.21193 32.1544 4.65532 32.7056 3.94691 32.7056Z" fill="#474747"/>
<path d="M3.94691 44.9994C3.25536 44.9994 2.68188 44.4315 2.68188 43.7466V39.1532C2.68188 38.4683 3.25536 37.9004 3.94691 37.9004C4.63845 37.9004 5.21193 38.4683 5.21193 39.1532V43.7466C5.21193 44.4315 4.65532 44.9994 3.94691 44.9994Z" fill="#474747"/>
<path d="M3.94691 81.8474C3.25536 81.8474 2.68188 81.2795 2.68188 80.5947V76.0012C2.68188 75.3163 3.25536 74.7484 3.94691 74.7484C4.63845 74.7484 5.21193 75.3163 5.21193 76.0012V80.5947C5.21193 81.2795 4.65532 81.8474 3.94691 81.8474Z" fill="#474747"/>
<path d="M3.94687 21.5476C1.77103 21.5476 0 19.894 0 17.8728V15.8851C0 13.864 1.77103 12.2103 3.94687 12.2103C6.12271 12.2103 7.89374 13.864 7.89374 15.8851V17.8561C7.91061 19.894 6.12271 21.5476 3.94687 21.5476ZM3.94687 14.7159C3.17099 14.7159 2.53004 15.2337 2.53004 15.8851V17.8561C2.53004 18.5076 3.17099 19.0254 3.94687 19.0254C4.72275 19.0254 5.36369 18.5076 5.36369 17.8561V15.8851C5.38056 15.2504 4.73962 14.7159 3.94687 14.7159Z" fill="#474747"/>
<path d="M3.94687 58.3957C1.77103 58.3957 0 56.742 0 54.7209V52.7499C0 50.7287 1.77103 49.0751 3.94687 49.0751C6.12271 49.0751 7.89374 50.7287 7.89374 52.7499V54.7209C7.91061 56.742 6.12271 58.3957 3.94687 58.3957ZM3.94687 51.5806C3.17099 51.5806 2.53004 52.0984 2.53004 52.7499V54.7209C2.53004 55.3723 3.17099 55.8901 3.94687 55.8901C4.72275 55.8901 5.36369 55.3723 5.36369 54.7209V52.7499C5.38056 52.0984 4.73962 51.5806 3.94687 51.5806Z" fill="#474747"/>
<path d="M3.94687 70.6728C1.77103 70.6728 0 69.0191 0 66.998V65.027C0 63.0058 1.77103 61.3522 3.94687 61.3522C6.12271 61.3522 7.89374 63.0058 7.89374 65.027V66.998C7.91061 69.0191 6.12271 70.6728 3.94687 70.6728ZM3.94687 63.8577C3.17099 63.8577 2.53004 64.3755 2.53004 65.027V66.998C2.53004 67.6494 3.17099 68.1672 3.94687 68.1672C4.72275 68.1672 5.36369 67.6494 5.36369 66.998V65.027C5.38056 64.3755 4.73962 63.8577 3.94687 63.8577Z" fill="#474747"/>
<path d="M21.9777 69.5703C21.2861 69.5703 20.7126 69.0024 20.7126 68.3176V63.7241C20.7126 63.0392 21.2861 62.4713 21.9777 62.4713C22.6692 62.4713 23.2427 63.0392 23.2427 63.7241V68.3176C23.2427 69.0024 22.6692 69.5703 21.9777 69.5703Z" fill="#474747"/>
<path d="M21.9777 8.15138C21.2861 8.15138 20.7126 7.58346 20.7126 6.89861V2.30514C20.7126 1.62029 21.2861 1.05237 21.9777 1.05237C22.6692 1.05237 23.2427 1.62029 23.2427 2.30514V6.89861C23.2427 7.58346 22.6692 8.15138 21.9777 8.15138Z" fill="#474747"/>
<path d="M21.9776 58.3956C19.8018 58.3956 18.0308 56.742 18.0308 54.7209V52.7498C18.0308 52.065 18.6042 51.4971 19.2958 51.4971C19.9873 51.4971 20.5608 52.065 20.5608 52.7498V54.7209C20.5608 55.3723 21.2017 55.8901 21.9776 55.8901C22.6692 55.8901 23.2426 56.458 23.2426 57.1429C23.2426 57.8277 22.6692 58.3956 21.9776 58.3956Z" fill="#474747"/>
<path d="M58.0223 58.3956C57.3308 58.3956 56.7573 57.8277 56.7573 57.1429C56.7573 56.458 57.3308 55.8901 58.0223 55.8901C58.7982 55.8901 59.4392 55.3723 59.4392 54.7209V52.7498C59.4392 52.065 60.0126 51.4971 60.7042 51.4971C61.3957 51.4971 61.9692 52.065 61.9692 52.7498V54.7209C61.9861 56.742 60.1982 58.3956 58.0223 58.3956Z" fill="#474747"/>
<path d="M19.2958 31.4027C18.6042 31.4027 18.0308 30.8348 18.0308 30.15V28.1789C18.0308 26.1578 19.8018 24.5042 21.9776 24.5042C22.6692 24.5042 23.2426 25.0721 23.2426 25.7569C23.2426 26.4418 22.6692 27.0097 21.9776 27.0097C21.2017 27.0097 20.5608 27.5275 20.5608 28.1789V30.15C20.5608 30.8348 19.9873 31.4027 19.2958 31.4027Z" fill="#474747"/>
<path d="M21.9776 21.5476C19.8018 21.5476 18.0308 19.894 18.0308 17.8728V15.8851C18.0308 13.864 19.8018 12.2103 21.9776 12.2103C24.1535 12.2103 25.9245 13.864 25.9245 15.8851V17.8561C25.9245 19.894 24.1535 21.5476 21.9776 21.5476ZM21.9776 14.7159C21.2017 14.7159 20.5608 15.2337 20.5608 15.8851V17.8561C20.5608 18.5076 21.2017 19.0254 21.9776 19.0254C22.7535 19.0254 23.3944 18.5076 23.3944 17.8561V15.8851C23.3944 15.2504 22.7535 14.7159 21.9776 14.7159Z" fill="#474747"/>
<path d="M39.9747 20.4285C39.2832 20.4285 38.7097 19.8606 38.7097 19.1757V14.5822C38.7097 13.8974 39.2832 13.3295 39.9747 13.3295C40.6663 13.3295 41.2397 13.8974 41.2397 14.5822V19.1757C41.2397 19.8606 40.6663 20.4285 39.9747 20.4285Z" fill="#474747"/>
<path d="M39.9747 81.8474C39.2832 81.8474 38.7097 81.2795 38.7097 80.5947V76.0012C38.7097 75.3163 39.2832 74.7484 39.9747 74.7484C40.6663 74.7484 41.2397 75.3163 41.2397 76.0012V80.5947C41.2397 81.2795 40.6663 81.8474 39.9747 81.8474Z" fill="#474747"/>
<path d="M39.9747 69.5703C39.2832 69.5703 38.7097 69.0024 38.7097 68.3175V65.7452C38.7097 65.0604 39.2832 64.4924 39.9747 64.4924C40.6663 64.4924 41.2397 65.0604 41.2397 65.7452V68.3175C41.2397 69.0024 40.6663 69.5703 39.9747 69.5703Z" fill="#474747"/>
<path d="M21.9608 83C19.7849 83 18.0139 81.3464 18.0139 79.3252V77.3542C18.0139 75.3331 19.7849 73.6794 21.9608 73.6794C24.1366 73.6794 25.9077 75.3331 25.9077 77.3542V79.3252C25.9245 81.3464 24.1366 83 21.9608 83ZM21.9608 76.185C21.1849 76.185 20.544 76.7028 20.544 77.3542V79.3252C20.544 79.9767 21.1849 80.4945 21.9608 80.4945C22.7367 80.4945 23.3776 79.9767 23.3776 79.3252V77.3542C23.3945 76.7028 22.7535 76.185 21.9608 76.185Z" fill="#474747"/>
<path d="M58.0223 8.15138C57.3308 8.15138 56.7573 7.58346 56.7573 6.89861V2.30514C56.7573 1.62029 57.3308 1.05237 58.0223 1.05237C58.7139 1.05237 59.2874 1.62029 59.2874 2.30514V6.89861C59.2874 7.58346 58.7308 8.15138 58.0223 8.15138Z" fill="#474747"/>
<path d="M58.0223 20.4285C57.3308 20.4285 56.7573 19.8606 56.7573 19.1757V14.5822C56.7573 13.8974 57.3308 13.3295 58.0223 13.3295C58.7139 13.3295 59.2874 13.8974 59.2874 14.5822V19.1757C59.2874 19.8606 58.7308 20.4285 58.0223 20.4285Z" fill="#474747"/>
<path d="M58.0223 81.8474C57.3308 81.8474 56.7573 81.2795 56.7573 80.5947V76.0012C56.7573 75.3163 57.3308 74.7484 58.0223 74.7484C58.7139 74.7484 59.2874 75.3163 59.2874 76.0012V80.5947C59.2874 81.2795 58.7308 81.8474 58.0223 81.8474Z" fill="#474747"/>
<path d="M60.721 31.4027C60.0295 31.4027 59.456 30.8348 59.456 30.15V28.1789C59.456 27.5275 58.8151 27.0097 58.0392 27.0097C57.3476 27.0097 56.7742 26.4418 56.7742 25.7569C56.7742 25.0721 57.3476 24.5042 58.0392 24.5042C60.215 24.5042 61.986 26.1578 61.986 28.1789V30.15C61.986 30.8348 61.4126 31.4027 60.721 31.4027Z" fill="#474747"/>
<path d="M58.0223 70.6728C55.8465 70.6728 54.0754 69.0191 54.0754 66.998V65.027C54.0754 63.0058 55.8465 61.3522 58.0223 61.3522C60.1981 61.3522 61.9692 63.0058 61.9692 65.027V66.998C61.986 69.0191 60.1981 70.6728 58.0223 70.6728ZM58.0223 63.8577C57.2464 63.8577 56.6055 64.3755 56.6055 65.027V66.998C56.6055 67.6494 57.2464 68.1672 58.0223 68.1672C58.7982 68.1672 59.4391 67.6494 59.4391 66.998V65.027C59.456 64.3755 58.8151 63.8577 58.0223 63.8577Z" fill="#474747"/>
<path d="M76.0531 20.4285C75.3616 20.4285 74.7881 19.8606 74.7881 19.1757V14.5822C74.7881 13.8974 75.3616 13.3295 76.0531 13.3295C76.7446 13.3295 77.3181 13.8974 77.3181 14.5822V19.1757C77.3181 19.8606 76.7446 20.4285 76.0531 20.4285Z" fill="#474747"/>
<path d="M76.0531 44.9994C75.3616 44.9994 74.7881 44.4315 74.7881 43.7466V39.1532C74.7881 38.4683 75.3616 37.9004 76.0531 37.9004C76.7446 37.9004 77.3181 38.4683 77.3181 39.1532V43.7466C77.3181 44.4315 76.7446 44.9994 76.0531 44.9994Z" fill="#474747"/>
<path d="M76.0531 81.8474C75.3616 81.8474 74.7881 81.2795 74.7881 80.5947V76.0012C74.7881 75.3163 75.3616 74.7484 76.0531 74.7484C76.7446 74.7484 77.3181 75.3163 77.3181 76.0012V80.5947C77.3181 81.2795 76.7446 81.8474 76.0531 81.8474Z" fill="#474747"/>
<path d="M76.0532 33.8247C73.8774 33.8247 72.1063 32.1711 72.1063 30.15V28.1789C72.1063 26.1578 73.8774 24.5042 76.0532 24.5042C78.229 24.5042 80.0001 26.1578 80.0001 28.1789V30.15C80.0001 32.1711 78.229 33.8247 76.0532 33.8247ZM76.0532 27.0097C75.2773 27.0097 74.6364 27.5275 74.6364 28.1789V30.15C74.6364 30.8014 75.2773 31.3192 76.0532 31.3192C76.8291 31.3192 77.47 30.8014 77.47 30.15V28.1789C77.47 27.5275 76.8291 27.0097 76.0532 27.0097Z" fill="#474747"/>
<path d="M76.0532 9.32059C73.8774 9.32059 72.1063 7.66693 72.1063 5.6458V3.67478C72.1063 1.65365 73.8774 0 76.0532 0C78.229 0 80.0001 1.65365 80.0001 3.67478V5.6458C80.0001 7.66693 78.229 9.32059 76.0532 9.32059ZM76.0532 2.50553C75.2773 2.50553 74.6364 3.02334 74.6364 3.67478V5.6458C74.6364 6.29724 75.2773 6.81505 76.0532 6.81505C76.8291 6.81505 77.47 6.29724 77.47 5.6458V3.67478C77.47 3.02334 76.8291 2.50553 76.0532 2.50553Z" fill="#474747"/>
<path d="M39.9916 9.32059C37.8157 9.32059 36.0447 7.66693 36.0447 5.6458V3.67478C36.0447 1.65365 37.8157 0 39.9916 0C42.1674 0 43.9384 1.65365 43.9384 3.67478V5.6458C43.9384 7.66693 42.1674 9.32059 39.9916 9.32059ZM39.9916 2.50553C39.2157 2.50553 38.5747 3.02334 38.5747 3.67478V5.6458C38.5747 6.29724 39.2157 6.81505 39.9916 6.81505C40.7674 6.81505 41.4084 6.29724 41.4084 5.6458V3.67478C41.4084 3.02334 40.7843 2.50553 39.9916 2.50553Z" fill="#474747"/>
<path d="M76.0532 58.3957C73.8774 58.3957 72.1063 56.742 72.1063 54.7209V52.7499C72.1063 50.7287 73.8774 49.0751 76.0532 49.0751C78.229 49.0751 80.0001 50.7287 80.0001 52.7499V54.7209C80.0001 56.742 78.229 58.3957 76.0532 58.3957ZM76.0532 51.5806C75.2773 51.5806 74.6364 52.0984 74.6364 52.7499V54.7209C74.6364 55.3723 75.2773 55.8901 76.0532 55.8901C76.8291 55.8901 77.47 55.3723 77.47 54.7209V52.7499C77.47 52.0984 76.8291 51.5806 76.0532 51.5806Z" fill="#474747"/>
<path d="M76.0532 70.6728C73.8774 70.6728 72.1063 69.0191 72.1063 66.998V65.027C72.1063 63.0058 73.8774 61.3522 76.0532 61.3522C78.229 61.3522 80.0001 63.0058 80.0001 65.027V66.998C80.0001 69.0191 78.229 70.6728 76.0532 70.6728ZM76.0532 63.8577C75.2773 63.8577 74.6364 64.3755 74.6364 65.027V66.998C74.6364 67.6494 75.2773 68.1672 76.0532 68.1672C76.8291 68.1672 77.47 67.6494 77.47 66.998V65.027C77.47 64.3755 76.8291 63.8577 76.0532 63.8577Z" fill="#474747"/>
</svg>
