<svg width="95" height="76" viewBox="0 0 95 76" fill="none" xmlns="http://www.w3.org/2000/svg">
<g clip-path="url(#clip0)">
<path d="M11.3146 35.0694C9.16038 35.0694 7.4137 33.3111 7.4137 31.1424C7.4137 28.9738 9.16038 27.2155 11.3146 27.2155C13.4689 27.2155 15.2155 28.9738 15.2155 31.1424C15.2349 33.3111 13.4689 35.0694 11.3146 35.0694ZM11.3146 30.1265C10.7712 30.1265 10.3248 30.5759 10.3248 31.1229C10.3248 31.67 10.7712 32.1193 11.3146 32.1193C11.858 32.1193 12.3044 31.67 12.3044 31.1229C12.3044 30.5759 11.8774 30.1265 11.3146 30.1265Z" fill="#474747"/>
<path d="M29.1114 23.4839C26.9571 23.4839 25.2104 21.7255 25.2104 19.5569C25.2104 17.3882 26.9377 15.6299 29.1114 15.6299C31.2656 15.6299 33.0123 17.3882 33.0123 19.5569C33.0123 21.7255 31.2656 23.4839 29.1114 23.4839ZM29.1114 18.5605C28.568 18.5605 28.1216 19.0098 28.1216 19.5569C28.1216 20.1039 28.568 20.5533 29.1114 20.5533C29.6548 20.5533 30.1012 20.1039 30.1012 19.5569C30.1012 19.0098 29.6548 18.5605 29.1114 18.5605Z" fill="#474747"/>
<path d="M50.4985 27.7234C48.3442 27.7234 46.5975 25.965 46.5975 23.7964C46.5975 21.6277 48.3442 19.8694 50.4985 19.8694C52.6527 19.8694 54.3994 21.6277 54.3994 23.7964C54.4188 25.965 52.6527 27.7234 50.4985 27.7234ZM50.4985 22.7804C49.955 22.7804 49.5087 23.2298 49.5087 23.7768C49.5087 24.3239 49.955 24.7732 50.4985 24.7732C51.0419 24.7732 51.4882 24.3239 51.4882 23.7768C51.5076 23.2298 51.0419 22.7804 50.4985 22.7804Z" fill="#474747"/>
<path d="M71.808 18.4823C69.6538 18.4823 67.9071 16.7239 67.9071 14.5553C67.9071 12.3867 69.6538 10.6283 71.808 10.6283C73.9623 10.6283 75.7089 12.3867 75.7089 14.5553C75.7089 16.7044 73.9623 18.4823 71.808 18.4823ZM71.808 13.5394C71.2646 13.5394 70.8182 13.9887 70.8182 14.5358C70.8182 15.0828 71.2646 15.5322 71.808 15.5322C72.3514 15.5322 72.7978 15.0828 72.7978 14.5358C72.7978 13.9887 72.3514 13.5394 71.808 13.5394Z" fill="#474747"/>
<path d="M91.099 9.88585C88.9448 9.88585 87.1981 8.12749 87.1981 5.95885C87.1981 3.79022 88.9448 2.03186 91.099 2.03186C93.2533 2.03186 95 3.79022 95 5.95885C95 8.10796 93.2533 9.88585 91.099 9.88585ZM91.099 4.94292C90.5556 4.94292 90.1093 5.39227 90.1093 5.93932C90.1093 6.48636 90.5556 6.93572 91.099 6.93572C91.6424 6.93572 92.0888 6.48636 92.0888 5.93932C92.0888 5.39227 91.6424 4.94292 91.099 4.94292Z" fill="#474747"/>
<path d="M74.2145 15.1414C73.6517 15.1414 73.1277 14.8092 72.8948 14.2817C72.5649 13.5393 72.8948 12.6797 73.6323 12.3475L88.285 5.74395C89.0225 5.41181 89.8764 5.74395 90.2063 6.48636C90.5363 7.22878 90.2064 8.08842 89.4689 8.42055L74.8162 15.0242C74.6027 15.1023 74.4086 15.1414 74.2145 15.1414Z" fill="#474747"/>
<path d="M52.8662 24.0699C52.284 24.0699 51.7406 23.7182 51.5077 23.1517C51.1972 22.4092 51.5659 21.5496 52.3034 21.237L69.0327 14.399C69.7702 14.0864 70.6241 14.4576 70.9347 15.2C71.2452 15.9424 70.8764 16.802 70.139 17.1146L53.4097 23.9527C53.235 24.0308 53.0409 24.0699 52.8662 24.0699Z" fill="#474747"/>
<path d="M47.9949 24.5974C47.9173 24.5974 47.8396 24.5974 47.762 24.5778L31.4014 21.8231C30.6057 21.6863 30.0817 20.9244 30.1982 20.1429C30.334 19.3418 31.0715 18.8143 31.8672 18.9316L48.2278 21.6863C49.0235 21.8231 49.5475 22.585 49.4311 23.3665C49.2952 24.0894 48.6936 24.5974 47.9949 24.5974Z" fill="#474747"/>
<path d="M13.5465 31.162C13.0613 31.162 12.5956 30.9275 12.3239 30.4977C11.8775 29.8139 12.0716 28.9152 12.7508 28.4658L25.9674 19.7913C26.6466 19.3419 27.5394 19.5373 27.9858 20.2211C28.4321 20.9049 28.2381 21.8036 27.5588 22.253L14.3422 30.9275C14.0899 31.0838 13.8182 31.162 13.5465 31.162Z" fill="#474747"/>
<path d="M46.2676 54.9194C41.4545 54.9194 37.5342 50.9728 37.5342 46.1276C37.5342 41.2823 41.4545 37.3358 46.2676 37.3358C51.0807 37.3358 55.001 41.2823 55.001 46.1276C55.001 50.9924 51.0807 54.9194 46.2676 54.9194ZM46.2676 40.2859C43.0653 40.2859 40.4453 42.9039 40.4453 46.1471C40.4453 49.3903 43.0459 52.0083 46.2676 52.0083C49.4698 52.0083 52.0898 49.3903 52.0898 46.1471C52.0898 42.9039 49.4698 40.2859 46.2676 40.2859Z" fill="#474747"/>
<path d="M57.524 60.9173C57.2911 60.9173 57.0582 60.8587 56.8448 60.7415L50.4403 57.3615C49.7222 56.9903 49.4505 56.1111 49.8192 55.3883C50.188 54.6654 51.0807 54.3919 51.7794 54.7631L58.1839 58.143C58.902 58.5142 59.1737 59.3934 58.8049 60.1163C58.5526 60.6243 58.048 60.9173 57.524 60.9173Z" fill="#474747"/>
<path d="M43.0459 75.961H26.3943C24.5505 75.961 23.0367 74.4566 23.0367 72.581C23.0367 69.7091 24.0071 66.8762 25.7926 64.6294L29.3636 60.0967C31.0909 57.9086 33.5168 56.326 36.1951 55.6227L41.3575 54.2942C42.1338 54.0988 42.9295 54.5677 43.1236 55.3492C43.3176 56.1307 42.8519 56.9317 42.0756 57.1271L36.9131 58.4556C34.8365 58.9831 32.9734 60.214 31.6343 61.8942L28.0633 66.4268C26.6854 68.1656 25.9479 70.3538 25.9479 72.5615C25.9479 72.8155 26.142 73.0109 26.3943 73.0109H43.0459C43.7252 73.0109 44.0163 72.6983 44.1328 72.4248C44.2492 72.1708 44.2298 71.8582 44.1134 71.7019C43.8416 71.3893 43.5311 71.1939 43.2594 71.1353L30.2175 70.5882C29.4218 70.5492 28.7814 69.8654 28.8202 69.0643C28.859 68.2633 29.5383 67.6186 30.334 67.6577L43.4535 68.2047C43.4923 68.2047 43.5311 68.2047 43.5894 68.2242C44.5791 68.361 45.5301 68.8885 46.287 69.7677C47.1797 70.7836 47.3738 72.3075 46.7916 73.6361C46.1317 75.1014 44.7344 75.961 43.0459 75.961Z" fill="#474747"/>
<path d="M32.8957 70.2366C32.5852 70.2366 32.2747 70.1389 32.003 69.924C31.3625 69.416 31.2655 68.4978 31.7507 67.8726L34.9141 63.8088C35.4187 63.1641 36.3309 63.0664 36.9519 63.5549C37.5924 64.0628 37.6894 64.9811 37.2042 65.6063L34.0408 69.67C33.7497 70.0412 33.3227 70.2366 32.8957 70.2366Z" fill="#474747"/>
<path d="M73.8846 75.9608H57.9705C57.1747 75.9608 56.5149 75.2966 56.5149 74.4956C56.5149 73.6945 57.1747 73.0303 57.9705 73.0303H73.8846C74.0787 73.0303 74.2534 72.913 74.3116 72.7177L79.2799 56.658V56.6385C79.2799 56.6189 79.2799 56.6189 79.2605 56.6189H60.0276C60.0082 56.6189 60.0082 56.6189 60.0082 56.6385L54.9235 72.0339C54.7294 72.6395 54.1666 73.0303 53.5455 73.0303H46.1318C45.3361 73.0303 44.6763 72.366 44.6763 71.565C44.6763 70.7639 45.3361 70.0997 46.1318 70.0997H52.4975L57.233 55.7202C57.6405 54.5089 58.7467 53.6884 60.0276 53.6884H79.2605C80.2115 53.6884 81.0654 54.1182 81.6283 54.8997C82.1911 55.6616 82.3463 56.6189 82.0746 57.5372L77.1063 73.5968C76.6405 75.0035 75.3596 75.9608 73.8846 75.9608Z" fill="#474747"/>
<path d="M10.907 64.6879C10.1113 64.6879 9.45142 64.0236 9.45142 63.2226V38.4688C9.45142 37.6678 10.1113 37.0035 10.907 37.0035C11.7027 37.0035 12.3625 37.6678 12.3625 38.4688V63.2226C12.3625 64.0431 11.7027 64.6879 10.907 64.6879Z" fill="#474747"/>
<path d="M18.243 64.6878C17.4473 64.6878 16.7875 64.0236 16.7875 63.2225V35.3429C16.7875 34.5418 17.4473 33.8776 18.243 33.8776C19.0388 33.8776 19.6986 34.5418 19.6986 35.3429V63.2225C19.6986 64.0431 19.0582 64.6878 18.243 64.6878Z" fill="#474747"/>
<path d="M25.5985 58.8267C24.8028 58.8267 24.1429 58.1624 24.1429 57.3614V30.0678C24.1429 29.2668 24.8028 28.6025 25.5985 28.6025C26.3942 28.6025 27.0541 29.2668 27.0541 30.0678V57.3614C27.0541 58.182 26.3942 58.8267 25.5985 58.8267Z" fill="#474747"/>
<path d="M32.9346 52.3794C32.1389 52.3794 31.479 51.7151 31.479 50.9141V28.1141C31.479 27.3131 32.1389 26.6488 32.9346 26.6488C33.7303 26.6488 34.3901 27.3131 34.3901 28.1141V50.9141C34.3901 51.7347 33.7497 52.3794 32.9346 52.3794Z" fill="#474747"/>
<path d="M40.29 35.7728C39.4943 35.7728 38.8345 35.1085 38.8345 34.3075V28.7003C38.8345 27.8993 39.4943 27.235 40.29 27.235C41.0857 27.235 41.7456 27.8993 41.7456 28.7003V34.3075C41.7456 35.128 41.0857 35.7728 40.29 35.7728Z" fill="#474747"/>
<path d="M47.6261 34.9913C46.8304 34.9913 46.1705 34.327 46.1705 33.526V32.217C46.1705 31.416 46.8304 30.7517 47.6261 30.7517C48.4218 30.7517 49.0817 31.416 49.0817 32.217V33.526C49.0817 34.3466 48.4412 34.9913 47.6261 34.9913Z" fill="#474747"/>
<path d="M54.9816 36.945C54.1859 36.945 53.526 36.2807 53.526 35.4797V32.0216C53.526 31.2205 54.1859 30.5563 54.9816 30.5563C55.7773 30.5563 56.4371 31.2205 56.4371 32.0216V35.4797C56.4371 36.3002 55.7773 36.945 54.9816 36.945Z" fill="#474747"/>
<path d="M62.3176 49.9178C61.5219 49.9178 60.8621 49.2535 60.8621 48.4525V28.7003C60.8621 27.8993 61.5219 27.235 62.3176 27.235C63.1133 27.235 63.7732 27.8993 63.7732 28.7003V48.4525C63.7732 49.2535 63.1133 49.9178 62.3176 49.9178Z" fill="#474747"/>
<path d="M69.6537 49.9177C68.858 49.9177 68.1981 49.2534 68.1981 48.4524V25.7696C68.1981 24.9686 68.858 24.3043 69.6537 24.3043C70.4494 24.3043 71.1093 24.9686 71.1093 25.7696V48.4524C71.1093 49.2534 70.4688 49.9177 69.6537 49.9177Z" fill="#474747"/>
<path d="M77.0092 49.9177C76.2134 49.9177 75.5536 49.2535 75.5536 48.4524V22.4483C75.5536 21.6473 76.2134 20.983 77.0092 20.983C77.8049 20.983 78.4647 21.6473 78.4647 22.4483V48.4524C78.4647 49.2535 77.8049 49.9177 77.0092 49.9177Z" fill="#474747"/>
<path d="M84.3452 49.9177C83.5495 49.9177 82.8896 49.2534 82.8896 48.4524V18.7166C82.8896 17.9156 83.5495 17.2513 84.3452 17.2513C85.1409 17.2513 85.8008 17.9156 85.8008 18.7166V48.4524C85.8008 49.2534 85.1603 49.9177 84.3452 49.9177Z" fill="#474747"/>
</g>
<defs>
<clipPath id="clip0">
<rect width="95" height="76" fill="white"/>
</clipPath>
</defs>
</svg>
