<svg width="27" height="27" viewBox="0 0 27 27" fill="none" xmlns="http://www.w3.org/2000/svg">
<path d="M26.9963 13.5204C26.9963 17.0196 26.9963 20.5189 26.9963 24.0218C26.9963 24.8582 26.715 25.5746 26.1151 26.1634C25.549 26.7185 24.8628 26.996 24.0717 26.9998C23.258 27.0073 22.4481 26.9998 21.6345 26.9998C15.4254 26.9998 9.21247 26.9998 3.00333 26.9998C1.28232 26.9998 0 25.7246 0 24.0068C0 17.0121 0 10.0174 0 3.02641C0 1.26366 1.26357 -0.000267813 3.02583 -0.000267813C10.0299 -0.000267813 17.0339 -0.00401834 24.0379 0.00348271C25.2302 0.00348271 26.1151 0.562311 26.6813 1.60871C26.9175 2.04377 27 2.52384 27 3.0189C26.9963 6.04933 27 9.07975 27 12.1139C26.9963 12.5827 26.9963 13.0516 26.9963 13.5204ZM13.4756 18.7299C13.5431 18.7786 13.5956 18.8124 13.6444 18.8499C15.1516 19.9638 16.6552 21.0814 18.17 22.1841C18.3575 22.3191 18.5862 22.4204 18.8074 22.4841C19.2573 22.6116 19.6285 22.4354 19.8385 22.0191C19.921 21.854 19.9847 21.674 20.026 21.4902C20.2809 20.2751 20.5247 19.0561 20.7721 17.8372C21.5408 14.0304 22.3132 10.2237 23.078 6.41313C23.1268 6.17309 23.1268 5.91431 23.093 5.67052C23.0406 5.31047 22.7593 5.08169 22.3919 5.10044C22.1669 5.1117 21.9345 5.17171 21.7245 5.25422C16.2127 7.33576 10.701 9.4248 5.18928 11.5138C4.49937 11.7764 3.80947 12.0277 3.12332 12.2977C2.73712 12.4515 2.5234 12.759 2.5384 13.0891C2.5534 13.4304 2.75962 13.6554 3.19081 13.7904C4.63811 14.2442 6.0854 14.698 7.53645 15.1443C7.66769 15.1856 7.72768 15.2494 7.76892 15.3731C8.23011 16.8058 8.69504 18.2385 9.16748 19.6675C9.32495 20.14 9.47868 20.6164 9.68491 21.0702C9.86488 21.4715 10.2998 21.569 10.6823 21.3477C10.7723 21.2952 10.8622 21.2315 10.941 21.1602C11.2822 20.8489 11.6234 20.5376 11.9571 20.2151C12.4558 19.7275 12.9582 19.2324 13.4756 18.7299Z" fill="#2D2D2D"/>
<path d="M13.4756 18.7301C12.9582 19.2326 12.4558 19.7277 11.9459 20.219C11.6122 20.5378 11.271 20.8491 10.9298 21.1642C10.851 21.2354 10.7648 21.2992 10.671 21.3517C10.2848 21.5767 9.85366 21.4792 9.67368 21.0742C9.46746 20.6203 9.31373 20.144 9.15625 19.6715C8.68382 18.2425 8.22263 16.8098 7.7577 15.3771C7.71645 15.2533 7.65646 15.1858 7.52523 15.1483C6.07418 14.702 4.62689 14.2482 3.17959 13.7944C2.7484 13.6594 2.54218 13.4343 2.52718 13.093C2.51218 12.763 2.72215 12.4555 3.1121 12.3017C3.79825 12.0316 4.48816 11.7804 5.17806 11.5178C10.6898 9.42879 16.2015 7.33974 21.7132 5.25821C21.927 5.17944 22.1557 5.11569 22.3807 5.10443C22.7481 5.08568 23.0293 5.31446 23.0818 5.67451C23.1193 5.91455 23.1156 6.17708 23.0668 6.41712C22.3057 10.2276 21.5333 14.0344 20.7609 17.8412C20.5134 19.0601 20.2697 20.279 20.0147 21.4942C19.9772 21.6742 19.9135 21.858 19.8273 22.023C19.6173 22.4393 19.2461 22.6156 18.7962 22.4881C18.5712 22.4243 18.3462 22.3268 18.1587 22.1881C16.644 21.0817 15.1404 19.964 13.6331 18.8538C13.5956 18.8126 13.5431 18.7788 13.4756 18.7301ZM10.2211 20.249C10.2324 20.2453 10.2474 20.2453 10.2586 20.2415C10.2623 20.2153 10.2698 20.1853 10.2736 20.159C10.4086 18.9739 10.5436 17.7887 10.686 16.6035C10.6973 16.4985 10.761 16.3785 10.8398 16.3072C11.9196 15.3246 13.0107 14.3495 14.0943 13.3743C15.8416 11.8029 17.5851 10.2314 19.3323 8.65993C19.3773 8.61867 19.4411 8.57742 19.4561 8.52491C19.4861 8.42365 19.5273 8.28488 19.4823 8.22112C19.4411 8.16111 19.2873 8.16486 19.1861 8.16861C19.1224 8.17236 19.0624 8.22112 19.0024 8.25862C18.7174 8.4349 18.4287 8.61492 18.1437 8.79495C15.3241 10.5652 12.5045 12.3317 9.68493 14.1019C9.27999 14.357 8.87504 14.612 8.46635 14.8708C9.05502 16.671 9.63619 18.46 10.2211 20.249Z" fill="white"/>
<path d="M10.2211 20.2491C9.63615 18.4601 9.05498 16.6748 8.46631 14.8708C8.875 14.612 9.27995 14.357 9.68489 14.102C12.5045 12.3317 15.3241 10.5615 18.1437 8.79497C18.4287 8.61495 18.7136 8.43492 19.0024 8.25865C19.0586 8.22114 19.1223 8.17239 19.1861 8.16864C19.2873 8.16489 19.441 8.16113 19.4823 8.22114C19.5273 8.2849 19.486 8.42742 19.456 8.52494C19.4411 8.57744 19.3773 8.6187 19.3323 8.65995C17.5851 10.2314 15.8415 11.8029 14.0943 13.3744C13.0069 14.3532 11.9196 15.3246 10.8397 16.3073C10.761 16.3785 10.6973 16.4985 10.686 16.6036C10.5435 17.7887 10.4085 18.9739 10.2736 20.159C10.2698 20.1853 10.2661 20.2153 10.2586 20.2416C10.2473 20.2453 10.2323 20.2453 10.2211 20.2491Z" fill="#2D2D2D"/>
</svg>
